<?xml version="1.0" encoding="UTF-8"?>
<!DOCTYPE svg PUBLIC "-//W3C//DTD SVG 1.1//EN" "http://www.w3.org/Graphics/SVG/1.1/DTD/svg11.dtd">
<!-- Creator: CorelDRAW 2018 (64 Bit Versão de avaliação) -->
<svg xmlns="http://www.w3.org/2000/svg" xml:space="preserve" width="59.2666mm" height="59.2666mm" version="1.1" style="shape-rendering:geometricPrecision; text-rendering:geometricPrecision; image-rendering:optimizeQuality; fill-rule:evenodd; clip-rule:evenodd"
viewBox="0 0 5926.66 5926.66"
 xmlns:xlink="http://www.w3.org/1999/xlink">
 <defs>
  <style type="text/css">
   <![CDATA[
    .fil0 {fill:none}
    .fil12 {fill:#FEFEFE}
    .fil16 {fill:#0076F3}
    .fil4 {fill:#00CAE9}
    .fil7 {fill:#043942}
    .fil18 {fill:#063A43}
    .fil19 {fill:#063A43}
    .fil1 {fill:#231F20}
    .fil14 {fill:#4CAF50}
    .fil9 {fill:#7F9FA0}
    .fil10 {fill:#87A4A6}
    .fil15 {fill:#DE4326}
    .fil8 {fill:#DEE7FF}
    .fil2 {fill:#E0F0FC}
    .fil13 {fill:#ECCCB5}
    .fil5 {fill:#ED6326}
    .fil17 {fill:#F5912D}
    .fil11 {fill:#FDF1EC}
    .fil3 {fill:#FEFEFE}
    .fil6 {fill:white}
   ]]>
  </style>
 </defs>
 <g id="Camada_x0020_1">
  <metadata id="CorelCorpID_0Corel-Layer"/>
  <rect class="fil0" x="-0.01" y="-0" width="5926.68" height="5926.67"/>
  <rect class="fil1" x="1191.33" y="3884.08" width="3036.83" height="251.87"/>
  <path class="fil2" d="M414.12 3098.47l-32.02 6.73c-22.1,89.43 -10.76,375.28 -6.35,481.72l513.66 1.57c18.24,0.75 57.74,6.96 65.54,10.32 38.48,16.55 -6.69,-24.42 40.46,48.54l-58.85 65.39c-16.37,6.41 -11.79,4.83 -35.12,6.02 -57.03,2.92 -128.68,-0.93 -187.45,-0.93l4.74 404.64c35.13,20.2 101.19,127.53 110.17,176.09l-114.91 2.5 0 941.57 4446.17 -4.63 -932.01 -1084c-116.46,-1 -2950.92,10.76 -3019.85,-4.37l-19.69 -7.2 2.72 -258.36 0.03 -1095.32 -20.06 0 0 694.55 -187.67 0c-14.18,33.57 0.68,30.01 -50.4,50.55 -46.07,18.53 -447.45,8.08 -512.5,8.08 0,-105.26 13.76,-357.07 -6.61,-443.46z"/>
  <path class="fil3" d="M2492.34 3519.94c-12.21,-74.96 -54.57,-67.51 -51.81,-155.32 35.6,-34.76 43.24,-45.48 99.76,-40.74 41.91,33.21 43.88,77.33 86.29,112.27l215.65 -134.01c-102.2,-31.69 -491.08,-296.79 -565.2,-311.32l0 643.14 215.31 -114.02z"/>
  <path class="fil3" d="M3567.2 1951.49c246.19,-151.5 475.07,108.09 346.23,322.22 -124.67,207.19 -465.95,119.06 -436.36,-168.63 52.53,-4.06 51.02,52.57 122.78,9.19 115.39,-69.74 -32.48,-162.63 -32.65,-162.78zm-162.29 265.36c90.42,403.24 703.42,277.32 614.22,-138.94 -87.66,-409.09 -708.1,-279.75 -614.22,138.94z"/>
  <path class="fil4" d="M1171.3 2788.76l20.07 0c407.29,-2.68 815.43,-0.22 1222.82,-0.22 186.72,0 397.53,25.33 542.76,-64.02 120.41,-74.07 220.01,-205.84 214.46,-408.94 -26.19,-244.99 -196.79,-411.36 -454.32,-416.06 23.37,-235.48 -101.63,-343.01 -326.35,-341.47 -71.54,-103.81 -119.5,-285.79 -399.78,-336.26 -166.61,-30.01 -318.73,22.31 -437.97,122.19 -43.45,36.4 -47.31,62.59 -88.6,98.43 -115.87,-55.79 -197.12,-105.07 -340.47,-11.94 -100.14,65.05 -133.58,168.86 -103.83,328.34 -301.43,11.97 -557.08,265.88 -504.39,596.32 24.71,154.93 123.3,276.34 213.32,339.2 135.89,94.9 254.9,92.22 442.28,94.43z"/>
  <path class="fil4" d="M1526.79 2087.06l324.55 5.52c22.28,-37.01 18.43,-76.19 50.77,-129.76 79.05,-130.96 82.81,-1.31 82.1,-249.34l-456.88 0.49 -0.54 373.09z"/>
  <path class="fil4" d="M1526.66 2505.17l455.91 3.45c4.06,-238.62 8.38,-110.36 -76.04,-241.58 -32.46,-50.47 -30.12,-80.57 -50.5,-136.95l-324.63 -0.01 -4.74 375.09z"/>
  <path class="fil4" d="M2044.93 1915.54l333.1 199.88 -336.73 190.28 3.63 -390.16zm35.97 -50.63c-348.28,123.84 -153.89,608.2 169.67,492.7 316.09,-112.84 151.6,-606.92 -169.67,-492.7z"/>
  <polygon class="fil4" points="2018.38,2507.8 2121.67,2508.41 2121.76,2404.51 2016.87,2406.06 "/>
  <path class="fil5" d="M1191.37 2788.76l-0.04 1095.32 3036.39 5.84 3.66 -1573.56c-353.33,-0.46 -706.7,-8.55 -1059.97,-0.78 5.55,203.1 -94.05,334.87 -214.46,408.94 -145.23,89.35 -356.04,64.02 -542.76,64.02 -407.39,0 -815.53,-2.46 -1222.82,0.22z"/>
  <path class="fil5" d="M2492.34 3519.94l-215.31 114.02 0 -643.14c74.12,14.53 463,279.63 565.2,311.32l-215.65 134.01c5.77,30.73 93.56,201.66 127.66,223.14 51.73,-58.94 -42.67,-63.76 81.47,-118.63 80.39,-35.53 134.41,-269.49 1.12,-480.59 -55.17,-87.36 -141.18,-151.61 -251.06,-179.73 -111.08,-28.44 -247.07,-12.53 -340.19,49.2 -299.98,198.86 -253.59,549.95 -86.95,703.66 138.91,128.14 287.18,137.51 460.99,98.74 -25.47,-48.01 -92.3,-181.05 -127.28,-212z"/>
  <polygon class="fil3" points="2295.49,3567.25 2783.89,3331.69 2295.52,3070.55 "/>
  <ellipse class="fil6" cx="3711.92" cy="2145.81" rx="331.87" ry="332.62"/>
  <path class="fil7" d="M3490.94 3139.33c8.32,-86.29 20.84,-173.27 31.69,-258.27 7.62,-59.67 0.66,-197.59 54.37,-231.41 45.7,-25.92 231.62,-16.31 276.84,3.7 39.27,73.97 52.94,376.96 73.64,485.76 95.78,-6.1 86.34,-33.15 85.53,-124.63 -0.62,-70.45 -0.44,-140.88 -0.44,-211.33 0,-138.78 2.91,-280.82 -0.95,-419.14 -59.25,33.69 -123.02,149.25 -319.75,140.61 -162.78,-7.15 -226.02,-101.55 -289.24,-155.22 4.25,142.85 0.89,290.36 0.89,433.75 0,70.53 0.34,141.08 -0.34,211.61 -0.86,90.41 -6.74,118.8 87.76,124.57z"/>
  <path class="fil7" d="M3410.06 1556.54l-2.35 354.34c85.67,-69.79 143.93,-142.14 296.15,-145.09 171.9,-3.33 220.73,75.82 301.48,140.3l2.12 -332.32c-14.42,-77.39 -132.09,-50.21 -291.7,-50.21 -111.35,0 -278.91,-20.98 -305.7,32.98z"/>
  <path class="fil7" d="M3567.2 1951.49c0.17,0.15 148.04,93.04 32.65,162.78 -71.76,43.38 -70.25,-13.25 -122.78,-9.19 -29.59,287.69 311.69,375.82 436.36,168.63 128.84,-214.13 -100.04,-473.72 -346.23,-322.22z"/>
  <path class="fil8" d="M2468.18 2834.88c264.17,0 478.32,214.14 478.32,478.3 0,264.17 -214.15,478.31 -478.32,478.31 -264.16,0 -478.31,-214.14 -478.31,-478.31 0,-264.16 214.15,-478.3 478.31,-478.3zm0 36.28c244.13,0 442.03,197.9 442.03,442.02 0,244.13 -197.9,442.03 -442.03,442.03 -244.12,0 -442.02,-197.9 -442.02,-442.03 0,-244.12 197.9,-442.02 442.02,-442.02z"/>
  <path class="fil9" d="M3490.94 3139.33l436.54 -0.22c-20.7,-108.8 -34.37,-411.79 -73.64,-485.76 -45.22,-20.01 -231.14,-29.62 -276.84,-3.7 -53.71,33.82 -46.75,171.74 -54.37,231.41 -10.85,85 -23.37,171.98 -31.69,258.27z"/>
  <path class="fil10" d="M3404.91 2216.85c-93.88,-418.69 526.56,-548.03 614.22,-138.94 89.2,416.26 -523.8,542.18 -614.22,138.94zm286.96 307.77c93.67,4.11 337.85,-33.29 384.05,-287.78 -0.55,-226.29 10.02,-64.03 -46.2,-392.64 0.34,-74.72 7.84,-213.45 -22.26,-270.43l-2.12 332.32c-80.75,-64.48 -129.58,-143.63 -301.48,-140.3 -152.22,2.95 -210.48,75.3 -296.15,145.09l2.35 -354.34 -8.16 18.56c-0.69,2.58 -2.45,6.64 -3.16,9.9l-3.43 174.54c0.01,62.76 10.76,147.42 -9.97,197.93 -109.64,267.07 -2.74,561.99 306.53,567.15z"/>
  <polygon class="fil3" points="2515.73,2500.22 2700.03,2411.34 2515.74,2312.79 "/>
  <path class="fil11" d="M2402.72 2290.73l357.67 0.22 -0.31 231.88 -356.02 -0.01 -1.34 -232.09zm-15.52 298.42l344.5 0.65 45.54 -3.91 0.01 -367.02 -390.31 -3.32 1.98 109.79 -0.01 164.16 -1.71 99.65z"/>
  <polygon class="fil12" points="2369.71,2149.45 2384.73,2204.96 2760.02,2142.47 2752.37,2070.1 "/>
  <path class="fil6" d="M1054.08 2218.41l471.72 0 0 338.94 -471.72 0 0 -338.94zm-129.29 -69.89l464.74 -80.36 17.47 101.33 -398.34 0 0 349.42 -17.48 0 -66.39 -370.39zm-52.41 -38.43c0,32.39 75.63,407.74 80.37,464.73 19.87,-0.44 33.05,-6.99 55.91,-6.99l0 38.44 562.57 0 0 -436.78 -118.81 0c0,-34.42 -23.83,-129.18 -24.46,-157.24 -21,4.89 -44.94,8.35 -67.86,12.5l-487.72 85.34z"/>
  <path class="fil6" d="M1179.87 2354.68c-64.21,0 -46.54,-76.87 -6.99,-76.87 58.84,0 51.35,76.87 6.99,76.87zm-97.83 146.76l97.83 -62.9c11.58,7.76 48.44,32.39 59.41,34.95 12.24,-8.2 90.21,-95.57 105.85,-114.28 39.43,-47.17 40.93,-59.98 96.81,12.95l52.41 59.4c7.87,-14 3.5,-148.33 3.5,-174.72 0,-8.05 -2.43,-10.48 -10.48,-10.48l-394.85 0c-16.51,0 -10.49,27.14 -10.48,55.91l0 199.17z"/>
  <polygon class="fil4" points="1814.2,1979 1920.36,1979 1920.25,1874.43 1814.09,1874.43 "/>
  <path class="fil6" d="M1725.36 1549.66l242.92 0 8.1 89.08 89.07 8.09 0 340.1 -340.09 0 0 -437.27zm-48.59 -16.19l0 469.65c0,31.76 40.06,40.49 72.88,40.49l307.7 0c29.59,0 64.78,-22.35 64.78,-48.58l0 -364.39c0,-22.82 -130.79,-137.66 -145.75,-137.66l-259.12 0c-18.88,0 -40.49,21.61 -40.49,40.49z"/>
  <path class="fil6" d="M1814.43 1930.25l178.14 0c24.48,0 22.39,-9.53 24.3,-32.39l-226.73 0c1.9,22.86 -0.19,32.39 24.29,32.39z"/>
  <path class="fil13" d="M2619.62 3731.94l23.08 38.41c23.19,45.85 43.39,72.99 62.34,114.67 13.62,19.27 22.45,32.36 29.89,46.68l0 0 77.19 135.56 0 0c11.6,18.59 21.15,39.74 29.16,60.65 -100.66,-19.59 -275.84,-95.64 -370.26,-80.6 -25.13,28.51 -29.74,44.88 -39.75,95.12l12.01 34.24c2.66,1.32 5.65,2.71 9.06,4.18 44.86,19.42 138.17,41.07 200.6,59.12 127.5,36.85 296.16,104.6 422.86,85.99 18.49,37.5 43.42,62.3 35.38,106l451.49 -255.3c-1.07,-2.71 -0.64,-5.13 1.03,-7.29l-23.41 -41.97c-12.42,-11.26 -14.56,-22.58 -25.72,-46.13l6.96 -135.12c-11.11,-19.21 -19.69,-42.86 -28.16,-64.19 -37.83,-45.49 -258.42,-470.49 -287.99,-497.9 -33.8,-34.59 -64.61,-24.39 -100.39,-6.81 -15.63,24.02 -30.34,45.79 -15.03,86.05 7.82,20.55 15.57,20.3 20.21,38.94 10.67,42.92 13.52,10.35 -6.97,35.27 -47.32,-15.3 -68.97,-167.62 -173.81,-42.54 -12.44,87.04 33.61,71.29 27.92,120 -72.78,31.52 -76.06,-120.68 -148.19,-61.63 -73.65,35.28 38.9,91.55 -54.88,105.95 -59.78,-37.65 -137.82,-275.08 -213.95,-335.41 -56.52,-4.74 -64.16,5.98 -99.76,40.74 -2.48,79.08 137.93,289.74 179.09,367.32z"/>
  <ellipse class="fil14" cx="5066.04" cy="2961.66" rx="564.28" ry="565.56"/>
  <ellipse class="fil15" cx="2289.82" cy="4662.12" rx="416.76" ry="417.7"/>
  <path class="fil16" d="M2104.8 1005.92c-135.14,25.19 -132.75,-41.49 -136.31,56.16l132.57 0.78 4.33 135.41c67.46,-1.93 42.79,13.95 51.8,-35.09 1.14,-6.21 -1.56,-87.61 -1.56,-101.16l132.93 -0.96 3.11 -45.72 -136.03 -4.86c-0.01,-21.33 3.44,-67.72 2.1,-85.68 -4.95,-66.06 12.05,-47.6 -52.94,-49.97l0 131.09z"/>
  <polygon class="fil3" points="2529.92,1091.16 2532.41,1135.29 2845.12,1135.24 2848.7,1091.2 2848.12,888.05 2529.98,888.05 "/>
  <polygon class="fil3" points="2872.31,964.67 2869.61,1060.52 3012.3,1117.81 3011.92,907.38 "/>
  <polygon class="fil4" points="1814.2,1836.82 1920.36,1836.82 1920.25,1732.24 1814.09,1732.24 "/>
  <path class="fil7" d="M3562.67 4176.66l-451.49 255.3c-26.9,17.42 -8.16,4.19 -15.92,24.54 36.31,57.11 118.5,198.7 142.12,260.92l44.47 -0.17c82.08,-31.31 175.8,-50.86 258.95,-83.83 83.16,-32.98 182.12,-93.47 251.01,-115.58l-192.2 -353.2 -36.94 12.02z"/>
  <path class="fil7" d="M382.1 3105.19l32.02 -6.73c6.74,-53.96 57.8,-106.93 81.19,-169.99l-198.98 1.19c19.78,50.7 83.27,127.78 85.77,175.53z"/>
  <path class="fil17" d="M2529.98 888.05l318.14 0 0.58 203.15 -3.58 44.04 -312.71 0.05 -2.49 -44.13 0.06 -203.11zm481.94 19.33l0.38 210.43 -142.69 -57.29 2.7 -95.85 139.61 -57.29zm-334.76 -287.36c-534.39,120.46 -351.52,894.87 166.87,782.96 188.24,-40.64 359.44,-234.22 302.45,-482.03 -41.93,-182.32 -233.74,-354.04 -469.32,-300.93z"/>
  <polygon class="fil18" points="713.99,4301.06 828.9,4298.57 718.73,4122.46 635,4299.76 "/>
  <g id="_1438289871872">
   <path class="fil6" d="M4850.83 2691.39l300.3 0 10.01 110.11 110.11 10.01 0 420.41 -420.42 0 0 -540.53zm-60.06 -20.02l0 580.57c0,39.27 49.52,50.05 90.09,50.05l380.37 0c36.59,0 80.08,-27.62 80.08,-60.05l0 -450.45c0,-28.21 -161.67,-170.17 -180.17,-170.17l-320.32 0c-23.34,0 -50.05,26.71 -50.05,50.05z"/>
   <polygon class="fil6" points="4930.91,2971.67 5211.19,2971.67 5211.19,2931.63 4930.91,2931.63 "/>
   <path class="fil6" d="M4960.94 3161.86l220.22 0c30.26,0 27.67,-11.78 30.03,-40.04l-280.28 0c2.35,28.26 -0.23,40.04 30.03,40.04z"/>
   <polygon class="fil6" points="4930.91,2871.57 5211.19,2871.57 5211.19,2841.54 4930.91,2841.54 "/>
   <polygon class="fil6" points="4930.91,3061.76 5211.19,3061.76 5211.19,3031.73 4930.91,3031.73 "/>
   <path class="fil6" d="M4930.91 2781.48l170.17 0c-2.36,-28.26 0.23,-40.04 -30.03,-40.04l-110.11 0c-28.5,0 -30.03,11.59 -30.03,40.04z"/>
  </g>
  <polygon class="fil6" points="1790.14,1776.39 2016.87,1776.39 2016.87,1744 1790.14,1744 "/>
  <polygon class="fil6" points="1790.14,1695.42 2016.87,1695.42 2016.87,1671.13 1790.14,1671.13 "/>
  <polygon class="fil6" points="1790.14,1849.27 2016.87,1849.27 2016.87,1824.98 1790.14,1824.98 "/>
  <path class="fil6" d="M1790.14 1622.54l137.65 0c-1.9,-22.86 0.19,-32.39 -24.29,-32.39l-89.07 0c-23.05,0 -24.29,9.38 -24.29,32.39z"/>
  <path class="fil6" d="M2179.06 4602.12l311.51 0 0 223.83 -311.51 0 0 -223.83zm-85.38 -46.15l306.9 -53.07 11.54 66.92 -263.06 0 0 230.75 -11.54 0 -43.84 -244.6zm-34.61 -25.38c0,21.4 49.94,269.27 53.07,306.9 13.13,-0.29 21.83,-4.62 36.92,-4.62l0 25.39 371.51 0 0 -288.44 -78.46 0c0,-22.73 -15.74,-85.31 -16.15,-103.84 -13.87,3.23 -29.68,5.52 -44.81,8.26l-322.08 56.35z"/>
  <path class="fil6" d="M2262.13 4692.12c-42.4,0 -30.74,-50.77 -4.62,-50.77 38.86,0 33.91,50.77 4.62,50.77zm-64.61 96.91l64.61 -41.53c7.64,5.11 31.99,21.38 39.23,23.07 8.08,-5.41 59.57,-63.11 69.9,-75.47 26.04,-31.15 27.03,-39.6 63.93,8.55l34.61 39.23c5.19,-9.24 2.31,-97.95 2.31,-115.37 0,-5.32 -1.6,-6.93 -6.92,-6.93l-260.75 0c-10.9,0 -6.93,17.92 -6.92,36.92l0 131.53z"/>
  <polygon class="fil8" points="3552.31,1219.07 3667.21,1216.57 3557.04,1040.47 3473.31,1217.76 "/>
  <ellipse class="fil19" cx="3041.79" cy="1668.14" rx="78.46" ry="78.45"/>
  <ellipse class="fil19" cx="5160.16" cy="5238" rx="78.46" ry="78.45"/>
  <ellipse class="fil8" cx="923.42" cy="3237.32" rx="78.46" ry="78.45"/>
 </g>
</svg>
