<?xml version="1.0" encoding="UTF-8"?>
<!DOCTYPE svg PUBLIC "-//W3C//DTD SVG 1.1//EN" "http://www.w3.org/Graphics/SVG/1.1/DTD/svg11.dtd">
<!-- Creator: CorelDRAW 2018 (64 Bit Versão de avaliação) -->
<svg xmlns="http://www.w3.org/2000/svg" xml:space="preserve" width="59.2666mm" height="59.2666mm" version="1.1" style="shape-rendering:geometricPrecision; text-rendering:geometricPrecision; image-rendering:optimizeQuality; fill-rule:evenodd; clip-rule:evenodd"
viewBox="0 0 5926.66 5926.66"
 xmlns:xlink="http://www.w3.org/1999/xlink">
 <defs>
  <style type="text/css">
   <![CDATA[
    .fil0 {fill:none}
    .fil1 {fill:#4CAF50}
   ]]>
  </style>
 </defs>
 <g id="Camada_x0020_1">
  <metadata id="CorelCorpID_0Corel-Layer"/>
  <rect class="fil0" x="-0.01" y="-0" width="5926.68" height="5926.67"/>
  <path class="fil1" d="M2194.6 2770.03c-10.84,-51.52 -3.36,-205.05 -3.36,-267.25 0,-245.32 -23.69,-480.19 100.58,-691.96 113.7,-193.75 342.55,-391.34 671.26,-390.21 332.62,1.15 554.89,194.35 671.65,390.29 72.51,121.67 100.91,262.65 100.7,434.52 -0.1,79.16 5.45,482.38 -3.35,525.73l-1537.48 -1.12zm-737.17 2313.17l2984.71 0c58.83,-26.11 142.39,-17.18 219.59,-150.37 48.19,-83.16 35.45,-223.05 35.39,-330.49l-0.02 -1476.46c0.26,-129.38 -17.59,-208.75 -93.79,-278.6 -94.29,-86.44 -149.39,-68.54 -288.97,-77.09 -21.86,-109.7 15.75,-556.67 -17.08,-774.87 -32.99,-219.17 -112.32,-417 -222.09,-563.87 -163.48,-218.7 -392.41,-424.57 -665.32,-512.86 -147.02,-47.56 -145.64,-42.52 -282.51,-63.98l-38.31 -11.15 -189.02 0c-25.29,9.2 -205.14,12.57 -343.19,61.52 -113.58,40.28 -177.68,66.68 -274.31,124.61 -52.78,31.64 -133.8,86.99 -177.84,126.95 -123.82,112.34 -136.63,128.56 -241.25,259.86 -374.65,470.14 -200.38,1091.95 -251.05,1353.68 -150.7,10.45 -189.24,-8.93 -288.88,77.39 -75.04,65 -94.23,146.65 -94.03,271.63l0.02 1462.92c0,101.56 -12.46,255.84 28.12,337.83 56.61,114.39 121.59,122.81 184.93,153.83 10.37,5.07 9.46,5.06 14.9,9.52z"/>
 </g>
</svg>
