<?xml version="1.0" encoding="UTF-8"?>
<!DOCTYPE svg PUBLIC "-//W3C//DTD SVG 1.1//EN" "http://www.w3.org/Graphics/SVG/1.1/DTD/svg11.dtd">
<!-- Creator: CorelDRAW 2018 (64 Bit Versão de avaliação) -->
<svg xmlns="http://www.w3.org/2000/svg" xml:space="preserve" width="59.2666mm" height="59.2666mm" version="1.1" style="shape-rendering:geometricPrecision; text-rendering:geometricPrecision; image-rendering:optimizeQuality; fill-rule:evenodd; clip-rule:evenodd"
viewBox="0 0 5926.66 5926.66"
 xmlns:xlink="http://www.w3.org/1999/xlink">
 <defs>
  <style type="text/css">
   <![CDATA[
    .fil0 {fill:none}
    .fil1 {fill:#0074F2}
    .fil2 {fill:#0076F3}
   ]]>
  </style>
 </defs>
 <g id="Camada_x0020_1">
  <metadata id="CorelCorpID_0Corel-Layer"/>
  <rect class="fil0" x="-0.01" y="-0" width="5926.68" height="5926.67"/>
  <g id="_1438194565504">
   <g>
    <path class="fil1" d="M1329.44 2841.51c0,178.47 -20.37,502.15 46.94,645.49 30.64,65.24 68.09,131.17 118.02,183.31 102.01,106.53 258.82,184.2 418.48,184.2l166.69 0c161.58,0 294.92,-138.63 294.92,-301.34l0 -1032.22c0,-162.59 -133.93,-301.33 -294.92,-301.33 -175.98,0 -240.59,-11.73 -404.94,56.68 -213.93,89.04 -345.19,326.31 -345.19,565.21z"/>
    <path class="fil1" d="M3554.17 2520.95l0 1032.22c0,162.71 133.34,301.34 294.92,301.34 154.46,0 270.72,10.81 410.47,-57.56 88.86,-43.48 147.69,-93.88 206.5,-165.35 89.77,-109.08 133.16,-247.64 133.16,-398.99l0 -391.1c0,-99.45 -17.28,-181.46 -47.54,-253.79 -32.29,-77.18 -88.44,-165.08 -154.89,-216.96 -201.87,-157.64 -286.87,-151.14 -547.7,-151.14 -161,0 -294.92,138.74 -294.92,301.33z"/>
   </g>
   <path class="fil2" d="M592.14 2950.51c0,151.48 -34.84,314.15 185.93,314.15 99.91,0 200.35,8.73 245.64,-87.74 28.54,-60.79 17.23,-167.96 17.22,-252.06 -0.02,-232.26 69.09,-556.77 170.92,-758.72 16.34,-32.41 28.71,-57.26 44.93,-89.71 61.35,-122.72 131.95,-224.08 212.87,-325.68 126.12,-158.33 286.04,-300.53 457.29,-408.24l129.11 -76.05c126.78,-62.89 237.72,-116.78 377.41,-154.73 444.04,-120.65 941.37,-94.79 1345.11,107.72 100.75,50.53 129.61,64.23 223.15,123.06 13.87,8.72 21.63,11.94 35.99,21.71 101.28,68.9 265.17,205.32 345.08,296.05l53.47 61.94c86.42,110.43 119.78,152.55 190.63,270.99 139.81,233.7 260.84,588.37 260.84,906.01l0 1622.07c0,188.08 -177.37,365.45 -365.45,365.45l-961.7 0c0,-234.3 -201.83,-442.39 -435.96,-442.39l-320.58 0c-301.06,0 -568.97,349.04 -362.8,689.78 27.39,45.26 63.91,80 105.39,112.6 57.91,45.52 157.88,88.8 238.18,88.8l1756.7 0c230.78,0 449.28,-126.2 597.82,-293.36 15.51,-17.44 30.32,-39.3 44.32,-58.27 29.05,-39.34 50.69,-78.49 73.87,-124.87 37.57,-75.16 79,-209.07 79,-318.51l0 -1590c0,-173.36 -35.11,-365.79 -70.52,-506.5 -49.16,-195.37 -108.21,-351.04 -196.62,-527.86 -42.03,-84.06 -108.9,-204.73 -162.44,-279.94 -40.05,-56.26 -79.04,-111.05 -123.27,-165.25 -12.5,-15.31 -19.04,-23.62 -32.01,-38.51 -14.86,-17.05 -18.25,-24.66 -35.4,-41.53l-176.27 -182.77c-394.48,-364.88 -960.95,-617.01 -1505.14,-617.01 -271.51,0 -385.7,5.64 -647.55,70.51 -308.51,76.44 -628.99,239.57 -870.46,437.46 -15.25,12.5 -23.64,19.05 -38.51,32.01l-118.43 105.96c-26.13,26.17 -47.59,47.6 -73.73,73.74l-67.22 73.82c-25.6,25.57 -45.9,51.13 -68.19,79.27 -99.35,125.42 -157.25,206.41 -236.07,347.36 -71.21,127.34 -136.05,261.77 -182.32,401.12 -75.74,228.09 -140.23,480.26 -140.23,738.12z"/>
  </g>
 </g>
</svg>
