<?xml version="1.0" encoding="UTF-8"?>
<!DOCTYPE svg PUBLIC "-//W3C//DTD SVG 1.1//EN" "http://www.w3.org/Graphics/SVG/1.1/DTD/svg11.dtd">
<!-- Creator: CorelDRAW 2018 (64 Bit Versão de avaliação) -->
<svg xmlns="http://www.w3.org/2000/svg" xml:space="preserve" width="59.2666mm" height="59.2666mm" version="1.1" style="shape-rendering:geometricPrecision; text-rendering:geometricPrecision; image-rendering:optimizeQuality; fill-rule:evenodd; clip-rule:evenodd"
viewBox="0 0 5926.66 5926.66"
 xmlns:xlink="http://www.w3.org/1999/xlink">
 <defs>
  <style type="text/css">
   <![CDATA[
    .fil0 {fill:none}
    .fil3 {fill:white}
    .fil1 {fill:#0076F3;fill-rule:nonzero}
    .fil2 {fill:#4FC3F7;fill-rule:nonzero}
   ]]>
  </style>
 </defs>
 <g id="Camada_x0020_1">
  <metadata id="CorelCorpID_0Corel-Layer"/>
  <rect class="fil0" x="-0.01" y="-0" width="5926.68" height="5926.67"/>
  <path class="fil1" d="M2116.67 2670.02c0,-459.09 0,-918.18 0,-1377.27 0,-253.48 205.61,-459.09 459.09,-459.09 808.71,0 1617.43,0 2426.14,0 253.48,0 459.1,205.61 459.1,459.09 0,459.09 0,918.18 0,1377.27 0,253.48 -205.62,459.09 -459.1,459.09 -69.92,0 -139.85,0 -209.77,0 48.7,299.62 97.4,599.23 146.1,898.84 -299.53,-299.61 -599.05,-599.22 -898.57,-898.84 -487.96,0 -975.93,0 -1463.9,0 -253.48,0 -459.09,-205.61 -459.09,-459.09z"/>
  <path class="fil2" d="M4127.28 3606.24c0,-502.65 0,-1005.28 0,-1507.93 0,-277.53 -225.12,-502.65 -502.65,-502.65 -885.43,0 -1770.87,0 -2656.31,0 -277.53,0 -502.65,225.12 -502.65,502.65 0,502.65 0,1005.28 0,1507.93 0,277.53 225.12,502.65 502.65,502.65 76.56,0 153.12,0 229.68,0 -53.32,328.04 -106.64,656.07 -159.96,984.11 327.94,-328.04 655.88,-656.07 983.81,-984.11 534.26,0 1068.53,0 1602.78,0 277.53,0 502.65,-225.12 502.65,-502.65z"/>
  <circle class="fil3" cx="1401.06" cy="2836.33" r="211.66"/>
  <circle class="fil3" cx="2296.47" cy="2836.33" r="211.66"/>
  <ellipse class="fil3" cx="3191.89" cy="2836.33" rx="211.67" ry="211.66"/>
 </g>
</svg>
