<?xml version="1.0" encoding="UTF-8"?>
<!DOCTYPE svg PUBLIC "-//W3C//DTD SVG 1.1//EN" "http://www.w3.org/Graphics/SVG/1.1/DTD/svg11.dtd">
<!-- Creator: CorelDRAW 2018 (64 Bit Versão de avaliação) -->
<svg xmlns="http://www.w3.org/2000/svg" xml:space="preserve" width="59.2666mm" height="59.2666mm" version="1.1" style="shape-rendering:geometricPrecision; text-rendering:geometricPrecision; image-rendering:optimizeQuality; fill-rule:evenodd; clip-rule:evenodd"
viewBox="0 0 5926.66 5926.66"
 xmlns:xlink="http://www.w3.org/1999/xlink">
 <defs>
  <style type="text/css">
   <![CDATA[
    .fil0 {fill:none}
    .fil1 {fill:#0076F3;fill-rule:nonzero}
   ]]>
  </style>
 </defs>
 <g id="Camada_x0020_1">
  <metadata id="CorelCorpID_0Corel-Layer"/>
  <rect class="fil0" x="-0.01" y="-0" width="5926.68" height="5926.67"/>
  <path class="fil1" d="M4512.77 4069.05l460.71 0c-143.74,294.12 -364.89,524.11 -663.43,690.71 -340.56,190.92 -757.05,286.75 -1247.98,286.75 -475.46,0 -885.31,-80.35 -1231.03,-241.05 -345.72,-161.43 -602.99,-398.79 -771.05,-712.08 -168.81,-314.02 -252.84,-655.32 -252.84,-1025.37 0,-405.43 95.82,-782.84 287.48,-1132.99 190.92,-349.4 453.34,-611.82 785.8,-787.26 332.45,-175.44 712.81,-263.16 1140.36,-263.16 362.67,0 685.54,70.76 967.13,211.56 282.33,141.53 498.31,342.03 647.21,602.24 148.9,260.21 223.36,544.01 223.36,852.14 0,367.83 -112.79,699.55 -339.09,996.62 -283.06,374.47 -646.48,561.7 -1089.5,561.7 -119.42,0 -209.35,-20.64 -269.79,-61.92 -60.45,-42.02 -100.25,-102.46 -120.89,-182.81 -169.55,162.91 -365.63,244.73 -586.77,244.73 -238.83,0 -437.13,-82.56 -594.87,-246.94 -157.75,-165.12 -236.63,-384.05 -236.63,-657.53 0,-338.35 95.09,-646.48 284.54,-925.86 230.73,-339.82 525.58,-509.36 885.31,-509.36 255.79,0 445.23,98.04 566.86,294.12l53.81 -241.05 569.81 0 -326.55 1546.53c-19.9,98.04 -30.22,161.43 -30.22,190.18 0,35.38 8.11,62.66 25.06,80.35 16.22,18.43 36.12,27.27 58.97,27.27 69.29,0 158.49,-42.01 268.32,-125.31 146.69,-109.1 265.37,-256.53 356.04,-440.07 90.67,-184.29 136.37,-375.21 136.37,-572.77 0,-353.82 -128.26,-650.16 -384.05,-888.25 -256.52,-238.1 -614.04,-357.52 -1073.28,-357.52 -389.95,0 -720.92,79.61 -992.19,238.84 -271.27,159.96 -475.46,384.05 -612.57,673.75 -137.85,288.96 -206.4,590.45 -206.4,903.73 0,304.44 76.66,580.87 229.99,830.76 153.32,249.9 368.57,431.97 645.74,546.96 276.43,114.26 593.4,171.76 950.91,171.76 343.51,0 639.84,-48.65 886.78,-145.22 247.69,-96.56 447.45,-241.04 598.57,-434.18zm-2330.11 -887.52c0,182.82 36.85,317.71 110.57,403.96 74.45,86.24 165.85,129.74 274.95,129.74 81.82,0 158.49,-19.91 229.99,-60.45 54.55,-28.75 108.36,-74.45 161.43,-136.37 76.67,-87.72 142.27,-215.25 197.56,-384.05 55.28,-168.07 82.56,-325.08 82.56,-471.04 0,-162.17 -37.6,-287.48 -112.78,-374.47 -75.93,-86.98 -171.02,-130.47 -285.28,-130.47 -123.84,0 -238.1,47.91 -342.77,143.74 -104.67,95.83 -183.55,232.2 -236.62,409.12 -53.08,176.91 -79.61,333.92 -79.61,470.29z"/>
 </g>
</svg>
