<?xml version="1.0" encoding="UTF-8"?>
<!DOCTYPE svg PUBLIC "-//W3C//DTD SVG 1.1//EN" "http://www.w3.org/Graphics/SVG/1.1/DTD/svg11.dtd">
<!-- Creator: CorelDRAW 2018 (64 Bit Versão de avaliação) -->
<svg xmlns="http://www.w3.org/2000/svg" xml:space="preserve" width="59.2666mm" height="59.2666mm" version="1.1" style="shape-rendering:geometricPrecision; text-rendering:geometricPrecision; image-rendering:optimizeQuality; fill-rule:evenodd; clip-rule:evenodd"
viewBox="0 0 5926.66 5926.66"
 xmlns:xlink="http://www.w3.org/1999/xlink">
 <defs>
  <style type="text/css">
   <![CDATA[
    .fil0 {fill:none}
    .fil2 {fill:#0076F3}
    .fil1 {fill:#1D232D}
   ]]>
  </style>
 </defs>
 <g id="Camada_x0020_1">
  <metadata id="CorelCorpID_0Corel-Layer"/>
  <rect class="fil0" x="-0.01" y="-0" width="5926.68" height="5926.67"/>
  <g id="_1438289858944">
   <path class="fil1" d="M5174.77 2476.72c95.18,0 226.32,-13.93 284.7,33.5 30.02,24.39 49.91,57.35 49.75,110.75 -0.16,55.41 -0.2,110.81 -0.2,166.23l0 294.7c0,80.04 13.71,227.02 -23.01,276.03 -9.14,12.19 -11.12,8.94 -18.77,22.95 -20.08,11.97 -20.82,17.54 -48.32,27.6 -26.07,9.54 -33.87,9.85 -71.17,9.85l-134.55 0 -270.32 0 -133.58 0 -98.77 0c-40.99,-1.01 -84.35,-30.53 -104.29,-54.88 -28.5,-34.83 -28.13,-75.65 -28.13,-137.01l0 -214.29 0 -187.23c0,-55.43 0.07,-110.87 0,-166.3 -0.04,-29.47 -1.96,-53.89 4.37,-75.88 8.22,-28.56 16.39,-35.86 27.52,-57.87 31.65,-20.67 37.9,-33.18 84.41,-44.21 28.58,-6.77 85.61,-3.94 123.92,-3.94l203 0 153.44 0zm-301.25 1043.26l133.81 0 260.16 0 120.21 0c25.39,-0.64 50.48,-9.92 72.06,-17.16 14.44,-4.84 18.88,-7.67 32.35,-15.75 17.31,-10.38 17.84,-6.26 27.61,-22.05 29.5,-14.52 55.5,-53.59 71.52,-87.53 21.73,-46.03 19.43,-81.34 19.43,-146.16l0 -310.2c0,-87.5 0,-175.01 0,-262.51 0.01,-83.83 -3.23,-140.79 -60.08,-202.07 -37.81,-40.76 -103.99,-80.95 -180.45,-81.71 -86.26,-0.85 -173.25,0.22 -259.61,0.22l-143.58 0 -218.17 0c-53.44,0 -61.26,0.18 -103.23,13.95 -19.07,6.26 -26.29,8 -41.87,16.97 -15.62,8.98 -27.57,14.3 -36.27,29.04 -20.77,3.43 -28.03,17.67 -44.47,40.03 -12.37,16.83 -23.66,35.45 -30.45,55.15 -19.46,56.47 -16.03,86.9 -16.03,160.92l0 192.53 0 213.98c0,126.08 -17.43,233.06 44.22,319.29 25.4,35.54 57.01,65.06 99.55,82.35 56.24,22.87 81.68,20.71 159.7,20.71l93.59 0zm-6.51 -650.61c9.79,-24.98 6.72,-21.52 23.53,-42.78 11.56,-14.62 21.32,-25.13 36,-34.22 60.46,-44.09 88.9,-29.93 117.72,-42.8 43.18,10.73 67.17,6.93 101.89,31.17 25.67,17.94 49.92,39.32 66.56,67.19 44.11,73.91 32.36,134.43 -2.93,206.6 -11.1,12.08 -3.17,10.33 -32.76,37.14 -42.8,38.78 -89.53,53.81 -153.88,53.81 -1.26,-0.72 -3.36,-2.81 -4.06,-1.58 -0.71,1.23 -3.14,-1.2 -4.12,-1.5 -4.89,-1.52 -7.64,-2.3 -12.81,-3.7 -150.59,-40.92 -182.56,-192.78 -135.14,-269.33zm10.25 -167.95c-35.88,25.41 -48.91,38.64 -76.55,74.9 -27.69,47.39 -51.91,84.06 -51.47,160.43 0.24,42.31 -2.91,64.46 9.21,97.93 10.64,29.36 19.29,49.31 33.88,73.13 54.1,88.29 178.21,157.65 289.77,133.97 38.76,0 83.27,-18.56 109.1,-34.27 14.37,-8.73 28.99,-18.26 40.9,-28.65 6.34,-5.52 14.48,-12.64 19.7,-17.73l16.47 -21.37c76.8,-48.05 145.47,-339.75 -89.1,-456.24 -59.21,-29.4 -156.47,-47.32 -198.96,-24.9 -36.36,2.84 -78.3,27.15 -102.95,42.8zm412.41 -64.2c0,37.95 35.21,69.55 53.5,69.55 26.52,0 49.13,2.41 71.16,-19.8 33.33,-33.6 29.25,-119.3 -60.46,-119.3 -34.57,0 -64.2,35.44 -64.2,69.55z"/>
   <g>
    <path class="fil1" d="M3215.12 3240.62c10.7,-31.39 13.71,-28.9 2.3,-45.06 -34.61,-49.01 -58.62,-106.45 -73.18,-176.37 -28.9,-138.77 15.07,-278.79 99.11,-383.18l30.13 -33.78c5.72,-5.91 10.85,-8.8 16.9,-14.97 21.66,-22.08 61.58,-48.13 89.69,-64.42 54.39,-31.51 118.95,-50.35 192.64,-57.44 134.31,-12.92 294.72,47.94 381.02,147.89 40.83,47.27 57.72,65.34 87.52,130.24 59.87,130.42 51.54,280.82 -13.2,406.75 -10.09,19.64 -44.44,70.96 -56.71,84.13 -2.77,2.96 -5,4.34 -7.7,7.28 -5.17,5.63 -8.23,10.79 -13.86,16.21 -30.36,29.18 -30.76,30 -68.08,57.77 -34.85,25.93 -80.85,47.79 -123.27,62.48 -68.54,23.72 -144.36,29.18 -219.95,18.94 -72.06,-9.75 -128.61,-36.42 -182.45,-67.83 -12.26,-7.15 -22.29,0.29 -46.53,7.98l-141.78 44.48 47.4 -141.1zm-188.98 279.56c20.96,-4.54 202.25,-64.23 231.79,-73.22 96.75,-29.43 63.55,-30.57 112.62,-8.23 35.92,16.36 72.27,29.23 114.05,38.58 188.95,42.32 359.65,-16.44 475.15,-108.02 19.77,-15.68 25.29,-22.36 40.91,-36.09 36.87,-32.4 73.9,-85.09 100,-129.14 38.84,-65.55 61.12,-145.13 69.36,-235.14 7.9,-86.28 -13.75,-188.39 -44.6,-256.8 -46.81,-103.77 -118.51,-188.43 -210.89,-247.58 -31.75,-20.32 -62.32,-35.9 -100.69,-51.22 -241.06,-96.23 -510.42,-6.33 -654.11,184.1 -93.27,123.62 -141.85,287.25 -94.56,478.46 11.03,44.62 33.29,96.89 56.07,135.19 7.02,11.8 4.94,13.42 0.52,26.27l-77.24 227.47c-5.82,17.28 -14.38,38.56 -18.38,55.37z"/>
    <path class="fil1" d="M3335.76 2823.9c4.73,42.23 22.55,79.23 41.77,108.26 28.13,42.47 63.03,87.7 99.55,123.93 4.29,4.25 5.82,4.32 9.75,9.06 6.88,8.3 19.92,18.65 28.77,25.72 59.98,47.92 123.73,77.87 200.84,97.78 50.43,13.02 79.43,7.52 119.86,-14.2 32.32,-17.35 54.91,-41.78 57.96,-91.3 1.77,-28.76 -4.39,-25.41 -35.06,-40.97 -134.81,-68.41 -96.36,-49.73 -158.41,15.59 -5.65,5.95 -12.22,14.03 -26.48,9.95 -29.05,-8.33 -72.23,-35.89 -95.95,-52.83 -32.35,-23.08 -97.13,-95.57 -101,-120.56 -1.83,-11.76 6.16,-16.96 12.17,-23.4 48.14,-51.59 35.74,-52.38 5.46,-125.65 -13.51,-32.69 -19.64,-64.86 -44.83,-65.94 -10.04,-0.43 -28.32,-1.58 -37.62,-0.23 -38.75,5.61 -84.32,77.53 -76.78,144.79z"/>
   </g>
   <path class="fil1" d="M800.47 3520.03l0 -522.53 175.39 0 26.26 -203.64 -201.65 0 0 -130.01c0,-58.96 16.37,-99.14 100.92,-99.14l107.84 -0.05 0 -182.13c-18.66,-2.47 -82.67,-8.01 -157.14,-8.01 -155.47,0 -261.91,94.89 -261.91,269.17l0 150.18 -175.85 0 0 203.64 175.84 0 0 522.52 210.3 0z"/>
   <path class="fil1" d="M2140.38 2716.9c0,12.13 1.8,44.94 6.35,54.42 -20.81,0 -62.09,-5.97 -81.5,-9.19 -44.05,-7.32 -83.91,-20.06 -124.96,-34.68 -21.63,-7.71 -59.4,-24.71 -78.16,-36.12 -21.14,-12.85 -33.36,-19.02 -56.41,-34.28 -18.27,-12.1 -35.04,-25.89 -52.22,-39.39 -14.79,-11.63 -48.72,-42.39 -58.81,-55.47 -4.98,-6.45 -19.51,-20.86 -26.95,-30.19 -2.09,-2.6 -2.56,-4.58 -6.23,-5.56 -5.87,11.09 -12.18,23.38 -16.44,35.25 -25.98,72.34 -17.46,157.05 28.88,218.96 6.45,8.61 12.8,17.3 20.44,24.91l28.58 25.84c2.98,2.46 8.25,5.3 10.19,7.95 -28.69,0 -56.54,-8.21 -82.27,-18.4 -6.91,-2.73 -17.2,-9.29 -22.94,-10.63l1.42 24.89c1.25,8.7 1.72,14.93 3.34,22.96 9.1,44.98 30.83,88.25 63.49,120.63 17.86,17.69 38.28,33.09 60.85,44.36 12.26,6.12 24.25,10.78 37.44,15.17l21.21 6c-13.1,1.09 -25.93,7.25 -51.7,7.25 -11.64,0 -23.6,0.28 -34.99,-1.28 -6.08,-0.83 -12.81,-2.35 -18.52,-2.35 2.75,5.2 8.3,22.04 13.91,33.26 5.34,10.68 11.47,20.21 18.02,30.04 3.31,4.96 6.24,8.99 10.07,13.52l5.38 6.41c2.41,2.61 3.99,3.76 6.13,6.56 3.35,4.39 7.97,8.01 12.01,11.58 2.48,2.19 3.49,3.63 6.13,5.66 2.41,1.86 4.33,3.59 6.97,5.73 31.81,25.71 83.67,50.5 140.87,50.5l-32.65 23.58c-5.67,3.79 -11.35,7.06 -17.41,10.72 -6.01,3.62 -11.7,7.04 -17.97,10.14 -3.36,1.65 -5.28,3.09 -8.75,4.85 -36.26,18.51 -74.81,32.14 -115.44,40.57 -15.64,3.24 -31.65,5.75 -48.39,7.84 -15.95,1.99 -38.27,3.46 -53.28,3.01 -4.83,-0.15 -6.83,-0.99 -12.66,-0.95 -4.7,0.02 -9.67,0.39 -14.27,-0.24l-26.55 -2.47c2.98,4.07 10.99,7.41 15.36,10.03l32.4 18.39c3.04,1.51 5.75,2.71 8.43,4.27 2.72,1.58 5.1,3.11 8.21,4.48 11.86,5.25 22.49,10.77 34.84,15.96 12.69,5.33 24.15,9.46 37.18,14.51 6.43,2.49 12.39,4.18 19.01,6.39 6.77,2.26 12.77,3.74 19.5,5.9 26.37,8.45 55.15,13.93 83.16,18.42 16.06,2.58 30.34,5.04 46.65,5.04l114.28 0c22.36,0 48.93,-4.51 70.36,-8.54 49.83,-9.38 106.05,-24.56 151.85,-46.78 37.05,-17.98 67.2,-33.98 101.21,-57.51 2.28,-1.58 3.86,-2.48 5.96,-4.03 1.99,-1.47 3.55,-2.76 5.68,-4.29 32.31,-23.23 56.9,-46.35 84.64,-74.07l45.71 -53.16 25.09 -34.78c13.3,-19.95 26.26,-40.14 37.37,-61.48 27.21,-52.26 53.09,-114.81 65.22,-173.32 4.6,-22.19 9.11,-44.69 12.14,-67.68 4.04,-30.66 5.17,-67.88 5.17,-100.94 0,-5.04 -0.91,-5.38 -0.91,-9.98 15.33,-10.27 35.62,-27.1 48.77,-40.12 9.79,-9.69 20.79,-19.75 29.37,-30.49l26.68 -33.17c4.3,-5.73 8.86,-11.48 12.18,-17.76l-45.69 16.9c-24.41,8.21 -61.39,17.2 -87.64,19.38 1.39,-1.2 0.38,-0.36 2.12,-1.51l6.59 -4.29c8.58,-5.72 17.32,-11.6 24.64,-18.9 5.09,-5.06 10.2,-8.69 14.94,-14.08 1.6,-1.81 1.6,-2.26 3.19,-4.06l10.21 -11.57c14.87,-19.09 28.93,-41.24 36.84,-64.74 1.29,-3.82 2.44,-7.37 3.96,-10.55 -5.66,1.32 -11.31,6.15 -16.62,8.78 -3.47,1.72 -4.97,2.81 -8.16,4.53l-25.88 12.22c-6.11,2.5 -11.72,5.24 -18.61,7.69 -17.41,6.21 -63.46,23.02 -80.38,23.02l-22.87 -20.66c-8,-6.98 -16.91,-12.83 -25.93,-18.52 -3.21,-2.02 -5.96,-3.56 -9.25,-5.26 -17.05,-8.8 -33.99,-16.71 -52.96,-21.42 -17.99,-4.46 -35.51,-6.98 -52.65,-7.61l-17.11 0c-38.22,1.42 -74.7,12.41 -110.66,32.37 -12.31,6.83 -22.7,15.83 -33.65,24.38 -13.84,10.82 -31.14,30.8 -40.8,45.38 -25.98,39.22 -41.35,80.05 -41.35,131.87z"/>
   <path class="fil2" d="M4186.75 5051.42c27.15,-65.73 136.54,-288.03 200.23,-326.6l51.6 0 77.4 0 93.07 7.64c-84.92,98.98 -301.73,254.88 -422.3,318.96zm-2113.98 -318.93l1778.17 -7.98c-131.6,271.71 -478.95,657.3 -883.02,662.17 -434.17,5.25 -740.17,-394.14 -895.15,-654.19zm-755.57 -6.01l102.77 -2.74 102.41 0.45 53.01 0c38.44,115.51 115.32,224.58 168.92,324.85 -157.84,-82.48 -323.85,-202.95 -427.11,-322.56zm76.07 -441.52l-463.38 3.99c-37.4,-83.5 -84.44,-153.09 -128.21,-236.4 -133.02,-253.18 3.04,-206.35 -552.6,-206.35 147.72,580.06 634.75,1125.8 975.09,1384.7 1653.21,1257.59 3940.24,365.12 4453.42,-1384.75l-465.92 0.45c-178.35,536.7 -250.54,438.89 -680.45,439.84l95.74 -440.29 -436.49 3.2 -121.77 435.64 -2212.73 1.42 -126.38 -439.19 -436.58 4.59 100.26 433.15z"/>
   <path class="fil2" d="M4186.75 875.23c27.15,65.73 136.54,288.03 200.23,326.61l51.6 0 77.4 0 93.07 -7.65c-84.92,-98.97 -301.73,-254.88 -422.3,-318.96zm-2113.98 318.93l1778.17 7.98c-131.6,-271.71 -478.95,-657.29 -883.02,-662.17 -434.17,-5.24 -740.17,394.14 -895.15,654.19zm-755.57 6.02l102.77 2.73 102.41 -0.45 53.01 0c38.44,-115.51 115.32,-224.58 168.92,-324.85 -157.84,82.48 -323.85,202.96 -427.11,322.57zm76.07 441.51l-463.38 -3.98c-37.4,83.49 -84.44,153.08 -128.21,236.39 -133.02,253.19 3.04,206.35 -552.6,206.35 147.72,-580.06 634.75,-1125.8 975.09,-1384.7 1653.21,-1257.59 3940.24,-365.12 4453.42,1384.75l-465.92 -0.45c-178.35,-536.69 -250.54,-438.88 -680.45,-439.84l95.74 440.29 -436.49 -3.19 -121.77 -435.65 -2212.73 -1.42 -126.38 439.2 -436.58 -4.6 100.26 -433.15z"/>
  </g>
 </g>
</svg>
