<?xml version="1.0" encoding="UTF-8"?>
<!DOCTYPE svg PUBLIC "-//W3C//DTD SVG 1.1//EN" "http://www.w3.org/Graphics/SVG/1.1/DTD/svg11.dtd">
<!-- Creator: CorelDRAW 2018 (64 Bit Versão de avaliação) -->
<svg xmlns="http://www.w3.org/2000/svg" xml:space="preserve" width="59.2666mm" height="59.2666mm" version="1.1" style="shape-rendering:geometricPrecision; text-rendering:geometricPrecision; image-rendering:optimizeQuality; fill-rule:evenodd; clip-rule:evenodd"
viewBox="0 0 5926.66 5926.66"
 xmlns:xlink="http://www.w3.org/1999/xlink">
 <defs>
  <style type="text/css">
   <![CDATA[
    .fil0 {fill:none}
    .fil1 {fill:#0076F3}
    .fil2 {fill:#4FC3F7}
   ]]>
  </style>
 </defs>
 <g id="Camada_x0020_1">
  <metadata id="CorelCorpID_0Corel-Layer"/>
  <rect class="fil0" x="-0.01" y="-0" width="5926.68" height="5926.67"/>
  <path class="fil1" d="M4200.59 1292.03l86.45 325.97c168.18,698.23 185.59,1256.42 69.74,1959.45l-112.29 501.55c-13.06,46.34 -42.92,123.09 -43.9,167.09 -43.56,-3.62 -335.89,-156.36 -408.37,-186.27l-403.73 -190.93c-35.45,-16.43 -60.61,-30.34 -95.79,-48.07l-508.42 -239.69c-71.59,-36.09 -136.07,-63 -207.8,-99.12 -169.7,-85.46 -504.18,-175.9 -715.8,-176.17 -102.38,-0.14 -204.85,0.32 -307.25,0.32 -274.87,0 -481.52,34.26 -608.48,-283.48 -48.17,-120.53 -65.67,-249.26 -38.28,-382.47 37.13,-180.63 150.85,-378.46 342.02,-406.08 230.1,-33.24 733.29,62.1 1213.25,-129.51l1121.66 -528.01c98.63,-45.7 565.4,-280.29 616.99,-284.58zm-3692.59 1429.08c0,338.48 76.56,549.44 290.11,764.91 63.51,64.08 82.7,55.48 87.84,92.89 6.92,50.36 13.68,107.7 24.04,159.69l151.93 816.78c28.81,141.86 40.42,364.88 129.54,445.92 112.75,102.52 250.89,43.06 381.15,21.68 79.69,-13.08 166.7,-32.32 242.42,-45.32 133.54,-22.95 323.46,-44.05 323.46,-252.01 0,-89.72 -42.17,-216.01 -69.79,-285.08 -37.86,-94.68 -71.05,-161.83 -123.92,-240.54 -78.55,-116.92 -70.6,-94.83 -129.12,-225.75 -28.46,-63.68 -79.99,-201.14 -79.99,-284.47 402.59,0 673.61,135 1003.87,300.52l892.02 421.96c43.92,20.36 77.89,39.18 121.32,60.91l384.66 181.23c102.4,36.17 213.77,13.34 289.35,-38.16 81.19,-55.34 103.91,-134.76 134.7,-239.35 273.37,-928.64 360.09,-1735.66 133.97,-2716.67 -39.85,-172.87 -127.23,-597.23 -227.18,-703.16 -1.35,-1.44 -3.36,-3.44 -4.75,-4.84l-14.92 -13.85c-6.34,-5.72 -13.64,-12.42 -20.53,-17.84 -155.21,-121.94 -313.58,-31.4 -441.68,32.69 -42.31,21.17 -75.9,32.79 -118.43,54.22l-943.14 447.57c-39.49,19.94 -78.85,41.99 -121.88,60.35 -147.07,62.77 -349.69,172.46 -476.63,223.53 -87.67,35.26 -173.08,52.03 -273.35,71.93 -337.09,66.88 -748.62,-20.48 -987.63,67.39 -331.09,121.72 -557.44,486.73 -557.44,842.87z"/>
  <path class="fil2" d="M5044.61 2759.47c0,57.83 2.58,113.4 -5.55,167.1 -8.76,57.91 1.16,118.17 -6.66,175.56l-35.75 328.72c99.3,-23.14 233.07,-154.08 286.02,-231.9 85.15,-125.15 129.54,-265.94 135.99,-405.18l0 -70.87c-9.31,-200.87 -97.88,-392.24 -257.45,-521.23 -56.34,-45.54 -99.58,-69.6 -164.56,-103.99 1.04,46.55 15.61,104.89 18.85,153.79 10.18,153.4 29.11,355.34 29.11,508z"/>
 </g>
</svg>
