<?xml version="1.0" encoding="UTF-8"?>
<!DOCTYPE svg PUBLIC "-//W3C//DTD SVG 1.1//EN" "http://www.w3.org/Graphics/SVG/1.1/DTD/svg11.dtd">
<!-- Creator: CorelDRAW 2018 (64 Bit Versão de avaliação) -->
<svg xmlns="http://www.w3.org/2000/svg" xml:space="preserve" width="91.4398mm" height="91.4398mm" version="1.1" style="shape-rendering:geometricPrecision; text-rendering:geometricPrecision; image-rendering:optimizeQuality; fill-rule:evenodd; clip-rule:evenodd"
viewBox="0 0 9143.98 9143.98"
 xmlns:xlink="http://www.w3.org/1999/xlink">
 <defs>
  <style type="text/css">
   <![CDATA[
    .str0 {stroke:#0076F3;stroke-width:20;stroke-miterlimit:22.9256}
    .fil0 {fill:none}
    .fil1 {fill:#0076F3}
    .fil7 {fill:#31BCA6}
    .fil20 {fill:#333333}
    .fil5 {fill:#401900}
    .fil11 {fill:#42160D}
    .fil16 {fill:#4CAF50}
    .fil12 {fill:#4F2914}
    .fil3 {fill:#86C1FF}
    .fil13 {fill:#8C6A51}
    .fil8 {fill:#93D6E9}
    .fil2 {fill:#EFF6FC}
    .fil10 {fill:#F4B48E}
    .fil9 {fill:#F59EC8}
    .fil6 {fill:#FCCC9B}
    .fil14 {fill:#FFC107}
    .fil4 {fill:white}
    .fil21 {fill:#FEFEFE;fill-rule:nonzero}
    .fil15 {fill:#0076F3;fill-rule:nonzero}
    .fil22 {fill:#DFF5DA;fill-rule:nonzero}
    .fil18 {fill:#E0AB0B;fill-rule:nonzero}
    .fil17 {fill:white;fill-rule:nonzero}
    .fil23 {fill:#86C1FF;fill-opacity:0.321569}
    .fil19 {fill:url(#id0)}
   ]]>
  </style>
  <linearGradient id="id0" gradientUnits="userSpaceOnUse" x1="6024.35" y1="5714.99" x2="6020.36" y2="5376.32">
   <stop offset="0" style="stop-opacity:1; stop-color:#E0AB0D"/>
   <stop offset="0.690196" style="stop-opacity:1; stop-color:#FFC107"/>
   <stop offset="1" style="stop-opacity:1; stop-color:white"/>
  </linearGradient>
 </defs>
 <g id="Camada_x0020_1">
  <metadata id="CorelCorpID_0Corel-Layer"/>
  <rect class="fil0" x="-0.01" y="-0.01" width="9143.99" height="9143.99"/>
  <path class="fil1" d="M1481.18 2234l4524.57 0 0 -794.69c0,-69.85 -57.15,-126.99 -126.99,-126.99l-4270.59 0c-69.85,0 -126.99,57.14 -126.99,126.99l0 794.69z"/>
  <rect class="fil2" x="1481.18" y="2233.99" width="4524.56" height="6444.31"/>
  <path class="fil3" d="M5275.9 8189.14c133.84,43.92 113.59,-20.41 227.92,-64.6 -52.67,61.86 -107.94,76.33 -118.07,175.9 88.82,-61.94 30.53,-21.31 131.39,17.26l50.23 -248.83c-81.67,21.48 -242.16,75.55 -291.47,120.27z"/>
  <path class="fil1" d="M6644.95 5526.59c0,255.34 -134.19,383.11 -387.61,383.11l-1463.68 0c-493.21,0 -520.35,-676.73 19.15,-676.73l1837.21 0 -5.07 293.62z"/>
  <circle class="fil4" cx="7318.62" cy="5569.31" r="344.19"/>
  <path class="fil5" d="M7138.77 5863.43l52.37 -23.61c20.77,-38.2 25.23,-35.03 51.33,-64.67 -49.44,-31.21 -88.41,-78.82 -73.52,-159.36 16.8,-90.76 80.67,-56.91 162.75,-76.26 161.94,-38.2 150.83,195.25 35.18,242.33 55.81,34.47 23.77,19.02 53.67,65.97l36.63 22.02c10.94,24.04 34.54,-5.39 71.61,-36.9 18.1,-0.78 12.79,3.6 12.98,-15.92l-24.7 -14.95c-45.63,-25.15 108.17,-479.99 -227.84,-455.23 -103.91,7.67 -152.2,73.16 -172.22,176.9 -21.46,111.23 -1.99,232.87 -5.18,246.17 -8.06,33.75 1.4,9.56 -27.49,35.44 -1.51,1.35 -5.01,4.21 -6.27,5.3 -1.27,1.09 -4.51,3.22 -6.31,5.3 26.88,16.33 35.38,29.56 67.01,47.47z"/>
  <path class="fil6" d="M7394.15 5698.5c-32.16,-32.94 15.17,-34.13 34.27,-34.38 -1.37,30.14 18.94,10.59 -10.17,37.45 -15.7,14.48 -16.6,4.62 -24.1,-3.07zm-202.91 -45.23c38.13,11.77 22.91,-11.79 46.95,30.84 -7.14,8.75 -12.01,39.2 -36.35,11.85 -11.89,-13.37 -8.49,-27.78 -10.6,-42.69zm210.98 -40.15c-2.85,42 7.74,24.99 -27.28,26.39 -0.3,-33.41 9.69,-24.52 27.28,-26.39zm-170.53 1.18c28.64,-28.96 11.07,1 16.69,4.43 6.15,33.6 0.18,12.94 -26.54,20.52 2.44,-44.21 -0.53,-14.45 9.85,-24.95zm153.86 -27.94c-33.23,-4.59 -4.9,1.67 -23.33,-19.09l51.84 10c-4.65,3.24 12.97,14.82 -28.51,9.09zm-143.08 188.79c34.92,10.53 24.53,10.35 25.37,42.06 11.61,35.63 16.51,28.1 53.19,30.07l25.24 -32.06 -1.06 -29.81 21.68 -3.55c115.64,-47.08 126.74,-280.52 -35.2,-242.33 -82.07,19.35 -145.94,-14.5 -162.74,76.26 -14.9,80.54 24.08,128.15 73.52,159.36z"/>
  <path class="fil7" d="M7191.14 5839.83c19.73,13.18 27.51,20.89 53.68,33.97 5.82,2.92 29.77,13 30.97,13.74 32.46,19.93 19.29,15.24 28.74,25.21l-3.09 0.57c9.97,-8.66 -1.02,-5.69 30.88,-22.11 0.08,-0.05 26.3,-10.47 31.29,-12.72 29.65,-13.32 34.17,-19.58 56.95,-30.65 -29.91,-46.95 2.14,-31.52 -53.67,-65.98l-21.68 3.55 1.06 29.81c23.4,15.25 8.74,0.01 19.08,21.53l-71.54 56.34c-18,-21.37 -32.69,-38.15 -48.32,-65.92l22.35 -9.96c-0.84,-31.71 9.55,-31.53 -25.37,-42.06 -26.1,29.64 -30.55,26.46 -51.33,64.68z"/>
  <path class="fil8" d="M7138.77 5863.43c14.54,12.71 -11.87,-0.44 27.76,19.02 12.71,6.24 29.95,11.98 42.08,15.84 30.22,9.59 60.53,12.31 95.92,14.46 -9.45,-9.97 3.72,-5.28 -28.74,-25.21 -1.2,-0.74 -25.15,-10.82 -30.97,-13.74 -26.17,-13.08 -33.95,-20.79 -53.68,-33.97l-52.37 23.6z"/>
  <path class="fil9" d="M7346.27 5815.22l-25.24 32.06c-36.68,-1.97 -41.58,5.56 -53.19,-30.07l-22.35 9.96c15.63,27.77 30.32,44.55 48.32,65.92l71.54 -56.34c-10.34,-21.52 4.32,-6.28 -19.08,-21.53z"/>
  <path class="fil8" d="M7301.44 5913.32c93.28,-9.46 173.4,-20.54 155.74,-43.47l-36.62 -22.01c-22.78,11.07 -27.3,17.33 -56.95,30.65 -4.99,2.25 -31.21,12.67 -31.29,12.72 -31.9,16.42 -20.91,13.45 -30.88,22.11z"/>
  <path class="fil10" d="M7238.19 5684.11c-24.04,-42.63 -8.82,-19.07 -46.95,-30.84 2.11,14.91 -1.29,29.32 10.6,42.69 24.34,27.35 29.21,-3.1 36.35,-11.85z"/>
  <path class="fil10" d="M7428.42 5664.12c-19.1,0.25 -66.43,1.44 -34.27,34.38 7.5,7.69 8.4,17.55 24.1,3.07 29.11,-26.86 8.8,-7.31 10.17,-37.45z"/>
  <path class="fil11" d="M7221.84 5639.25c26.72,-7.58 32.69,13.08 26.54,-20.52 -5.62,-3.43 11.95,-33.39 -16.69,-4.43 -10.38,10.5 -7.41,-19.26 -9.85,24.95z"/>
  <path class="fil12" d="M7374.94 5639.51c35.02,-1.4 24.43,15.61 27.28,-26.39 -17.59,1.87 -27.58,-7.02 -27.28,26.39z"/>
  <path class="fil13" d="M7362.22 5567.27c18.43,20.76 -9.9,14.5 23.33,19.09 41.48,5.73 23.86,-5.85 28.51,-9.09l-51.84 -10z"/>
  <path class="fil13" d="M7256.8 5586.33c-23.76,-14.36 5.15,-16.78 -27.95,-11.31 -41.31,6.83 -21.05,12.67 -24.53,17.14l52.48 -5.83z"/>
  <circle class="fil0 str0" cx="7318.62" cy="5569.31" r="344.19"/>
  <circle class="fil14" cx="7058.94" cy="5830.2" r="75.92"/>
  <path class="fil4" d="M2682.24 3698.68c-277.01,65.51 -245.68,440.87 63.36,452.98 295.68,11.59 621.07,-0.02 920.08,-0.02 229.57,0 1740.56,14.64 1833.73,-9.81 244.69,-64.18 240.32,-439.63 -78.08,-452.17 -295.8,-11.65 -620.81,-0.15 -919.87,-0.15 -235.96,0 -1716.09,-15.22 -1819.22,9.17z"/>
  <path class="fil4" d="M2492.33 3229.42c0,174.61 91.76,261.97 265.04,261.97l759.71 0c337.26,0 355.81,-462.74 -13.1,-462.74l-1015.12 0 3.47 200.77z"/>
  <path class="fil15" d="M2628.62 3250.54c0,-10.22 1.54,-18.81 4.6,-25.77 2.26,-5.11 5.39,-9.71 9.34,-13.77 3.94,-4.06 8.26,-7.07 12.95,-9.06 6.26,-2.64 13.47,-3.97 21.64,-3.97 14.8,0 26.61,4.6 35.5,13.78 8.87,9.19 13.31,21.96 13.31,38.32 0,16.22 -4.41,28.92 -13.21,38.07 -8.8,9.18 -20.59,13.75 -35.32,13.75 -14.92,0 -26.8,-4.55 -35.6,-13.68 -8.8,-9.1 -13.21,-21.66 -13.21,-37.67zm20.87 -0.68c0,11.37 2.64,19.98 7.89,25.86 5.25,5.86 11.93,8.8 20,8.8 8.1,0 14.73,-2.91 19.94,-8.73 5.18,-5.83 7.77,-14.56 7.77,-26.21 0,-11.51 -2.52,-20.1 -7.59,-25.74 -5.04,-5.68 -11.74,-8.5 -20.12,-8.5 -8.35,0 -15.1,2.87 -20.21,8.59 -5.11,5.74 -7.68,14.38 -7.68,25.93z"/>
  <polygon id="1" class="fil15" points="2741.62,3300.07 2741.62,3199.79 2760.81,3199.79 2760.81,3300.07 "/>
  <path id="2" class="fil15" d="M2794.82 3249.79l-17.37 -3.08c1.96,-7.09 5.35,-12.35 10.13,-15.75 4.79,-3.41 11.91,-5.12 21.34,-5.12 8.56,0 14.96,1.01 19.16,3.04 4.18,2.03 7.14,4.6 8.85,7.72 1.7,3.13 2.56,8.85 2.56,17.21l-0.28 22.4c0,6.38 0.31,11.09 0.91,14.13 0.61,3.03 1.76,6.28 3.44,9.73l-19.05 0c-0.49,-1.26 -1.12,-3.13 -1.84,-5.6 -0.31,-1.15 -0.54,-1.89 -0.68,-2.24 -3.27,3.22 -6.77,5.62 -10.51,7.23 -3.73,1.61 -7.7,2.43 -11.92,2.43 -7.45,0 -13.33,-2.03 -17.63,-6.09 -4.29,-4.04 -6.44,-9.17 -6.44,-15.38 0,-4.09 0.98,-7.75 2.94,-10.97 1.96,-3.2 4.69,-5.68 8.24,-7.38 3.53,-1.7 8.62,-3.2 15.27,-4.48 8.96,-1.68 15.19,-3.27 18.65,-4.72l0 -1.93c0,-3.74 -0.91,-6.4 -2.73,-8.01 -1.85,-1.59 -5.3,-2.38 -10.37,-2.38 -3.43,0 -6.09,0.68 -8,2.05 -1.94,1.36 -3.48,3.76 -4.67,7.19zm25.77 15.55c-2.45,0.81 -6.35,1.79 -11.7,2.94 -5.32,1.14 -8.82,2.26 -10.45,3.34 -2.5,1.79 -3.76,4.03 -3.76,6.77 0,2.7 1,5.01 3.01,6.97 2.01,1.97 4.55,2.95 7.66,2.95 3.45,0 6.76,-1.15 9.92,-3.41 2.31,-1.75 3.85,-3.85 4.57,-6.37 0.49,-1.64 0.75,-4.77 0.75,-9.36l0 -3.83zm-23.67 -47.34l9.52 -20.45 21.43 0 -18.91 20.45 -12.04 0z"/>
  <path id="3" class="fil15" d="M2857.86 3280.88l19.19 0 0 13.75c0,5.56 -0.47,9.97 -1.42,13.17 -0.96,3.22 -2.78,6.11 -5.44,8.66 -2.66,2.56 -6.05,4.55 -10.13,6.02l-3.74 -7.98c3.85,-1.29 6.59,-3.04 8.22,-5.28 1.61,-2.22 2.47,-5.28 2.57,-9.15l-9.25 0 0 -19.19z"/>
  <path id="4" class="fil15" d="M2969.44 3227.38l0 15.27 -13.17 0 0 29.43c0,5.98 0.12,9.46 0.37,10.44 0.26,0.98 0.82,1.79 1.73,2.45 0.89,0.63 1.96,0.95 3.25,0.95 1.79,0 4.36,-0.6 7.75,-1.84l1.61 14.94c-4.46,1.91 -9.5,2.87 -15.15,2.87 -3.46,0 -6.56,-0.58 -9.34,-1.75 -2.78,-1.17 -4.81,-2.68 -6.09,-4.53 -1.31,-1.87 -2.2,-4.36 -2.71,-7.54 -0.4,-2.24 -0.61,-6.77 -0.61,-13.61l0 -31.81 -8.82 0 0 -15.27 8.82 0 0 -14.42 19.19 -11.35 0 25.77 13.17 0z"/>
  <path id="5" class="fil15" d="M3030.92 3300.07l0 -10.88c-2.66,3.88 -6.14,6.96 -10.46,9.27 -4.31,2.29 -8.87,3.43 -13.65,3.43 -4.9,0 -9.29,-1.07 -13.17,-3.22 -3.89,-2.15 -6.69,-5.18 -8.42,-9.06 -1.75,-3.9 -2.62,-9.26 -2.62,-16.13l0 -46.1 19.19 0 0 33.48c0,10.24 0.35,16.5 1.07,18.81 0.7,2.31 1.99,4.15 3.88,5.48 1.87,1.36 4.25,2.04 7.14,2.04 3.29,0 6.23,-0.91 8.85,-2.71 2.61,-1.8 4.39,-4.04 5.34,-6.72 0.96,-2.69 1.45,-9.22 1.45,-19.66l0 -30.72 19.19 0 0 72.69 -17.79 0z"/>
  <path id="6" class="fil15" d="M3135.1 3300.07l-17.79 0 0 -10.67c-2.96,4.16 -6.49,7.26 -10.53,9.36 -4.03,2.08 -8.12,3.13 -12.23,3.13 -8.38,0 -15.54,-3.36 -21.52,-10.11 -5.95,-6.74 -8.94,-16.13 -8.94,-28.19 0,-12.33 2.9,-21.71 8.71,-28.13 5.81,-6.42 13.14,-9.62 22.01,-9.62 8.12,0 15.17,3.39 21.1,10.13l0 -36.18 19.19 0 0 100.28zm-51.26 -37.74c0,7.77 1.07,13.39 3.2,16.87 3.1,5.04 7.42,7.57 12.97,7.57 4.42,0 8.17,-1.9 11.26,-5.68 3.1,-3.78 4.64,-9.4 4.64,-16.92 0,-8.38 -1.49,-14.4 -4.5,-18.09 -3.02,-3.69 -6.84,-5.53 -11.54,-5.53 -4.55,0 -8.35,1.82 -11.43,5.46 -3.06,3.64 -4.6,9.08 -4.6,16.32z"/>
  <path id="7" class="fil15" d="M3149.5 3262.84c0,-6.4 1.57,-12.58 4.72,-18.56 3.15,-6 7.61,-10.55 13.37,-13.7 5.77,-3.15 12.19,-4.74 19.31,-4.74 10.99,0 19.98,3.57 27,10.72 7.03,7.16 10.53,16.17 10.53,27.1 0,11.01 -3.55,20.14 -10.62,27.38 -7.1,7.23 -16.01,10.85 -26.77,10.85 -6.66,0 -13.01,-1.52 -19.05,-4.53 -6.02,-3.01 -10.62,-7.42 -13.77,-13.26 -3.15,-5.81 -4.72,-12.9 -4.72,-21.26zm19.75 1.03c0,7.21 1.7,12.74 5.11,16.57 3.43,3.85 7.63,5.77 12.65,5.77 5,0 9.2,-1.92 12.58,-5.77 3.39,-3.83 5.09,-9.41 5.09,-16.71 0,-7.12 -1.7,-12.61 -5.09,-16.44 -3.38,-3.85 -7.58,-5.76 -12.58,-5.76 -5.02,0 -9.22,1.91 -12.65,5.76 -3.41,3.83 -5.11,9.36 -5.11,16.58z"/>
  <path id="8" class="fil15" d="M3277.6 3300.07l0 -100.28 19.19 0 0 36.18c5.93,-6.74 12.93,-10.13 21.05,-10.13 8.85,0 16.16,3.2 21.95,9.62 5.78,6.42 8.68,15.64 8.68,27.66 0,12.42 -2.94,21.99 -8.85,28.71 -5.9,6.7 -13.09,10.06 -21.52,10.06 -4.15,0 -8.24,-1.07 -12.28,-3.2 -4.03,-2.14 -7.51,-5.23 -10.43,-9.29l0 10.67 -17.79 0zm18.91 -37.74c0,7.54 1.19,13.14 3.57,16.73 3.34,5.14 7.75,7.71 13.28,7.71 4.25,0 7.87,-1.83 10.88,-5.47 2.99,-3.64 4.48,-9.38 4.48,-17.2 0,-8.33 -1.52,-14.33 -4.53,-18.02 -3.01,-3.69 -6.86,-5.53 -11.57,-5.53 -4.63,0 -8.45,1.8 -11.51,5.39 -3.06,3.6 -4.6,9.06 -4.6,16.39z"/>
  <path id="9" class="fil15" d="M3406.01 3277.1l19.19 3.22c-2.46,7.03 -6.35,12.37 -11.65,16.06 -5.32,3.67 -11.98,5.51 -19.94,5.51 -12.62,0 -21.98,-4.13 -28.03,-12.39 -4.78,-6.63 -7.19,-14.99 -7.19,-25.1 0,-12.04 3.15,-21.49 9.43,-28.31 6.28,-6.84 14.24,-10.25 23.86,-10.25 10.78,0 19.3,3.57 25.56,10.72 6.23,7.14 9.22,18.09 8.94,32.84l-48.04 0c0.14,5.69 1.68,10.13 4.64,13.3 2.94,3.18 6.63,4.77 11.02,4.77 3.01,0 5.53,-0.82 7.56,-2.46 2.06,-1.63 3.6,-4.27 4.65,-7.91zm1.12 -19.47c-0.14,-5.57 -1.56,-9.82 -4.3,-12.72 -2.73,-2.91 -6.04,-4.36 -9.96,-4.36 -4.18,0 -7.64,1.54 -10.37,4.6 -2.73,3.05 -4.06,7.23 -4.01,12.48l28.64 0z"/>
  <path id="10" class="fil15" d="M3440.48 3227.38l17.65 0 0 9.92c6.32,-7.63 13.86,-11.46 22.62,-11.46 4.64,0 8.68,0.96 12.09,2.87 3.43,1.92 6.23,4.81 8.4,8.69 3.2,-3.88 6.65,-6.77 10.34,-8.69 3.69,-1.91 7.63,-2.87 11.84,-2.87 5.32,0 9.82,1.08 13.53,3.25 3.69,2.17 6.45,5.34 8.27,9.54 1.33,3.09 1.98,8.1 1.98,15.04l0 46.4 -19.19 0 0 -41.48c0,-7.21 -0.65,-11.86 -1.98,-13.93 -1.77,-2.73 -4.53,-4.11 -8.22,-4.11 -2.68,0 -5.22,0.82 -7.61,2.45 -2.35,1.66 -4.08,4.06 -5.13,7.21 -1.05,3.18 -1.56,8.17 -1.56,15.01l0 34.85 -19.19 0 0 -39.77c0,-7.05 -0.35,-11.63 -1.03,-13.66 -0.68,-2.05 -1.73,-3.59 -3.17,-4.6 -1.43,-1 -3.39,-1.49 -5.84,-1.49 -2.96,0 -5.62,0.79 -7.98,2.38 -2.38,1.61 -4.06,3.9 -5.09,6.91 -1.03,3.01 -1.54,8 -1.54,14.96l0 35.27 -19.19 0 0 -72.69z"/>
  <path id="11" class="fil15" d="M3607.73 3274.3l-17.51 0c-0.04,-2.52 -0.07,-4.04 -0.07,-4.6 0,-5.65 0.94,-10.29 2.83,-13.96 1.86,-3.64 5.6,-7.75 11.22,-12.32 5.63,-4.55 8.99,-7.54 10.09,-8.96 1.7,-2.24 2.54,-4.72 2.54,-7.4 0,-3.71 -1.49,-6.91 -4.5,-9.55 -2.99,-2.66 -7.03,-3.99 -12.12,-3.99 -4.9,0 -8.98,1.4 -12.3,4.18 -3.29,2.8 -5.55,7.05 -6.79,12.77l-17.65 -2.25c0.52,-8.19 3.99,-15.12 10.46,-20.84 6.47,-5.72 14.96,-8.57 25.47,-8.57 11.06,0 19.86,2.9 26.39,8.66 6.54,5.77 9.81,12.47 9.81,20.15 0,4.22 -1.19,8.26 -3.6,12.04 -2.4,3.78 -7.51,8.94 -15.38,15.48 -4.06,3.36 -6.58,6.09 -7.56,8.14 -0.98,2.06 -1.43,5.72 -1.33,11.02zm-17.51 25.77l0 -19.19 17.51 0 0 19.19 -17.51 0z"/>
  <path class="fil15" d="M2791.38 3920.03l18.28 5.61c-2.81,10.29 -7.49,17.93 -14.01,22.93 -6.53,4.98 -14.8,7.49 -24.83,7.49 -12.42,0 -22.62,-4.25 -30.63,-12.73 -7.98,-8.48 -11.99,-20.08 -11.99,-34.81 0,-15.55 4.03,-27.65 12.06,-36.26 8.02,-8.62 18.6,-12.93 31.69,-12.93 11.45,0 20.74,3.4 27.87,10.16 4.27,4.01 7.44,9.75 9.57,17.25l-18.66 4.44c-1.11,-4.83 -3.42,-8.66 -6.92,-11.46 -3.52,-2.81 -7.79,-4.2 -12.79,-4.2 -6.94,0 -12.58,2.48 -16.88,7.46 -4.33,4.96 -6.49,13.01 -6.49,24.15 0,11.79 2.14,20.21 6.38,25.21 4.26,5.03 9.79,7.53 16.6,7.53 5.02,0 9.35,-1.59 12.96,-4.79 3.61,-3.19 6.23,-8.2 7.79,-15.05z"/>
  <path id="1" class="fil15" d="M2839.04 3907.63l-16.18 -2.87c1.82,-6.62 4.98,-11.51 9.44,-14.69 4.46,-3.17 11.09,-4.76 19.88,-4.76 7.99,0 13.95,0.93 17.86,2.83 3.9,1.89 6.66,4.28 8.25,7.2 1.59,2.91 2.39,8.24 2.39,16.03l-0.26 20.89c0,5.94 0.28,10.33 0.85,13.16 0.56,2.83 1.63,5.85 3.2,9.07l-17.76 0c-0.45,-1.17 -1.04,-2.92 -1.71,-5.22 -0.29,-1.07 -0.5,-1.76 -0.63,-2.09 -3.05,3 -6.31,5.24 -9.79,6.74 -3.49,1.51 -7.18,2.27 -11.12,2.27 -6.94,0 -12.42,-1.9 -16.43,-5.68 -4,-3.76 -6,-8.55 -6,-14.34 0,-3.8 0.91,-7.22 2.74,-10.22 1.83,-2.98 4.37,-5.29 7.68,-6.88 3.28,-1.59 8.03,-2.98 14.23,-4.17 8.35,-1.57 14.16,-3.05 17.38,-4.4l0 -1.8c0,-3.49 -0.85,-5.97 -2.55,-7.47 -1.71,-1.48 -4.93,-2.22 -9.65,-2.22 -3.2,0 -5.68,0.64 -7.47,1.92 -1.8,1.26 -3.24,3.5 -4.35,6.7zm24.02 14.49c-2.28,0.76 -5.92,1.67 -10.9,2.74 -4.96,1.07 -8.22,2.11 -9.75,3.11 -2.32,1.68 -3.5,3.76 -3.5,6.31 0,2.52 0.94,4.68 2.81,6.5 1.87,1.83 4.24,2.75 7.13,2.75 3.22,0 6.31,-1.07 9.25,-3.18 2.15,-1.63 3.59,-3.59 4.26,-5.94 0.46,-1.52 0.7,-4.44 0.7,-8.72l0 -3.57z"/>
  <path id="2" class="fil15" d="M2891.93 3935.43l18.02 -2.74c0.76,3.46 2.3,6.09 4.65,7.88 2.33,1.8 5.61,2.69 9.81,2.69 4.64,0 8.12,-0.84 10.47,-2.54 1.56,-1.2 2.35,-2.81 2.35,-4.81 0,-1.35 -0.44,-2.48 -1.29,-3.37 -0.89,-0.85 -2.89,-1.65 -5.98,-2.37 -14.47,-3.2 -23.63,-6.12 -27.5,-8.75 -5.37,-3.67 -8.05,-8.76 -8.05,-15.27 0,-5.9 2.33,-10.83 6.96,-14.84 4.64,-4 11.82,-6 21.54,-6 9.27,0 16.17,1.52 20.67,4.55 4.5,3.04 7.61,7.52 9.31,13.46l-16.84 3.13c-0.72,-2.65 -2.11,-4.69 -4.13,-6.11 -2.03,-1.41 -4.92,-2.11 -8.68,-2.11 -4.74,0 -8.14,0.65 -10.21,1.98 -1.37,0.94 -2.04,2.16 -2.04,3.63 0,1.29 0.59,2.38 1.78,3.27 1.64,1.19 7.23,2.87 16.8,5.04 9.57,2.18 16.25,4.83 20.03,7.99 3.77,3.18 5.64,7.63 5.64,13.33 0,6.2 -2.59,11.56 -7.79,16.02 -5.18,4.46 -12.86,6.7 -23.04,6.7 -9.22,0 -16.53,-1.87 -21.93,-5.59 -5.37,-3.72 -8.89,-8.77 -10.55,-15.17z"/>
  <path id="3" class="fil15" d="M2966.75 3919.79c0,-5.96 1.46,-11.73 4.4,-17.29 2.93,-5.6 7.09,-9.84 12.46,-12.77 5.37,-2.94 11.36,-4.42 17.99,-4.42 10.25,0 18.62,3.33 25.17,9.98 6.55,6.68 9.81,15.08 9.81,25.26 0,10.27 -3.3,18.78 -9.89,25.52 -6.62,6.74 -14.93,10.12 -24.96,10.12 -6.2,0 -12.11,-1.42 -17.75,-4.22 -5.61,-2.81 -9.9,-6.92 -12.83,-12.36 -2.94,-5.42 -4.4,-12.03 -4.4,-19.82zm18.41 0.96c0,6.72 1.58,11.88 4.76,15.44 3.2,3.59 7.11,5.38 11.79,5.38 4.66,0 8.57,-1.79 11.73,-5.38 3.15,-3.56 4.74,-8.76 4.74,-15.57 0,-6.64 -1.59,-11.75 -4.74,-15.32 -3.16,-3.59 -7.07,-5.37 -11.73,-5.37 -4.68,0 -8.59,1.78 -11.79,5.37 -3.18,3.57 -4.76,8.73 -4.76,15.45z"/>
  <path id="4" class="fil15" d="M3086.41 3886.74l16.7 0 0 9.95c2.18,-3.4 5.09,-6.14 8.79,-8.25 3.7,-2.09 7.81,-3.13 12.32,-3.13 7.85,0 14.53,3.09 20.01,9.27 5.48,6.15 8.22,14.77 8.22,25.78 0,11.33 -2.76,20.12 -8.28,26.41 -5.53,6.28 -12.23,9.42 -20.11,9.42 -3.74,0 -7.13,-0.74 -10.18,-2.24 -3.02,-1.48 -6.24,-4.03 -9.59,-7.64l0 33.89 -17.88 0 0 -93.46zm17.62 32.83c0,7.64 1.5,13.27 4.52,16.93 3,3.63 6.68,5.46 10.99,5.46 4.15,0 7.61,-1.68 10.38,-5.03 2.76,-3.35 4.13,-8.83 4.13,-16.46 0,-7.14 -1.41,-12.43 -4.26,-15.89 -2.83,-3.46 -6.36,-5.17 -10.56,-5.17 -4.37,0 -8,1.69 -10.87,5.09 -2.9,3.39 -4.33,8.42 -4.33,15.07z"/>
  <path id="5" class="fil15" d="M3183.76 3954.49l-17.89 0 0 -67.75 16.58 0 0 9.62c2.85,-4.55 5.42,-7.53 7.7,-8.94 2.29,-1.41 4.88,-2.11 7.77,-2.11 4.09,0 8.03,1.13 11.81,3.37l-5.54 15.62c-3.03,-1.96 -5.83,-2.94 -8.42,-2.94 -2.53,0 -4.66,0.7 -6.4,2.07 -1.74,1.39 -3.11,3.87 -4.11,7.48 -1,3.62 -1.5,11.19 -1.5,22.7l0 20.88z"/>
  <path id="6" class="fil15" d="M3256.62 3933.08l17.88 3.01c-2.28,6.54 -5.92,11.53 -10.86,14.96 -4.96,3.42 -11.16,5.14 -18.57,5.14 -11.77,0 -20.5,-3.85 -26.13,-11.56 -4.46,-6.17 -6.7,-13.96 -6.7,-23.38 0,-11.23 2.93,-20.04 8.79,-26.39 5.85,-6.37 13.27,-9.55 22.23,-9.55 10.05,0 17.99,3.33 23.82,9.98 5.81,6.66 8.59,16.86 8.33,30.61l-44.77 0c0.13,5.31 1.57,9.45 4.33,12.4 2.74,2.96 6.18,4.44 10.27,4.44 2.81,0 5.16,-0.76 7.05,-2.28 1.91,-1.52 3.35,-3.98 4.33,-7.38zm1.04 -18.14c-0.13,-5.2 -1.46,-9.16 -4,-11.86 -2.55,-2.72 -5.64,-4.07 -9.29,-4.07 -3.9,0 -7.11,1.44 -9.66,4.29 -2.55,2.85 -3.79,6.74 -3.74,11.64l26.69 0z"/>
  <path id="7" class="fil15" d="M3349.06 3906.85l-17.62 3.13c-0.59,-3.5 -1.94,-6.14 -4.05,-7.92 -2.11,-1.76 -4.83,-2.65 -8.18,-2.65 -4.46,0 -8.03,1.54 -10.68,4.63 -2.66,3.09 -3.98,8.25 -3.98,15.49 0,8.05 1.35,13.73 4.04,17.06 2.7,3.32 6.31,4.98 10.84,4.98 3.39,0 6.18,-0.98 8.33,-2.92 2.18,-1.93 3.7,-5.26 4.59,-10l17.62 3c-1.83,8.09 -5.33,14.2 -10.51,18.34 -5.17,4.13 -12.11,6.2 -20.84,6.2 -9.87,0 -17.77,-3.14 -23.65,-9.38 -5.89,-6.26 -8.83,-14.92 -8.83,-26 0,-11.2 2.96,-19.9 8.86,-26.15 5.89,-6.24 13.88,-9.35 23.95,-9.35 8.22,0 14.77,1.78 19.64,5.33 4.85,3.55 8.34,8.94 10.47,16.21z"/>
  <path id="8" class="fil15" d="M3362.66 3877.61l0 -16.58 17.88 0 0 16.58 -17.88 0zm0 76.88l0 -67.75 17.88 0 0 67.75 -17.88 0z"/>
  <path id="9" class="fil15" d="M3392.53 3935.43l18.02 -2.74c0.76,3.46 2.3,6.09 4.65,7.88 2.33,1.8 5.61,2.69 9.81,2.69 4.64,0 8.12,-0.84 10.47,-2.54 1.56,-1.2 2.35,-2.81 2.35,-4.81 0,-1.35 -0.44,-2.48 -1.29,-3.37 -0.89,-0.85 -2.89,-1.65 -5.98,-2.37 -14.47,-3.2 -23.63,-6.12 -27.5,-8.75 -5.37,-3.67 -8.05,-8.76 -8.05,-15.27 0,-5.9 2.33,-10.83 6.96,-14.84 4.64,-4 11.82,-6 21.54,-6 9.27,0 16.17,1.52 20.67,4.55 4.5,3.04 7.61,7.52 9.31,13.46l-16.84 3.13c-0.72,-2.65 -2.11,-4.69 -4.13,-6.11 -2.03,-1.41 -4.92,-2.11 -8.68,-2.11 -4.74,0 -8.14,0.65 -10.21,1.98 -1.37,0.94 -2.04,2.16 -2.04,3.63 0,1.29 0.59,2.38 1.78,3.27 1.64,1.19 7.23,2.87 16.8,5.04 9.57,2.18 16.25,4.83 20.03,7.99 3.77,3.18 5.64,7.63 5.64,13.33 0,6.2 -2.59,11.56 -7.79,16.02 -5.18,4.46 -12.86,6.7 -23.04,6.7 -9.22,0 -16.53,-1.87 -21.93,-5.59 -5.37,-3.72 -8.89,-8.77 -10.55,-15.17z"/>
  <path id="10" class="fil15" d="M3510.69 3933.08l17.88 3.01c-2.28,6.54 -5.92,11.53 -10.86,14.96 -4.96,3.42 -11.16,5.14 -18.57,5.14 -11.77,0 -20.5,-3.85 -26.13,-11.56 -4.46,-6.17 -6.7,-13.96 -6.7,-23.38 0,-11.23 2.93,-20.04 8.79,-26.39 5.85,-6.37 13.27,-9.55 22.23,-9.55 10.05,0 17.99,3.33 23.82,9.98 5.81,6.66 8.59,16.86 8.33,30.61l-44.77 0c0.13,5.31 1.57,9.45 4.33,12.4 2.74,2.96 6.18,4.44 10.27,4.44 2.81,0 5.16,-0.76 7.05,-2.28 1.91,-1.52 3.35,-3.98 4.33,-7.38zm1.04 -18.14c-0.13,-5.2 -1.46,-9.16 -4,-11.86 -2.55,-2.72 -5.64,-4.07 -9.29,-4.07 -3.9,0 -7.11,1.44 -9.66,4.29 -2.55,2.85 -3.79,6.74 -3.74,11.64l26.69 0z"/>
  <path id="11" class="fil15" d="M3543.61 3936.61l17.88 0 0 12.81c0,5.18 -0.44,9.29 -1.33,12.27 -0.89,3 -2.59,5.7 -5.07,8.07 -2.48,2.4 -5.63,4.24 -9.44,5.61l-3.48 -7.44c3.59,-1.19 6.14,-2.82 7.66,-4.91 1.5,-2.07 2.3,-4.92 2.39,-8.53l-8.61 0 0 -17.88z"/>
  <path id="12" class="fil15" d="M3655.83 3933.08l17.88 3.01c-2.28,6.54 -5.92,11.53 -10.86,14.96 -4.96,3.42 -11.16,5.14 -18.57,5.14 -11.77,0 -20.5,-3.85 -26.13,-11.56 -4.46,-6.17 -6.7,-13.96 -6.7,-23.38 0,-11.23 2.93,-20.04 8.79,-26.39 5.85,-6.37 13.27,-9.55 22.23,-9.55 10.05,0 17.99,3.33 23.82,9.98 5.81,6.66 8.59,16.86 8.33,30.61l-44.77 0c0.13,5.31 1.57,9.45 4.33,12.4 2.74,2.96 6.18,4.44 10.27,4.44 2.81,0 5.16,-0.76 7.05,-2.28 1.91,-1.52 3.35,-3.98 4.33,-7.38zm1.04 -18.14c-0.13,-5.2 -1.46,-9.16 -4,-11.86 -2.55,-2.72 -5.64,-4.07 -9.29,-4.07 -3.9,0 -7.11,1.44 -9.66,4.29 -2.55,2.85 -3.79,6.74 -3.74,11.64l26.69 0z"/>
  <path id="13" class="fil15" d="M3682.87 3935.43l18.02 -2.74c0.76,3.46 2.3,6.09 4.65,7.88 2.33,1.8 5.61,2.69 9.81,2.69 4.64,0 8.12,-0.84 10.47,-2.54 1.56,-1.2 2.35,-2.81 2.35,-4.81 0,-1.35 -0.44,-2.48 -1.29,-3.37 -0.89,-0.85 -2.89,-1.65 -5.98,-2.37 -14.47,-3.2 -23.63,-6.12 -27.5,-8.75 -5.37,-3.67 -8.05,-8.76 -8.05,-15.27 0,-5.9 2.33,-10.83 6.96,-14.84 4.64,-4 11.82,-6 21.54,-6 9.27,0 16.17,1.52 20.67,4.55 4.5,3.04 7.61,7.52 9.31,13.46l-16.84 3.13c-0.72,-2.65 -2.11,-4.69 -4.13,-6.11 -2.03,-1.41 -4.92,-2.11 -8.68,-2.11 -4.74,0 -8.14,0.65 -10.21,1.98 -1.37,0.94 -2.04,2.16 -2.04,3.63 0,1.29 0.59,2.38 1.78,3.27 1.64,1.19 7.23,2.87 16.8,5.04 9.57,2.18 16.25,4.83 20.03,7.99 3.77,3.18 5.64,7.63 5.64,13.33 0,6.2 -2.59,11.56 -7.79,16.02 -5.18,4.46 -12.86,6.7 -23.04,6.7 -9.22,0 -16.53,-1.87 -21.93,-5.59 -5.37,-3.72 -8.89,-8.77 -10.55,-15.17z"/>
  <path id="14" class="fil15" d="M3792.8 3886.74l0 14.23 -12.27 0 0 27.44c0,5.57 0.11,8.81 0.35,9.72 0.24,0.91 0.76,1.68 1.61,2.28 0.83,0.59 1.83,0.9 3.03,0.9 1.67,0 4.06,-0.57 7.22,-1.72l1.5 13.92c-4.16,1.78 -8.85,2.68 -14.12,2.68 -3.22,0 -6.11,-0.55 -8.7,-1.63 -2.59,-1.09 -4.48,-2.51 -5.68,-4.23 -1.22,-1.74 -2.04,-4.06 -2.52,-7.02 -0.37,-2.09 -0.57,-6.31 -0.57,-12.69l0 -29.65 -8.22 0 0 -14.23 8.22 0 0 -13.44 17.88 -10.57 0 24.01 12.27 0z"/>
  <path id="15" class="fil15" d="M3818.65 3907.63l-16.18 -2.87c1.82,-6.62 4.98,-11.51 9.44,-14.69 4.46,-3.17 11.09,-4.76 19.88,-4.76 7.99,0 13.95,0.93 17.86,2.83 3.9,1.89 6.66,4.28 8.25,7.2 1.59,2.91 2.39,8.24 2.39,16.03l-0.26 20.89c0,5.94 0.28,10.33 0.85,13.16 0.56,2.83 1.63,5.85 3.2,9.07l-17.76 0c-0.45,-1.17 -1.04,-2.92 -1.71,-5.22 -0.29,-1.07 -0.5,-1.76 -0.63,-2.09 -3.05,3 -6.31,5.24 -9.79,6.74 -3.49,1.51 -7.18,2.27 -11.12,2.27 -6.94,0 -12.42,-1.9 -16.43,-5.68 -4,-3.76 -6,-8.55 -6,-14.34 0,-3.8 0.91,-7.22 2.74,-10.22 1.83,-2.98 4.37,-5.29 7.68,-6.88 3.28,-1.59 8.03,-2.98 14.23,-4.17 8.35,-1.57 14.16,-3.05 17.38,-4.4l0 -1.8c0,-3.49 -0.85,-5.97 -2.55,-7.47 -1.71,-1.48 -4.93,-2.22 -9.65,-2.22 -3.2,0 -5.68,0.64 -7.47,1.92 -1.8,1.26 -3.24,3.5 -4.35,6.7zm24.02 14.49c-2.28,0.76 -5.92,1.67 -10.9,2.74 -4.96,1.07 -8.22,2.11 -9.75,3.11 -2.32,1.68 -3.5,3.76 -3.5,6.31 0,2.52 0.94,4.68 2.81,6.5 1.87,1.83 4.24,2.75 7.13,2.75 3.22,0 6.31,-1.07 9.25,-3.18 2.15,-1.63 3.59,-3.59 4.26,-5.94 0.46,-1.52 0.7,-4.44 0.7,-8.72l0 -3.57z"/>
  <path id="16" class="fil15" d="M3876.63 3886.74l16.45 0 0 9.25c5.9,-7.11 12.92,-10.68 21.08,-10.68 4.33,0 8.09,0.89 11.27,2.67 3.2,1.79 5.81,4.49 7.83,8.1 2.98,-3.61 6.2,-6.31 9.64,-8.1 3.44,-1.78 7.11,-2.67 11.03,-2.67 4.96,0 9.16,1 12.62,3.02 3.43,2.03 6,4.98 7.7,8.9 1.24,2.87 1.85,7.55 1.85,14.01l0 43.25 -17.89 0 0 -38.66c0,-6.72 -0.61,-11.05 -1.85,-12.99 -1.65,-2.54 -4.22,-3.83 -7.65,-3.83 -2.5,0 -4.88,0.77 -7.09,2.29 -2.2,1.54 -3.81,3.78 -4.79,6.72 -0.98,2.96 -1.46,7.62 -1.46,13.99l0 32.48 -17.88 0 0 -37.07c0,-6.57 -0.33,-10.83 -0.96,-12.73 -0.63,-1.91 -1.61,-3.35 -2.96,-4.28 -1.32,-0.94 -3.15,-1.4 -5.44,-1.4 -2.76,0 -5.24,0.74 -7.44,2.22 -2.22,1.5 -3.78,3.64 -4.74,6.44 -0.96,2.81 -1.43,7.47 -1.43,13.95l0 32.87 -17.89 0 0 -67.75z"/>
  <path id="17" class="fil15" d="M3989.82 3919.79c0,-5.96 1.46,-11.73 4.4,-17.29 2.93,-5.6 7.09,-9.84 12.46,-12.77 5.37,-2.94 11.36,-4.42 17.99,-4.42 10.25,0 18.62,3.33 25.17,9.98 6.55,6.68 9.81,15.08 9.81,25.26 0,10.27 -3.3,18.78 -9.89,25.52 -6.62,6.74 -14.93,10.12 -24.96,10.12 -6.2,0 -12.11,-1.42 -17.75,-4.22 -5.61,-2.81 -9.9,-6.92 -12.83,-12.36 -2.94,-5.42 -4.4,-12.03 -4.4,-19.82zm18.41 0.96c0,6.72 1.58,11.88 4.76,15.44 3.2,3.59 7.11,5.38 11.79,5.38 4.66,0 8.57,-1.79 11.73,-5.38 3.15,-3.56 4.74,-8.76 4.74,-15.57 0,-6.64 -1.59,-11.75 -4.74,-15.32 -3.16,-3.59 -7.07,-5.37 -11.73,-5.37 -4.68,0 -8.59,1.78 -11.79,5.37 -3.18,3.57 -4.76,8.73 -4.76,15.45z"/>
  <path id="18" class="fil15" d="M4067.33 3935.43l18.02 -2.74c0.76,3.46 2.3,6.09 4.65,7.88 2.33,1.8 5.61,2.69 9.81,2.69 4.64,0 8.12,-0.84 10.47,-2.54 1.56,-1.2 2.35,-2.81 2.35,-4.81 0,-1.35 -0.44,-2.48 -1.29,-3.37 -0.89,-0.85 -2.89,-1.65 -5.98,-2.37 -14.47,-3.2 -23.63,-6.12 -27.5,-8.75 -5.37,-3.67 -8.05,-8.76 -8.05,-15.27 0,-5.9 2.33,-10.83 6.96,-14.84 4.64,-4 11.82,-6 21.54,-6 9.27,0 16.17,1.52 20.67,4.55 4.5,3.04 7.61,7.52 9.31,13.46l-16.84 3.13c-0.72,-2.65 -2.11,-4.69 -4.13,-6.11 -2.03,-1.41 -4.92,-2.11 -8.68,-2.11 -4.74,0 -8.14,0.65 -10.21,1.98 -1.37,0.94 -2.04,2.16 -2.04,3.63 0,1.29 0.59,2.38 1.78,3.27 1.64,1.19 7.23,2.87 16.8,5.04 9.57,2.18 16.25,4.83 20.03,7.99 3.77,3.18 5.64,7.63 5.64,13.33 0,6.2 -2.59,11.56 -7.79,16.02 -5.18,4.46 -12.86,6.7 -23.04,6.7 -9.22,0 -16.53,-1.87 -21.93,-5.59 -5.37,-3.72 -8.89,-8.77 -10.55,-15.17z"/>
  <path id="19" class="fil15" d="M4178.42 3919.79c0,-5.96 1.46,-11.73 4.4,-17.29 2.93,-5.6 7.09,-9.84 12.46,-12.77 5.37,-2.94 11.36,-4.42 17.99,-4.42 10.25,0 18.62,3.33 25.17,9.98 6.55,6.68 9.81,15.08 9.81,25.26 0,10.27 -3.3,18.78 -9.89,25.52 -6.62,6.74 -14.93,10.12 -24.96,10.12 -6.2,0 -12.11,-1.42 -17.75,-4.22 -5.61,-2.81 -9.9,-6.92 -12.83,-12.36 -2.94,-5.42 -4.4,-12.03 -4.4,-19.82zm18.41 0.96c0,6.72 1.58,11.88 4.76,15.44 3.2,3.59 7.11,5.38 11.79,5.38 4.66,0 8.57,-1.79 11.73,-5.38 3.15,-3.56 4.74,-8.76 4.74,-15.57 0,-6.64 -1.59,-11.75 -4.74,-15.32 -3.16,-3.59 -7.07,-5.37 -11.73,-5.37 -4.68,0 -8.59,1.78 -11.79,5.37 -3.18,3.57 -4.76,8.73 -4.76,15.45z"/>
  <path id="20" class="fil15" d="M4323.94 3954.49l-17.88 0 0 -34.53c0,-7.3 -0.4,-12.03 -1.16,-14.16 -0.78,-2.15 -2.02,-3.8 -3.76,-5 -1.74,-1.2 -3.83,-1.79 -6.27,-1.79 -3.13,0 -5.94,0.85 -8.42,2.55 -2.5,1.7 -4.19,3.96 -5.11,6.74 -0.93,2.81 -1.39,7.99 -1.39,15.56l0 30.63 -17.88 0 0 -67.75 16.57 0 0 9.95c5.94,-7.6 13.41,-11.38 22.43,-11.38 3.96,0 7.6,0.72 10.88,2.13 3.31,1.44 5.79,3.24 7.46,5.44 1.7,2.22 2.87,4.72 3.53,7.53 0.67,2.8 1,6.81 1,12.03l0 42.05z"/>
  <polygon id="21" class="fil15" points="4342.06,3954.49 4342.06,3861.03 4359.94,3861.03 4359.94,3954.49 "/>
  <path id="22" class="fil15" d="M4378.33 3877.61l0 -16.58 17.88 0 0 16.58 -17.88 0zm0 76.88l0 -67.75 17.88 0 0 67.75 -17.88 0z"/>
  <path id="23" class="fil15" d="M4476.21 3954.49l-17.88 0 0 -34.53c0,-7.3 -0.4,-12.03 -1.16,-14.16 -0.78,-2.15 -2.02,-3.8 -3.76,-5 -1.74,-1.2 -3.83,-1.79 -6.27,-1.79 -3.13,0 -5.94,0.85 -8.42,2.55 -2.5,1.7 -4.19,3.96 -5.11,6.74 -0.93,2.81 -1.39,7.99 -1.39,15.56l0 30.63 -17.88 0 0 -67.75 16.57 0 0 9.95c5.94,-7.6 13.41,-11.38 22.43,-11.38 3.96,0 7.6,0.72 10.88,2.13 3.31,1.44 5.79,3.24 7.46,5.44 1.7,2.22 2.87,4.72 3.53,7.53 0.67,2.8 1,6.81 1,12.03l0 42.05z"/>
  <path id="24" class="fil15" d="M4533.49 3933.08l17.88 3.01c-2.28,6.54 -5.92,11.53 -10.86,14.96 -4.96,3.42 -11.16,5.14 -18.57,5.14 -11.77,0 -20.5,-3.85 -26.13,-11.56 -4.46,-6.17 -6.7,-13.96 -6.7,-23.38 0,-11.23 2.93,-20.04 8.79,-26.39 5.85,-6.37 13.27,-9.55 22.23,-9.55 10.05,0 17.99,3.33 23.82,9.98 5.81,6.66 8.59,16.86 8.33,30.61l-44.77 0c0.13,5.31 1.57,9.45 4.33,12.4 2.74,2.96 6.18,4.44 10.27,4.44 2.81,0 5.16,-0.76 7.05,-2.28 1.91,-1.52 3.35,-3.98 4.33,-7.38zm1.04 -18.14c-0.13,-5.2 -1.46,-9.16 -4,-11.86 -2.55,-2.72 -5.64,-4.07 -9.29,-4.07 -3.9,0 -7.11,1.44 -9.66,4.29 -2.55,2.85 -3.79,6.74 -3.74,11.64l26.69 0z"/>
  <path id="25" class="fil15" d="M4602.68 3886.74l16.7 0 0 9.95c2.18,-3.4 5.09,-6.14 8.79,-8.25 3.7,-2.09 7.81,-3.13 12.32,-3.13 7.85,0 14.53,3.09 20.01,9.27 5.48,6.15 8.22,14.77 8.22,25.78 0,11.33 -2.76,20.12 -8.28,26.41 -5.53,6.28 -12.23,9.42 -20.11,9.42 -3.74,0 -7.13,-0.74 -10.18,-2.24 -3.02,-1.48 -6.24,-4.03 -9.59,-7.64l0 33.89 -17.88 0 0 -93.46zm17.62 32.83c0,7.64 1.5,13.27 4.52,16.93 3,3.63 6.68,5.46 10.99,5.46 4.15,0 7.61,-1.68 10.38,-5.03 2.76,-3.35 4.13,-8.83 4.13,-16.46 0,-7.14 -1.41,-12.43 -4.26,-15.89 -2.83,-3.46 -6.36,-5.17 -10.56,-5.17 -4.37,0 -8,1.69 -10.87,5.09 -2.9,3.39 -4.33,8.42 -4.33,15.07z"/>
  <path id="26" class="fil15" d="M4696.24 3907.63l-16.18 -2.87c1.82,-6.62 4.98,-11.51 9.44,-14.69 4.46,-3.17 11.09,-4.76 19.88,-4.76 7.99,0 13.95,0.93 17.86,2.83 3.9,1.89 6.66,4.28 8.25,7.2 1.59,2.91 2.39,8.24 2.39,16.03l-0.26 20.89c0,5.94 0.28,10.33 0.85,13.16 0.56,2.83 1.63,5.85 3.2,9.07l-17.76 0c-0.45,-1.17 -1.04,-2.92 -1.71,-5.22 -0.29,-1.07 -0.5,-1.76 -0.63,-2.09 -3.05,3 -6.31,5.24 -9.79,6.74 -3.49,1.51 -7.18,2.27 -11.12,2.27 -6.94,0 -12.42,-1.9 -16.43,-5.68 -4,-3.76 -6,-8.55 -6,-14.34 0,-3.8 0.91,-7.22 2.74,-10.22 1.83,-2.98 4.37,-5.29 7.68,-6.88 3.28,-1.59 8.03,-2.98 14.23,-4.17 8.35,-1.57 14.16,-3.05 17.38,-4.4l0 -1.8c0,-3.49 -0.85,-5.97 -2.55,-7.47 -1.71,-1.48 -4.93,-2.22 -9.65,-2.22 -3.2,0 -5.68,0.64 -7.47,1.92 -1.8,1.26 -3.24,3.5 -4.35,6.7zm24.02 14.49c-2.28,0.76 -5.92,1.67 -10.9,2.74 -4.96,1.07 -8.22,2.11 -9.75,3.11 -2.32,1.68 -3.5,3.76 -3.5,6.31 0,2.52 0.94,4.68 2.81,6.5 1.87,1.83 4.24,2.75 7.13,2.75 3.22,0 6.31,-1.07 9.25,-3.18 2.15,-1.63 3.59,-3.59 4.26,-5.94 0.46,-1.52 0.7,-4.44 0.7,-8.72l0 -3.57z"/>
  <path id="27" class="fil15" d="M4772.63 3954.49l-17.89 0 0 -67.75 16.58 0 0 9.62c2.85,-4.55 5.42,-7.53 7.7,-8.94 2.29,-1.41 4.88,-2.11 7.77,-2.11 4.09,0 8.03,1.13 11.81,3.37l-5.54 15.62c-3.03,-1.96 -5.83,-2.94 -8.42,-2.94 -2.53,0 -4.66,0.7 -6.4,2.07 -1.74,1.39 -3.11,3.87 -4.11,7.48 -1,3.62 -1.5,11.19 -1.5,22.7l0 20.88z"/>
  <path id="28" class="fil15" d="M4819.64 3907.63l-16.18 -2.87c1.82,-6.62 4.98,-11.51 9.44,-14.69 4.46,-3.17 11.09,-4.76 19.88,-4.76 7.99,0 13.95,0.93 17.86,2.83 3.9,1.89 6.66,4.28 8.25,7.2 1.59,2.91 2.39,8.24 2.39,16.03l-0.26 20.89c0,5.94 0.28,10.33 0.85,13.16 0.56,2.83 1.63,5.85 3.2,9.07l-17.76 0c-0.45,-1.17 -1.04,-2.92 -1.71,-5.22 -0.29,-1.07 -0.5,-1.76 -0.63,-2.09 -3.05,3 -6.31,5.24 -9.79,6.74 -3.49,1.51 -7.18,2.27 -11.12,2.27 -6.94,0 -12.42,-1.9 -16.43,-5.68 -4,-3.76 -6,-8.55 -6,-14.34 0,-3.8 0.91,-7.22 2.74,-10.22 1.83,-2.98 4.37,-5.29 7.68,-6.88 3.28,-1.59 8.03,-2.98 14.23,-4.17 8.35,-1.57 14.16,-3.05 17.38,-4.4l0 -1.8c0,-3.49 -0.85,-5.97 -2.55,-7.47 -1.71,-1.48 -4.93,-2.22 -9.65,-2.22 -3.2,0 -5.68,0.64 -7.47,1.92 -1.8,1.26 -3.24,3.5 -4.35,6.7zm24.02 14.49c-2.28,0.76 -5.92,1.67 -10.9,2.74 -4.96,1.07 -8.22,2.11 -9.75,3.11 -2.32,1.68 -3.5,3.76 -3.5,6.31 0,2.52 0.94,4.68 2.81,6.5 1.87,1.83 4.24,2.75 7.13,2.75 3.22,0 6.31,-1.07 9.25,-3.18 2.15,-1.63 3.59,-3.59 4.26,-5.94 0.46,-1.52 0.7,-4.44 0.7,-8.72l0 -3.57z"/>
  <path id="29" class="fil15" d="M4928.51 3907.63l-16.18 -2.87c1.82,-6.62 4.98,-11.51 9.44,-14.69 4.46,-3.17 11.09,-4.76 19.88,-4.76 7.99,0 13.95,0.93 17.86,2.83 3.9,1.89 6.66,4.28 8.25,7.2 1.59,2.91 2.39,8.24 2.39,16.03l-0.26 20.89c0,5.94 0.28,10.33 0.85,13.16 0.56,2.83 1.63,5.85 3.2,9.07l-17.76 0c-0.45,-1.17 -1.04,-2.92 -1.71,-5.22 -0.29,-1.07 -0.5,-1.76 -0.63,-2.09 -3.05,3 -6.31,5.24 -9.79,6.74 -3.49,1.51 -7.18,2.27 -11.12,2.27 -6.94,0 -12.42,-1.9 -16.43,-5.68 -4,-3.76 -6,-8.55 -6,-14.34 0,-3.8 0.91,-7.22 2.74,-10.22 1.83,-2.98 4.37,-5.29 7.68,-6.88 3.28,-1.59 8.03,-2.98 14.23,-4.17 8.35,-1.57 14.16,-3.05 17.38,-4.4l0 -1.8c0,-3.49 -0.85,-5.97 -2.55,-7.47 -1.71,-1.48 -4.93,-2.22 -9.65,-2.22 -3.2,0 -5.68,0.64 -7.47,1.92 -1.8,1.26 -3.24,3.5 -4.35,6.7zm24.02 14.49c-2.28,0.76 -5.92,1.67 -10.9,2.74 -4.96,1.07 -8.22,2.11 -9.75,3.11 -2.32,1.68 -3.5,3.76 -3.5,6.31 0,2.52 0.94,4.68 2.81,6.5 1.87,1.83 4.24,2.75 7.13,2.75 3.22,0 6.31,-1.07 9.25,-3.18 2.15,-1.63 3.59,-3.59 4.26,-5.94 0.46,-1.52 0.7,-4.44 0.7,-8.72l0 -3.57z"/>
  <path id="30" class="fil15" d="M4987.41 3877.61l0 -16.58 17.88 0 0 16.58 -17.88 0zm17.88 9.13l0 65.6c0,8.61 -0.57,14.7 -1.7,18.25 -1.11,3.54 -3.28,6.33 -6.5,8.31 -3.2,2 -7.29,3 -12.27,3 -1.79,0 -3.7,-0.15 -5.77,-0.48 -2.06,-0.3 -4.28,-0.78 -6.65,-1.43l3.06 -15.23c0.85,0.15 1.66,0.3 2.42,0.41 0.74,0.11 1.43,0.15 2.09,0.15 1.82,0 3.35,-0.39 4.52,-1.17 1.18,-0.78 1.96,-1.74 2.33,-2.85 0.39,-1.11 0.59,-4.42 0.59,-9.94l0 -64.62 17.88 0z"/>
  <path id="31" class="fil15" d="M5068.84 3954.49l0 -10.14c-2.48,3.61 -5.72,6.49 -9.75,8.64 -4.02,2.13 -8.26,3.2 -12.72,3.2 -4.57,0 -8.66,-1 -12.27,-3.01 -3.64,-2 -6.25,-4.82 -7.86,-8.44 -1.63,-3.63 -2.43,-8.63 -2.43,-15.03l0 -42.97 17.88 0 0 31.2c0,9.55 0.33,15.38 1,17.54 0.65,2.15 1.85,3.87 3.61,5.11 1.74,1.26 3.96,1.89 6.66,1.89 3.07,0 5.81,-0.85 8.24,-2.52 2.44,-1.68 4.09,-3.77 4.99,-6.27 0.89,-2.5 1.34,-8.59 1.34,-18.32l0 -28.63 17.89 0 0 67.75 -16.58 0z"/>
  <path id="32" class="fil15" d="M5165.93 3954.49l-16.58 0 0 -9.94c-2.76,3.87 -6.04,6.76 -9.81,8.72 -3.76,1.94 -7.57,2.92 -11.4,2.92 -7.81,0 -14.49,-3.14 -20.06,-9.42 -5.54,-6.29 -8.33,-15.04 -8.33,-26.28 0,-11.49 2.7,-20.24 8.12,-26.22 5.41,-5.98 12.24,-8.96 20.51,-8.96 7.57,0 14.14,3.15 19.67,9.44l0 -33.72 17.88 0 0 93.46zm-47.77 -35.18c0,7.25 1,12.49 2.98,15.73 2.89,4.7 6.91,7.05 12.09,7.05 4.11,0 7.62,-1.76 10.49,-5.29 2.89,-3.52 4.33,-8.76 4.33,-15.77 0,-7.81 -1.39,-13.42 -4.2,-16.86 -2.81,-3.44 -6.38,-5.16 -10.75,-5.16 -4.24,0 -7.79,1.7 -10.66,5.1 -2.85,3.39 -4.28,8.46 -4.28,15.2z"/>
  <path id="33" class="fil15" d="M5196.84 3907.63l-16.18 -2.87c1.82,-6.62 4.98,-11.51 9.44,-14.69 4.46,-3.17 11.09,-4.76 19.88,-4.76 7.99,0 13.95,0.93 17.86,2.83 3.9,1.89 6.66,4.28 8.25,7.2 1.59,2.91 2.39,8.24 2.39,16.03l-0.26 20.89c0,5.94 0.28,10.33 0.85,13.16 0.56,2.83 1.63,5.85 3.2,9.07l-17.76 0c-0.45,-1.17 -1.04,-2.92 -1.71,-5.22 -0.29,-1.07 -0.5,-1.76 -0.63,-2.09 -3.05,3 -6.31,5.24 -9.79,6.74 -3.49,1.51 -7.18,2.27 -11.12,2.27 -6.94,0 -12.42,-1.9 -16.43,-5.68 -4,-3.76 -6,-8.55 -6,-14.34 0,-3.8 0.91,-7.22 2.74,-10.22 1.83,-2.98 4.37,-5.29 7.68,-6.88 3.28,-1.59 8.03,-2.98 14.23,-4.17 8.35,-1.57 14.16,-3.05 17.38,-4.4l0 -1.8c0,-3.49 -0.85,-5.97 -2.55,-7.47 -1.71,-1.48 -4.93,-2.22 -9.65,-2.22 -3.2,0 -5.68,0.64 -7.47,1.92 -1.8,1.26 -3.24,3.5 -4.35,6.7zm24.02 14.49c-2.28,0.76 -5.92,1.67 -10.9,2.74 -4.96,1.07 -8.22,2.11 -9.75,3.11 -2.32,1.68 -3.5,3.76 -3.5,6.31 0,2.52 0.94,4.68 2.81,6.5 1.87,1.83 4.24,2.75 7.13,2.75 3.22,0 6.31,-1.07 9.25,-3.18 2.15,-1.63 3.59,-3.59 4.26,-5.94 0.46,-1.52 0.7,-4.44 0.7,-8.72l0 -3.57z"/>
  <polygon id="34" class="fil15" points="5254.04,3929.56 5254.04,3911.68 5289.28,3911.68 5289.28,3929.56 "/>
  <polygon id="35" class="fil15" points="5299.6,3954.49 5299.6,3861.03 5317.48,3861.03 5317.48,3954.49 "/>
  <path id="36" class="fil15" d="M5331.69 3919.79c0,-5.96 1.46,-11.73 4.4,-17.29 2.93,-5.6 7.09,-9.84 12.46,-12.77 5.37,-2.94 11.36,-4.42 17.99,-4.42 10.25,0 18.62,3.33 25.17,9.98 6.55,6.68 9.81,15.08 9.81,25.26 0,10.27 -3.3,18.78 -9.89,25.52 -6.62,6.74 -14.93,10.12 -24.96,10.12 -6.2,0 -12.11,-1.42 -17.75,-4.22 -5.61,-2.81 -9.9,-6.92 -12.83,-12.36 -2.94,-5.42 -4.4,-12.03 -4.4,-19.82zm18.41 0.96c0,6.72 1.58,11.88 4.76,15.44 3.2,3.59 7.11,5.38 11.79,5.38 4.66,0 8.57,-1.79 11.73,-5.38 3.15,-3.56 4.74,-8.76 4.74,-15.57 0,-6.64 -1.59,-11.75 -4.74,-15.32 -3.16,-3.59 -7.07,-5.37 -11.73,-5.37 -4.68,0 -8.59,1.78 -11.79,5.37 -3.18,3.57 -4.76,8.73 -4.76,15.45z"/>
  <path id="37" class="fil15" d="M5422.52 3930.47l-4.64 -47.49 0 -21.95 19.32 0 0 21.95 -4.57 47.49 -10.11 0zm-3.85 24.02l0 -17.88 17.88 0 0 17.88 -17.88 0z"/>
  <circle class="fil4 str0" cx="2026.56" cy="3254.38" r="232.17"/>
  <g id="_3000644478576">
   <path class="fil1" d="M1961.49 3254.35c2.21,-2.15 7.67,-2.8 11.69,-6.57 11.2,-10.5 9.5,-28.62 8.9,-46.33 -0.39,-11.32 -1.42,-25.8 -0.67,-36.9 1.09,-16.18 6.43,-15.15 20.19,-16.2l-0.3 -23.23c-37.02,-1.86 -53.85,2.38 -53.69,44.06 0.06,16.13 2.71,31.7 2.78,47.59 0.08,19.3 -10.49,22.62 -24.28,24.73l0.04 25.72c36.17,5.41 21.45,28.89 21.46,73.06 0,41.09 17.09,45.26 53.92,43.32l0.04 -23.23c-13.74,-1.05 -19.12,0.02 -20.16,-16.23 -0.74,-11.62 0.26,-25.1 0.67,-36.83 1.92,-55.71 -12.11,-44.87 -20.59,-52.96z"/>
   <path class="fil1" d="M2091.65 3254.35c-1.79,1.86 -7.92,3.07 -11.64,6.49 -16.01,14.68 -6.44,54.02 -8.28,83.29 -0.97,15.36 -6.47,15.93 -20.19,16.12l0.31 23.42c37.01,0.33 53.84,-0.99 53.68,-44.16 -0.06,-16.16 -2.73,-31.66 -2.78,-47.58 -0.08,-20.96 12.04,-22.1 24.25,-24.82l-0.03 -25.5c-15.78,-3.47 -24.46,-6.01 -24.21,-25.62 0.19,-15.94 2.78,-31.4 2.77,-47.58 -0.01,-42.47 -17.41,-43.69 -53.91,-43.36l-0.06 23.42c13.64,0.16 19.16,0.81 20.16,16.08 1.39,21.18 -3.82,55.16 1.33,72.29 4.31,14.38 15.75,14.71 18.6,17.51z"/>
  </g>
  <circle class="fil16" cx="2201.72" cy="3430.35" r="51.21"/>
  <path class="fil17" d="M4947.09 5595.16c4.99,3.59 10.42,6.44 16.3,8.56l-7.5 14.53c-3.06,-0.92 -6.07,-2.19 -9.01,-3.81 -0.64,-0.33 -5.15,-3.32 -13.55,-9.01 -6.61,2.9 -13.94,4.35 -21.99,4.35 -15.52,0 -27.7,-4.58 -36.5,-13.73 -8.79,-9.17 -13.19,-22.04 -13.19,-38.62 0,-16.53 4.42,-29.4 13.24,-38.57 8.82,-9.19 20.79,-13.78 35.89,-13.78 14.98,0 26.86,4.59 35.63,13.78 8.77,9.17 13.17,22.02 13.17,38.55 0,8.72 -1.22,16.41 -3.67,23.05 -1.84,5.05 -4.78,9.97 -8.82,14.7zm-16.37 -11.48c2.61,-3.11 4.56,-6.82 5.88,-11.2 1.29,-4.37 1.95,-9.38 1.95,-15.05 0,-11.69 -2.56,-20.41 -7.71,-26.2 -5.15,-5.76 -11.88,-8.65 -20.18,-8.65 -8.33,0 -15.08,2.89 -20.23,8.7 -5.17,5.81 -7.76,14.53 -7.76,26.2 0,11.83 2.59,20.7 7.76,26.55 5.18,5.88 11.72,8.82 19.62,8.82 2.96,0 5.74,-0.49 8.35,-1.46 -4.12,-2.7 -8.33,-4.79 -12.58,-6.3l5.71 -11.85c6.68,2.33 13.08,5.78 19.19,10.44z"/>
  <path id="1" class="fil17" d="M5023.9 5607.95l0 -10.96c-2.68,3.9 -6.18,7.01 -10.54,9.34 -4.35,2.3 -8.93,3.45 -13.75,3.45 -4.94,0 -9.36,-1.08 -13.27,-3.24 -3.93,-2.16 -6.75,-5.22 -8.49,-9.13 -1.76,-3.92 -2.63,-9.33 -2.63,-16.25l0 -46.45 19.33 0 0 33.73c0,10.32 0.35,16.63 1.08,18.95 0.71,2.33 2,4.19 3.91,5.53 1.88,1.37 4.28,2.05 7.19,2.05 3.32,0 6.28,-0.92 8.92,-2.73 2.63,-1.81 4.42,-4.07 5.38,-6.77 0.97,-2.71 1.46,-9.29 1.46,-19.81l0 -30.95 19.33 0 0 73.24 -17.92 0z"/>
  <path id="2" class="fil17" d="M5104.02 5584.81l19.33 3.24c-2.46,7.08 -6.39,12.47 -11.73,16.18 -5.36,3.7 -12.07,5.55 -20.09,5.55 -12.72,0 -22.15,-4.16 -28.24,-12.48 -4.82,-6.68 -7.24,-15.1 -7.24,-25.29 0,-12.13 3.17,-21.66 9.5,-28.52 6.32,-6.89 14.34,-10.33 24.03,-10.33 10.87,0 19.45,3.6 25.76,10.8 6.27,7.19 9.28,18.22 9,33.09l-48.4 0c0.14,5.74 1.7,10.2 4.68,13.4 2.97,3.2 6.68,4.8 11.1,4.8 3.04,0 5.58,-0.82 7.62,-2.47 2.07,-1.65 3.62,-4.3 4.68,-7.97zm1.13 -19.62c-0.14,-5.62 -1.57,-9.9 -4.33,-12.81 -2.75,-2.94 -6.09,-4.4 -10.04,-4.4 -4.21,0 -7.69,1.55 -10.44,4.63 -2.75,3.08 -4.09,7.29 -4.05,12.58l28.86 0z"/>
  <path id="3" class="fil17" d="M5178.53 5607.95l0 -101.03 19.34 0 0 36.45c5.97,-6.8 13.02,-10.21 21.21,-10.21 8.91,0 16.27,3.22 22.11,9.69 5.83,6.47 8.74,15.76 8.74,27.87 0,12.51 -2.96,22.15 -8.91,28.93 -5.95,6.75 -13.19,10.13 -21.68,10.13 -4.19,0 -8.3,-1.08 -12.37,-3.22 -4.07,-2.16 -7.58,-5.27 -10.52,-9.36l0 10.75 -17.92 0zm19.05 -38.03c0,7.6 1.2,13.24 3.6,16.86 3.36,5.18 7.81,7.76 13.38,7.76 4.28,0 7.93,-1.83 10.96,-5.5 3.01,-3.67 4.52,-9.45 4.52,-17.33 0,-8.4 -1.53,-14.44 -4.56,-18.16 -3.04,-3.71 -6.92,-5.57 -11.67,-5.57 -4.66,0 -8.51,1.81 -11.59,5.43 -3.08,3.62 -4.64,9.13 -4.64,16.51z"/>
  <path id="4" class="fil17" d="M5279.96 5557.29l-17.49 -3.1c1.97,-7.15 5.38,-12.44 10.2,-15.88 4.82,-3.43 12,-5.15 21.5,-5.15 8.63,0 15.07,1.01 19.31,3.06 4.21,2.05 7.19,4.63 8.91,7.78 1.72,3.16 2.59,8.92 2.59,17.34l-0.28 22.57c0,6.42 0.3,11.18 0.91,14.23 0.61,3.06 1.77,6.33 3.46,9.81l-19.19 0c-0.5,-1.27 -1.13,-3.15 -1.86,-5.64 -0.31,-1.16 -0.54,-1.91 -0.68,-2.26 -3.29,3.24 -6.82,5.67 -10.58,7.29 -3.77,1.62 -7.77,2.44 -12.02,2.44 -7.5,0 -13.43,-2.04 -17.76,-6.13 -4.33,-4.07 -6.49,-9.25 -6.49,-15.5 0,-4.12 0.99,-7.81 2.96,-11.06 1.98,-3.22 4.73,-5.71 8.31,-7.43 3.55,-1.71 8.67,-3.22 15.38,-4.51 9.03,-1.7 15.31,-3.3 18.79,-4.75l0 -1.96c0,-3.76 -0.92,-6.44 -2.75,-8.06 -1.86,-1.6 -5.34,-2.4 -10.45,-2.4 -3.45,0 -6.13,0.68 -8.06,2.07 -1.96,1.36 -3.51,3.78 -4.71,7.24zm25.97 15.66c-2.47,0.83 -6.4,1.82 -11.79,2.97 -5.36,1.15 -8.89,2.28 -10.53,3.36 -2.52,1.81 -3.79,4.07 -3.79,6.82 0,2.73 1.01,5.06 3.04,7.03 2.02,1.98 4.58,2.97 7.71,2.97 3.48,0 6.82,-1.16 10,-3.44 2.32,-1.76 3.88,-3.88 4.6,-6.42 0.5,-1.64 0.76,-4.8 0.76,-9.43l0 -3.86z"/>
  <path id="5" class="fil17" d="M5407.83 5556.44l-19.05 3.39c-0.63,-3.78 -2.09,-6.63 -4.37,-8.56 -2.28,-1.9 -5.22,-2.87 -8.85,-2.87 -4.82,0 -8.67,1.67 -11.54,5.01 -2.87,3.34 -4.31,8.91 -4.31,16.75 0,8.7 1.46,14.84 4.38,18.43 2.91,3.6 6.82,5.39 11.71,5.39 3.67,0 6.68,-1.06 9.01,-3.15 2.35,-2.09 4,-5.69 4.96,-10.82l19.05 3.25c-1.98,8.74 -5.76,15.35 -11.36,19.82 -5.6,4.47 -13.1,6.7 -22.53,6.7 -10.68,0 -19.21,-3.38 -25.56,-10.13 -6.38,-6.78 -9.55,-16.14 -9.55,-28.11 0,-12.11 3.2,-21.52 9.57,-28.27 6.37,-6.75 15,-10.11 25.89,-10.11 8.89,0 15.97,1.93 21.24,5.76 5.24,3.84 9.01,9.67 11.31,17.52z"/>
  <path id="6" class="fil17" d="M5436.92 5557.29l-17.49 -3.1c1.97,-7.15 5.38,-12.44 10.2,-15.88 4.82,-3.43 12,-5.15 21.5,-5.15 8.63,0 15.07,1.01 19.31,3.06 4.21,2.05 7.19,4.63 8.91,7.78 1.72,3.16 2.59,8.92 2.59,17.34l-0.28 22.57c0,6.42 0.3,11.18 0.91,14.23 0.61,3.06 1.77,6.33 3.46,9.81l-19.19 0c-0.5,-1.27 -1.13,-3.15 -1.86,-5.64 -0.31,-1.16 -0.54,-1.91 -0.68,-2.26 -3.29,3.24 -6.82,5.67 -10.58,7.29 -3.77,1.62 -7.77,2.44 -12.02,2.44 -7.5,0 -13.43,-2.04 -17.76,-6.13 -4.33,-4.07 -6.49,-9.25 -6.49,-15.5 0,-4.12 0.99,-7.81 2.96,-11.06 1.98,-3.22 4.73,-5.71 8.31,-7.43 3.55,-1.71 8.67,-3.22 15.38,-4.51 9.03,-1.7 15.31,-3.3 18.79,-4.75l0 -1.96c0,-3.76 -0.92,-6.44 -2.75,-8.06 -1.86,-1.6 -5.34,-2.4 -10.45,-2.4 -3.45,0 -6.13,0.68 -8.06,2.07 -1.96,1.36 -3.51,3.78 -4.71,7.24zm25.97 15.66c-2.47,0.83 -6.4,1.82 -11.79,2.97 -5.36,1.15 -8.89,2.28 -10.53,3.36 -2.52,1.81 -3.79,4.07 -3.79,6.82 0,2.73 1.01,5.06 3.04,7.03 2.02,1.98 4.58,2.97 7.71,2.97 3.48,0 6.82,-1.16 10,-3.44 2.32,-1.76 3.88,-3.88 4.6,-6.42 0.5,-1.64 0.76,-4.8 0.76,-9.43l0 -3.86z"/>
  <path id="7" class="fil17" d="M5567.61 5607.95l-19.33 0 0 -37.32c0,-7.91 -0.42,-13.01 -1.24,-15.31 -0.85,-2.33 -2.19,-4.12 -4.07,-5.41 -1.88,-1.3 -4.14,-1.93 -6.78,-1.93 -3.38,0 -6.42,0.92 -9.1,2.75 -2.7,1.83 -4.54,4.28 -5.53,7.29 -1.01,3.03 -1.5,8.63 -1.5,16.82l0 33.11 -19.33 0 0 -73.24 17.92 0 0 10.75c6.42,-8.21 14.49,-12.3 24.25,-12.3 4.28,0 8.2,0.78 11.76,2.31 3.57,1.55 6.25,3.5 8.06,5.88 1.84,2.39 3.11,5.1 3.81,8.13 0.73,3.04 1.08,7.36 1.08,13.01l0 45.46z"/>
  <path id="8" class="fil17" d="M5601.59 5557.29l-17.49 -3.1c1.97,-7.15 5.38,-12.44 10.2,-15.88 4.82,-3.43 12,-5.15 21.5,-5.15 8.63,0 15.07,1.01 19.31,3.06 4.21,2.05 7.19,4.63 8.91,7.78 1.72,3.16 2.59,8.92 2.59,17.34l-0.28 22.57c0,6.42 0.3,11.18 0.91,14.23 0.61,3.06 1.77,6.33 3.46,9.81l-19.19 0c-0.5,-1.27 -1.13,-3.15 -1.86,-5.64 -0.31,-1.16 -0.54,-1.91 -0.68,-2.26 -3.29,3.24 -6.82,5.67 -10.58,7.29 -3.77,1.62 -7.77,2.44 -12.02,2.44 -7.5,0 -13.43,-2.04 -17.76,-6.13 -4.33,-4.07 -6.49,-9.25 -6.49,-15.5 0,-4.12 0.99,-7.81 2.96,-11.06 1.98,-3.22 4.73,-5.71 8.31,-7.43 3.55,-1.71 8.67,-3.22 15.38,-4.51 9.03,-1.7 15.31,-3.3 18.79,-4.75l0 -1.96c0,-3.76 -0.92,-6.44 -2.75,-8.06 -1.86,-1.6 -5.34,-2.4 -10.45,-2.4 -3.45,0 -6.13,0.68 -8.06,2.07 -1.96,1.36 -3.51,3.78 -4.71,7.24zm25.97 15.66c-2.47,0.83 -6.4,1.82 -11.79,2.97 -5.36,1.15 -8.89,2.28 -10.53,3.36 -2.52,1.81 -3.79,4.07 -3.79,6.82 0,2.73 1.01,5.06 3.04,7.03 2.02,1.98 4.58,2.97 7.71,2.97 3.48,0 6.82,-1.16 10,-3.44 2.32,-1.76 3.88,-3.88 4.6,-6.42 0.5,-1.64 0.76,-4.8 0.76,-9.43l0 -3.86z"/>
  <path id="9" class="fil17" d="M5673.16 5581.99l-5.01 -51.34 0 -23.73 20.88 0 0 23.73 -4.94 51.34 -10.93 0zm-4.16 25.96l0 -19.33 19.33 0 0 19.33 -19.33 0z"/>
  <g id="_3000644475184">
   <g>
    <path class="fil18" d="M5846.95 5545.65l0 0 0.23 -9.01 0.67 -8.92 1.12 -8.78 1.54 -8.63 1.96 -8.49 2.37 -8.33 2.76 -8.15 3.14 -7.97 3.51 -7.77 3.88 -7.56 4.22 -7.35 4.56 -7.11 4.89 -6.88 5.21 -6.63 5.51 -6.36 5.81 -6.08 6.09 -5.81 6.36 -5.51 6.62 -5.21 6.88 -4.89 7.11 -4.57 7.35 -4.22 7.57 -3.87 7.77 -3.51 7.97 -3.15 8.14 -2.76 8.33 -2.36 8.49 -1.96 8.64 -1.54 8.78 -1.12 8.91 -0.67 9.01 -0.23 0 12.12 -8.41 0.21 -8.29 0.63 -8.18 1.04 -8.04 1.44 -7.89 1.82 -7.75 2.2 -7.58 2.56 -7.41 2.93 -7.23 3.27 -7.05 3.61 -6.83 3.92 -6.63 4.25 -6.4 4.55 -6.16 4.85 -5.94 5.13 -5.67 5.41 -5.41 5.68 -5.13 5.92 -4.85 6.17 -4.55 6.4 -4.24 6.63 -3.94 6.83 -3.6 7.04 -3.27 7.23 -2.92 7.41 -2.58 7.59 -2.19 7.75 -1.82 7.89 -1.44 8.05 -1.04 8.16 -0.63 8.3 -0.21 8.41 0 0 -12.12 0zm175.4 175.41l0 0 -9.01 -0.23 -8.91 -0.67 -8.78 -1.12 -8.64 -1.54 -8.49 -1.96 -8.33 -2.37 -8.14 -2.76 -7.97 -3.14 -7.77 -3.51 -7.57 -3.88 -7.35 -4.22 -7.11 -4.56 -6.88 -4.89 -6.62 -5.21 -6.36 -5.51 -6.09 -5.81 -5.81 -6.09 -5.51 -6.36 -5.21 -6.62 -4.89 -6.88 -4.56 -7.13 -4.22 -7.34 -3.88 -7.56 -3.51 -7.77 -3.14 -7.97 -2.76 -8.15 -2.37 -8.33 -1.96 -8.49 -1.54 -8.63 -1.12 -8.78 -0.67 -8.92 -0.23 -9.01 12.12 0 0.21 8.41 0.63 8.3 1.04 8.16 1.44 8.05 1.82 7.89 2.19 7.75 2.58 7.59 2.92 7.41 3.27 7.23 3.6 7.04 3.94 6.84 4.24 6.63 4.55 6.4 4.85 6.16 5.13 5.94 5.41 5.67 5.67 5.41 5.94 5.13 6.16 4.85 6.4 4.55 6.63 4.24 6.83 3.94 7.05 3.6 7.23 3.27 7.41 2.92 7.58 2.58 7.75 2.19 7.89 1.82 8.04 1.44 8.18 1.04 8.29 0.63 8.41 0.21 0 0 0 12.12zm175.41 -175.41l0 0 -0.23 9.01 -0.67 8.92 -1.12 8.78 -1.54 8.63 -1.96 8.49 -2.37 8.33 -2.76 8.15 -3.14 7.97 -3.51 7.77 -3.88 7.56 -4.22 7.34 -4.56 7.13 -4.89 6.88 -5.21 6.62 -5.51 6.36 -5.81 6.09 -6.09 5.81 -6.36 5.51 -6.62 5.21 -6.88 4.89 -7.13 4.56 -7.34 4.22 -7.56 3.88 -7.77 3.51 -7.97 3.14 -8.15 2.76 -8.33 2.37 -8.49 1.96 -8.63 1.54 -8.78 1.12 -8.92 0.67 -9.01 0.23 0 -12.12 8.41 -0.21 8.3 -0.63 8.16 -1.04 8.05 -1.44 7.89 -1.82 7.75 -2.19 7.59 -2.58 7.41 -2.92 7.23 -3.27 7.04 -3.6 6.84 -3.94 6.63 -4.24 6.4 -4.55 6.16 -4.85 5.94 -5.13 5.67 -5.41 5.41 -5.67 5.13 -5.94 4.85 -6.16 4.55 -6.4 4.24 -6.63 3.94 -6.84 3.6 -7.04 3.27 -7.23 2.92 -7.41 2.58 -7.59 2.19 -7.75 1.82 -7.89 1.44 -8.05 1.04 -8.16 0.63 -8.3 0.21 -8.41 0 0 12.12 0zm-175.41 -175.4l0 0 9.01 0.23 8.92 0.67 8.78 1.12 8.63 1.54 8.49 1.96 8.33 2.36 8.15 2.76 7.97 3.15 7.77 3.51 7.56 3.88 7.34 4.21 7.13 4.57 6.88 4.89 6.62 5.21 6.36 5.51 6.09 5.81 5.81 6.08 5.51 6.36 5.21 6.63 4.89 6.88 4.56 7.11 4.22 7.35 3.88 7.56 3.51 7.77 3.14 7.97 2.76 8.15 2.37 8.33 1.96 8.49 1.54 8.63 1.12 8.78 0.67 8.92 0.23 9.01 -12.12 0 -0.21 -8.41 -0.63 -8.3 -1.04 -8.16 -1.44 -8.05 -1.82 -7.89 -2.19 -7.75 -2.58 -7.59 -2.92 -7.41 -3.27 -7.23 -3.6 -7.04 -3.94 -6.83 -4.24 -6.63 -4.55 -6.4 -4.85 -6.17 -5.13 -5.92 -5.41 -5.68 -5.67 -5.41 -5.94 -5.13 -6.16 -4.85 -6.4 -4.55 -6.63 -4.25 -6.84 -3.93 -7.04 -3.6 -7.23 -3.27 -7.41 -2.93 -7.59 -2.56 -7.75 -2.2 -7.89 -1.82 -8.05 -1.44 -8.16 -1.04 -8.3 -0.63 -8.41 -0.21 0 0 0 -12.12z"/>
    <path id="1" class="fil19" d="M6022.35 5376.31c-93.52,0 -169.34,75.81 -169.34,169.34 0,93.53 75.82,169.35 169.34,169.35 93.53,0 169.35,-75.82 169.35,-169.35 0,-93.53 -75.82,-169.34 -169.35,-169.34z"/>
   </g>
   <ellipse class="fil20" cx="6071.9" cy="5483.62" rx="16.95" ry="27.67"/>
   <ellipse class="fil20" cx="5972.82" cy="5483.62" rx="16.95" ry="27.67"/>
   <path class="fil20" d="M5912.95 5575.62c0,60.42 48.99,90.57 109.4,90.57 60.41,0 109.4,-30.15 109.4,-90.57l-218.8 0z"/>
   <path class="fil4" d="M5916.01 5579.58c0,10.54 1.49,16.79 4.27,26.44 69.95,2.45 133.49,2.39 203.71,-0.09 2.76,-9.62 4.24,-15.84 4.24,-26.35l-212.22 0z"/>
  </g>
  <path class="fil21" d="M2110.6 1549.92l76.98 0c15.27,0 26.61,0.63 34.09,1.89 7.53,1.3 14.2,3.94 20.12,7.93 5.91,4.03 10.84,9.36 14.78,16.04 3.95,6.67 5.92,14.2 5.92,22.49 0,8.96 -2.42,17.25 -7.26,24.73 -4.84,7.53 -11.43,13.13 -19.71,16.89 11.69,3.45 20.65,9.27 26.97,17.52 6.27,8.24 9.41,17.92 9.41,29.08 0,8.78 -2.02,17.29 -6.1,25.58 -4.07,8.29 -9.63,14.92 -16.71,19.89 -7.03,4.93 -15.73,7.98 -26.07,9.14 -6.46,0.67 -22.09,1.12 -46.87,1.3l-65.55 0 0 -192.48zm38.98 31.99l0 44.36 25.45 0c15.1,0 24.51,-0.22 28.18,-0.67 6.63,-0.76 11.88,-3.05 15.68,-6.86 3.81,-3.81 5.69,-8.78 5.69,-14.96 0,-5.96 -1.65,-10.75 -4.92,-14.47 -3.28,-3.72 -8.16,-5.96 -14.61,-6.72 -3.85,-0.45 -14.92,-0.68 -33.16,-0.68l-22.31 0zm0 76.35l0 51.61 36.02 0c13.98,0 22.9,-0.4 26.66,-1.16 5.78,-1.08 10.49,-3.63 14.12,-7.71 3.62,-4.12 5.46,-9.54 5.46,-16.4 0,-5.82 -1.39,-10.7 -4.21,-14.74 -2.78,-4.03 -6.85,-6.99 -12.14,-8.82 -5.29,-1.84 -16.8,-2.78 -34.5,-2.78l-31.41 0z"/>
  <path id="1" class="fil21" d="M2385.11 1698.31l36.83 6.19c-4.7,13.48 -12.19,23.74 -22.36,30.82 -10.21,7.04 -22.98,10.57 -38.26,10.57 -24.24,0 -42.2,-7.93 -53.81,-23.79 -9.18,-12.72 -13.8,-28.76 -13.8,-48.16 0,-23.12 6.05,-41.26 18.1,-54.35 12.05,-13.12 27.33,-19.66 45.79,-19.66 20.7,0 37.05,6.85 49.06,20.56 11.96,13.71 17.7,34.72 17.16,63.04l-92.2 0c0.26,10.93 3.22,19.44 8.91,25.54 5.65,6.09 12.73,9.14 21.15,9.14 5.78,0 10.62,-1.57 14.52,-4.71 3.94,-3.13 6.89,-8.2 8.91,-15.19zm2.15 -37.36c-0.27,-10.71 -3,-18.86 -8.24,-24.42 -5.24,-5.6 -11.61,-8.38 -19.13,-8.38 -8.02,0 -14.65,2.96 -19.9,8.83 -5.24,5.87 -7.79,13.89 -7.7,23.97l54.97 0z"/>
  <path id="2" class="fil21" d="M2451.29 1602.88l33.87 0 0 19.04c12.14,-14.65 26.61,-21.99 43.41,-21.99 8.92,0 16.67,1.83 23.21,5.51 6.59,3.67 11.96,9.23 16.13,16.66 6.14,-7.43 12.77,-12.99 19.85,-16.66 7.08,-3.68 14.65,-5.51 22.71,-5.51 10.22,0 18.87,2.06 25.99,6.22 7.08,4.17 12.36,10.26 15.86,18.33 2.55,5.91 3.81,15.54 3.81,28.85l0 89.07 -36.83 0 0 -79.62c0,-13.84 -1.26,-22.76 -3.81,-26.74 -3.4,-5.25 -8.69,-7.89 -15.77,-7.89 -5.15,0 -10.04,1.57 -14.61,4.71 -4.52,3.18 -7.84,7.79 -9.85,13.84 -2.02,6.09 -3,15.68 -3,28.81l0 66.89 -36.83 0 0 -76.34c0,-13.54 -0.67,-22.32 -1.97,-26.21 -1.3,-3.95 -3.32,-6.9 -6.1,-8.83 -2.73,-1.93 -6.49,-2.87 -11.2,-2.87 -5.69,0 -10.8,1.52 -15.32,4.57 -4.57,3.09 -7.8,7.48 -9.77,13.26 -1.97,5.78 -2.95,15.37 -2.95,28.72l0 67.7 -36.83 0 0 -139.52z"/>
  <polygon id="3" class="fil21" points="2817.2,1742.4 2748.34,1549.92 2790.46,1549.92 2839.34,1692.4 2886.24,1549.92 2927.64,1549.92 2859.18,1742.4 "/>
  <path id="4" class="fil21" d="M2942.16 1584.07l0 -34.15 36.82 0 0 34.15 -36.82 0zm0 158.33l0 -139.52 36.82 0 0 139.52 -36.82 0z"/>
  <path id="5" class="fil21" d="M3143.73 1742.4l-36.83 0 0 -71.1c0,-15.06 -0.81,-24.78 -2.37,-29.17 -1.62,-4.44 -4.17,-7.84 -7.76,-10.3 -3.58,-2.47 -7.88,-3.68 -12.9,-3.68 -6.45,0 -12.23,1.75 -17.34,5.24 -5.15,3.5 -8.65,8.16 -10.53,13.89 -1.92,5.78 -2.86,16.45 -2.86,32.04l0 63.08 -36.83 0 0 -139.52 34.14 0 0 20.48c12.23,-15.64 27.6,-23.43 46.19,-23.43 8.15,0 15.64,1.47 22.4,4.39 6.81,2.95 11.92,6.67 15.37,11.2 3.49,4.57 5.91,9.72 7.26,15.5 1.39,5.78 2.06,14.02 2.06,24.78l0 86.6z"/>
  <path id="6" class="fil21" d="M3309 1742.4l-34.14 0 0 -20.48c-5.69,7.98 -12.45,13.94 -20.2,17.97 -7.75,3.99 -15.59,6 -23.48,6 -16.08,0 -29.84,-6.45 -41.31,-19.4 -11.42,-12.94 -17.16,-30.95 -17.16,-54.12 0,-23.65 5.56,-41.66 16.71,-53.99 11.16,-12.32 25.23,-18.45 42.25,-18.45 15.59,0 29.12,6.49 40.51,19.44l0 -69.45 36.82 0 0 192.48zm-98.38 -72.45c0,14.92 2.06,25.72 6.13,32.4 5.96,9.67 14.25,14.51 24.91,14.51 8.47,0 15.69,-3.63 21.6,-10.89 5.96,-7.25 8.92,-18.05 8.92,-32.48 0,-16.08 -2.87,-27.64 -8.65,-34.72 -5.78,-7.08 -13.13,-10.62 -22.13,-10.62 -8.74,0 -16.04,3.5 -21.96,10.49 -5.87,6.98 -8.82,17.42 -8.82,31.31z"/>
  <path id="7" class="fil21" d="M3336.64 1670.94c0,-12.28 3,-24.15 9.05,-35.62 6.05,-11.51 14.61,-20.25 25.68,-26.3 11.06,-6.05 23.38,-9.09 37.05,-9.09 21.1,0 38.35,6.85 51.84,20.56 13.48,13.75 20.2,31.05 20.2,52.02 0,21.14 -6.81,38.66 -20.38,52.55 -13.62,13.89 -30.74,20.83 -51.39,20.83 -12.77,0 -24.96,-2.91 -36.56,-8.69 -11.56,-5.78 -20.39,-14.24 -26.44,-25.45 -6.05,-11.15 -9.05,-24.77 -9.05,-40.81zm37.91 1.97c0,13.84 3.27,24.46 9.81,31.81 6.58,7.39 14.65,11.07 24.28,11.07 9.59,0 17.65,-3.68 24.15,-11.07 6.5,-7.35 9.77,-18.06 9.77,-32.08 0,-13.66 -3.27,-24.19 -9.77,-31.54 -6.5,-7.39 -14.56,-11.07 -24.15,-11.07 -9.63,0 -17.7,3.68 -24.28,11.07 -6.54,7.35 -9.81,17.97 -9.81,31.81z"/>
  <path id="8" class="fil21" d="M3611.55 1645.89l-33.33 -5.91c3.76,-13.62 10.26,-23.7 19.45,-30.24 9.18,-6.54 22.85,-9.81 40.95,-9.81 16.44,0 28.71,1.92 36.78,5.82 8.02,3.9 13.71,8.83 16.98,14.83 3.27,6 4.93,16.98 4.93,33.02l-0.54 43.01c0,12.23 0.58,21.28 1.75,27.11 1.16,5.82 3.36,12.05 6.58,18.68l-36.56 0c-0.94,-2.42 -2.15,-6 -3.53,-10.75 -0.59,-2.2 -1.04,-3.63 -1.3,-4.3 -6.28,6.18 -13,10.79 -20.17,13.89 -7.16,3.09 -14.78,4.65 -22.89,4.65 -14.29,0 -25.58,-3.89 -33.83,-11.69 -8.24,-7.75 -12.36,-17.61 -12.36,-29.52 0,-7.84 1.88,-14.88 5.64,-21.06 3.77,-6.14 9.01,-10.89 15.82,-14.16 6.76,-3.27 16.53,-6.14 29.3,-8.6 17.2,-3.23 29.17,-6.27 35.8,-9.05l0 -3.72c0,-7.17 -1.75,-12.28 -5.24,-15.37 -3.54,-3.05 -10.17,-4.57 -19.9,-4.57 -6.58,0 -11.69,1.3 -15.36,3.94 -3.72,2.6 -6.68,7.22 -8.97,13.8zm49.47 29.84c-4.71,1.57 -12.19,3.45 -22.45,5.65 -10.21,2.19 -16.93,4.34 -20.07,6.4 -4.79,3.45 -7.21,7.76 -7.21,13 0,5.19 1.92,9.63 5.78,13.39 3.85,3.77 8.73,5.65 14.69,5.65 6.63,0 12.99,-2.2 19.04,-6.54 4.44,-3.36 7.39,-7.39 8.78,-12.23 0.94,-3.14 1.44,-9.14 1.44,-17.97l0 -7.35z"/>
  <path id="9" class="fil21" d="M3725.04 1670.94c0,-12.28 3,-24.15 9.05,-35.62 6.05,-11.51 14.61,-20.25 25.68,-26.3 11.06,-6.05 23.38,-9.09 37.05,-9.09 21.1,0 38.35,6.85 51.84,20.56 13.48,13.75 20.2,31.05 20.2,52.02 0,21.14 -6.81,38.66 -20.38,52.55 -13.62,13.89 -30.74,20.83 -51.39,20.83 -12.77,0 -24.96,-2.91 -36.56,-8.69 -11.56,-5.78 -20.39,-14.24 -26.44,-25.45 -6.05,-11.15 -9.05,-24.77 -9.05,-40.81zm37.91 1.97c0,13.84 3.27,24.46 9.81,31.81 6.58,7.39 14.65,11.07 24.28,11.07 9.59,0 17.65,-3.68 24.15,-11.07 6.5,-7.35 9.77,-18.06 9.77,-32.08 0,-13.66 -3.27,-24.19 -9.77,-31.54 -6.5,-7.39 -14.56,-11.07 -24.15,-11.07 -9.63,0 -17.7,3.68 -24.28,11.07 -6.54,7.35 -9.81,17.97 -9.81,31.81z"/>
  <path id="10" class="fil21" d="M4099.42 1742.4l-36.83 0 0 -71.1c0,-15.06 -0.81,-24.78 -2.37,-29.17 -1.62,-4.44 -4.17,-7.84 -7.76,-10.3 -3.58,-2.47 -7.88,-3.68 -12.9,-3.68 -6.45,0 -12.23,1.75 -17.34,5.24 -5.15,3.5 -8.65,8.16 -10.53,13.89 -1.92,5.78 -2.86,16.45 -2.86,32.04l0 63.08 -36.83 0 0 -139.52 34.14 0 0 20.48c12.23,-15.64 27.6,-23.43 46.19,-23.43 8.15,0 15.64,1.47 22.4,4.39 6.81,2.95 11.92,6.67 15.37,11.2 3.49,4.57 5.91,9.72 7.26,15.5 1.39,5.78 2.06,14.02 2.06,24.78l0 86.6z"/>
  <path id="11" class="fil21" d="M4128.13 1670.94c0,-12.28 3,-24.15 9.05,-35.62 6.05,-11.51 14.61,-20.25 25.68,-26.3 11.06,-6.05 23.38,-9.09 37.05,-9.09 21.1,0 38.35,6.85 51.84,20.56 13.48,13.75 20.2,31.05 20.2,52.02 0,21.14 -6.81,38.66 -20.38,52.55 -13.62,13.89 -30.74,20.83 -51.39,20.83 -12.77,0 -24.96,-2.91 -36.56,-8.69 -11.56,-5.78 -20.39,-14.24 -26.44,-25.45 -6.05,-11.15 -9.05,-24.77 -9.05,-40.81zm37.91 1.97c0,13.84 3.27,24.46 9.81,31.81 6.58,7.39 14.65,11.07 24.28,11.07 9.59,0 17.65,-3.68 24.15,-11.07 6.5,-7.35 9.77,-18.06 9.77,-32.08 0,-13.66 -3.27,-24.19 -9.77,-31.54 -6.5,-7.39 -14.56,-11.07 -24.15,-11.07 -9.63,0 -17.7,3.68 -24.28,11.07 -6.54,7.35 -9.81,17.97 -9.81,31.81z"/>
  <path id="12" class="fil21" d="M4287.76 1703.15l37.1 -5.64c1.57,7.12 4.75,12.54 9.59,16.22 4.79,3.71 11.56,5.55 20.2,5.55 9.55,0 16.72,-1.75 21.55,-5.24 3.23,-2.46 4.84,-5.78 4.84,-9.9 0,-2.78 -0.89,-5.11 -2.64,-6.95 -1.84,-1.74 -5.96,-3.4 -12.32,-4.88 -29.8,-6.59 -48.66,-12.59 -56.63,-18.01 -11.07,-7.57 -16.58,-18.06 -16.58,-31.45 0,-12.14 4.79,-22.32 14.34,-30.56 9.54,-8.24 24.33,-12.36 44.35,-12.36 19.09,0 33.29,3.13 42.57,9.36 9.27,6.27 15.68,15.5 19.17,27.73l-34.68 6.45c-1.47,-5.46 -4.34,-9.67 -8.51,-12.59 -4.17,-2.91 -10.12,-4.34 -17.88,-4.34 -9.76,0 -16.75,1.34 -21.01,4.08 -2.82,1.92 -4.21,4.43 -4.21,7.48 0,2.64 1.21,4.88 3.67,6.72 3.36,2.46 14.88,5.91 34.59,10.39 19.72,4.48 33.47,9.95 41.27,16.45 7.75,6.54 11.6,15.72 11.6,27.46 0,12.77 -5.33,23.79 -16.04,32.98 -10.66,9.18 -26.48,13.79 -47.45,13.79 -18.99,0 -34.05,-3.85 -45.16,-11.51 -11.06,-7.66 -18.32,-18.06 -21.73,-31.23z"/>
  <path id="13" class="fil21" d="M4437.27 1703.15l37.1 -5.64c1.57,7.12 4.75,12.54 9.59,16.22 4.79,3.71 11.56,5.55 20.2,5.55 9.55,0 16.72,-1.75 21.55,-5.24 3.23,-2.46 4.84,-5.78 4.84,-9.9 0,-2.78 -0.89,-5.11 -2.64,-6.95 -1.84,-1.74 -5.96,-3.4 -12.32,-4.88 -29.8,-6.59 -48.66,-12.59 -56.63,-18.01 -11.07,-7.57 -16.58,-18.06 -16.58,-31.45 0,-12.14 4.79,-22.32 14.34,-30.56 9.54,-8.24 24.33,-12.36 44.35,-12.36 19.09,0 33.29,3.13 42.57,9.36 9.27,6.27 15.68,15.5 19.17,27.73l-34.68 6.45c-1.47,-5.46 -4.34,-9.67 -8.51,-12.59 -4.17,-2.91 -10.12,-4.34 -17.88,-4.34 -9.76,0 -16.75,1.34 -21.01,4.08 -2.82,1.92 -4.21,4.43 -4.21,7.48 0,2.64 1.21,4.88 3.67,6.72 3.36,2.46 14.88,5.91 34.59,10.39 19.72,4.48 33.47,9.95 41.27,16.45 7.75,6.54 11.6,15.72 11.6,27.46 0,12.77 -5.33,23.79 -16.04,32.98 -10.66,9.18 -26.48,13.79 -47.45,13.79 -18.99,0 -34.05,-3.85 -45.16,-11.51 -11.06,-7.66 -18.32,-18.06 -21.73,-31.23z"/>
  <path id="14" class="fil21" d="M4591.35 1670.94c0,-12.28 3,-24.15 9.05,-35.62 6.05,-11.51 14.61,-20.25 25.68,-26.3 11.06,-6.05 23.38,-9.09 37.05,-9.09 21.1,0 38.35,6.85 51.84,20.56 13.48,13.75 20.2,31.05 20.2,52.02 0,21.14 -6.81,38.66 -20.38,52.55 -13.62,13.89 -30.74,20.83 -51.39,20.83 -12.77,0 -24.96,-2.91 -36.56,-8.69 -11.56,-5.78 -20.39,-14.24 -26.44,-25.45 -6.05,-11.15 -9.05,-24.77 -9.05,-40.81zm37.91 1.97c0,13.84 3.27,24.46 9.81,31.81 6.58,7.39 14.65,11.07 24.28,11.07 9.59,0 17.65,-3.68 24.15,-11.07 6.5,-7.35 9.77,-18.06 9.77,-32.08 0,-13.66 -3.27,-24.19 -9.77,-31.54 -6.5,-7.39 -14.56,-11.07 -24.15,-11.07 -9.63,0 -17.7,3.68 -24.28,11.07 -6.54,7.35 -9.81,17.97 -9.81,31.81z"/>
  <path id="15" class="fil21" d="M4828.9 1680.03l37.9 -3.76c2.29,12.68 6.86,21.95 13.8,27.91 6.95,5.96 16.31,8.92 28.09,8.92 12.46,0 21.87,-2.64 28.18,-7.93 6.32,-5.29 9.5,-11.47 9.5,-18.55 0,-4.57 -1.34,-8.42 -3.98,-11.65 -2.65,-3.18 -7.31,-5.96 -13.94,-8.29 -4.52,-1.61 -14.83,-4.39 -30.96,-8.42 -20.74,-5.2 -35.3,-11.56 -43.68,-19.13 -11.78,-10.62 -17.65,-23.57 -17.65,-38.85 0,-9.81 2.77,-19.04 8.29,-27.6 5.55,-8.55 13.53,-15.05 23.97,-19.53 10.43,-4.48 22.98,-6.72 37.76,-6.72 24.06,0 42.21,5.33 54.35,16.04 12.19,10.71 18.55,24.96 19.18,42.83l-38.98 1.35c-1.66,-9.95 -5.2,-17.07 -10.62,-21.42 -5.42,-4.35 -13.58,-6.54 -24.42,-6.54 -11.2,0 -19.98,2.33 -26.3,6.99 -4.08,3 -6.14,6.99 -6.14,12.01 0,4.57 1.93,8.46 5.78,11.69 4.89,4.17 16.76,8.47 35.62,12.95 18.86,4.43 32.8,9.09 41.8,13.84 9.05,4.8 16.13,11.29 21.24,19.58 5.11,8.29 7.66,18.5 7.66,30.65 0,11.02 -3.04,21.37 -9.18,31 -6.14,9.63 -14.79,16.8 -25.99,21.46 -11.2,4.7 -25.18,7.03 -41.89,7.03 -24.33,0 -43.01,-5.6 -56.05,-16.84 -13.04,-11.2 -20.79,-27.56 -23.34,-49.02z"/>
  <path id="16" class="fil21" d="M5018.15 1584.07l0 -34.15 36.82 0 0 34.15 -36.82 0zm0 158.33l0 -139.52 36.82 0 0 139.52 -36.82 0z"/>
  <path id="17" class="fil21" d="M5156.55 1602.88l0 29.3 -25.27 0 0 56.5c0,11.47 0.22,18.15 0.71,20.03 0.5,1.88 1.57,3.45 3.32,4.7 1.7,1.21 3.76,1.84 6.23,1.84 3.45,0 8.37,-1.17 14.87,-3.54l3.09 28.67c-8.56,3.68 -18.23,5.51 -29.07,5.51 -6.64,0 -12.59,-1.12 -17.93,-3.36 -5.33,-2.24 -9.23,-5.15 -11.69,-8.69 -2.51,-3.58 -4.21,-8.38 -5.2,-14.47 -0.76,-4.3 -1.16,-12.99 -1.16,-26.12l0 -61.07 -16.94 0 0 -29.3 16.94 0 0 -27.69 36.83 -21.77 0 49.46 25.27 0z"/>
  <path id="18" class="fil21" d="M5263 1698.31l36.83 6.19c-4.7,13.48 -12.19,23.74 -22.36,30.82 -10.21,7.04 -22.98,10.57 -38.26,10.57 -24.24,0 -42.2,-7.93 -53.81,-23.79 -9.18,-12.72 -13.8,-28.76 -13.8,-48.16 0,-23.12 6.05,-41.26 18.1,-54.35 12.05,-13.12 27.33,-19.66 45.79,-19.66 20.7,0 37.05,6.85 49.06,20.56 11.96,13.71 17.7,34.72 17.16,63.04l-92.2 0c0.26,10.93 3.22,19.44 8.91,25.54 5.65,6.09 12.73,9.14 21.15,9.14 5.78,0 10.62,-1.57 14.52,-4.71 3.94,-3.13 6.89,-8.2 8.91,-15.19zm2.15 -37.36c-0.27,-10.71 -3,-18.86 -8.24,-24.42 -5.24,-5.6 -11.61,-8.38 -19.13,-8.38 -8.02,0 -14.65,2.96 -19.9,8.83 -5.24,5.87 -7.79,13.89 -7.7,23.97l54.97 0z"/>
  <path id="19" class="fil21" d="M5346.11 1692.94l-9.54 -97.81 0 -45.21 39.78 0 0 45.21 -9.4 97.81 -20.84 0zm-7.93 49.46l0 -36.83 36.83 0 0 36.83 -36.83 0z"/>
  <polygon class="fil22" points="2710.66,1965.67 2710.66,1864.64 2785.45,1864.64 2785.45,1881.71 2731.12,1881.71 2731.12,1904.15 2781.64,1904.15 2781.64,1921.22 2731.12,1921.22 2731.12,1948.6 2787.42,1948.6 2787.42,1965.67 "/>
  <path id="1" class="fil22" d="M2797.73 1945.07l19.47 -2.97c0.82,3.74 2.49,6.59 5.03,8.52 2.52,1.95 6.07,2.91 10.61,2.91 5.01,0 8.77,-0.91 11.31,-2.75 1.69,-1.29 2.54,-3.03 2.54,-5.19 0,-1.46 -0.47,-2.69 -1.39,-3.65 -0.96,-0.92 -3.12,-1.79 -6.46,-2.56 -15.64,-3.46 -25.55,-6.61 -29.73,-9.46 -5.81,-3.97 -8.7,-9.48 -8.7,-16.51 0,-6.37 2.51,-11.71 7.52,-16.04 5.01,-4.32 12.77,-6.49 23.29,-6.49 10.01,0 17.47,1.65 22.34,4.92 4.87,3.29 8.23,8.13 10.06,14.55l-18.2 3.39c-0.78,-2.87 -2.28,-5.08 -4.47,-6.61 -2.18,-1.53 -5.31,-2.28 -9.38,-2.28 -5.13,0 -8.8,0.71 -11.03,2.14 -1.48,1.01 -2.21,2.33 -2.21,3.93 0,1.39 0.63,2.56 1.93,3.53 1.76,1.29 7.8,3.1 18.15,5.45 10.35,2.36 17.57,5.22 21.66,8.63 4.07,3.44 6.09,8.26 6.09,14.42 0,6.7 -2.79,12.49 -8.42,17.31 -5.59,4.82 -13.9,7.24 -24.9,7.24 -9.97,0 -17.88,-2.02 -23.71,-6.04 -5.81,-4.02 -9.62,-9.48 -11.4,-16.39z"/>
  <path id="2" class="fil22" d="M2916.56 1892.43l0 15.38 -13.26 0 0 29.66c0,6.02 0.12,9.53 0.37,10.51 0.26,0.99 0.83,1.82 1.75,2.47 0.89,0.64 1.97,0.97 3.26,0.97 1.82,0 4.4,-0.61 7.81,-1.86l1.63 15.05c-4.5,1.93 -9.58,2.89 -15.27,2.89 -3.48,0 -6.61,-0.58 -9.41,-1.76 -2.79,-1.18 -4.84,-2.7 -6.13,-4.56 -1.32,-1.88 -2.21,-4.4 -2.73,-7.6 -0.4,-2.26 -0.61,-6.82 -0.61,-13.71l0 -32.06 -8.89 0 0 -15.38 8.89 0 0 -14.53 19.33 -11.43 0 25.96 13.26 0z"/>
  <path id="3" class="fil22" d="M2944.5 1915.01l-17.49 -3.1c1.97,-7.15 5.38,-12.44 10.2,-15.88 4.82,-3.43 12,-5.15 21.5,-5.15 8.63,0 15.07,1.01 19.31,3.06 4.21,2.05 7.19,4.63 8.91,7.78 1.72,3.16 2.59,8.92 2.59,17.34l-0.28 22.57c0,6.42 0.3,11.18 0.91,14.23 0.61,3.06 1.77,6.33 3.46,9.81l-19.19 0c-0.5,-1.27 -1.13,-3.15 -1.86,-5.64 -0.31,-1.16 -0.54,-1.91 -0.68,-2.26 -3.29,3.24 -6.82,5.67 -10.58,7.29 -3.77,1.62 -7.77,2.44 -12.02,2.44 -7.5,0 -13.43,-2.04 -17.76,-6.13 -4.33,-4.07 -6.49,-9.25 -6.49,-15.5 0,-4.12 0.99,-7.81 2.96,-11.06 1.98,-3.22 4.73,-5.71 8.31,-7.43 3.55,-1.71 8.67,-3.22 15.38,-4.51 9.03,-1.7 15.31,-3.3 18.79,-4.75l0 -1.96c0,-3.76 -0.92,-6.44 -2.75,-8.06 -1.86,-1.6 -5.34,-2.4 -10.45,-2.4 -3.45,0 -6.13,0.68 -8.06,2.07 -1.96,1.36 -3.51,3.78 -4.71,7.24zm25.97 15.66c-2.47,0.83 -6.4,1.82 -11.79,2.97 -5.36,1.15 -8.89,2.28 -10.53,3.36 -2.52,1.81 -3.79,4.07 -3.79,6.82 0,2.73 1.01,5.06 3.04,7.03 2.02,1.98 4.58,2.97 7.71,2.97 3.48,0 6.82,-1.16 10,-3.44 2.32,-1.76 3.88,-3.88 4.6,-6.42 0.5,-1.64 0.76,-4.8 0.76,-9.43l0 -3.86z"/>
  <path id="4" class="fil22" d="M3007.18 1892.43l17.78 0 0 10c6.37,-7.69 13.97,-11.55 22.79,-11.55 4.68,0 8.75,0.97 12.18,2.89 3.46,1.93 6.28,4.85 8.47,8.75 3.22,-3.9 6.7,-6.82 10.42,-8.75 3.71,-1.92 7.69,-2.89 11.92,-2.89 5.36,0 9.9,1.08 13.64,3.27 3.72,2.19 6.49,5.39 8.33,9.62 1.34,3.1 1.99,8.16 1.99,15.15l0 46.75 -19.33 0 0 -41.79c0,-7.27 -0.66,-11.95 -2,-14.04 -1.78,-2.75 -4.56,-4.14 -8.27,-4.14 -2.71,0 -5.27,0.82 -7.67,2.47 -2.38,1.67 -4.12,4.09 -5.18,7.26 -1.05,3.2 -1.57,8.24 -1.57,15.13l0 35.11 -19.33 0 0 -40.08c0,-7.1 -0.36,-11.71 -1.04,-13.75 -0.68,-2.07 -1.74,-3.63 -3.2,-4.64 -1.43,-1.01 -3.41,-1.5 -5.88,-1.5 -2.98,0 -5.66,0.8 -8.04,2.4 -2.4,1.62 -4.09,3.92 -5.13,6.96 -1.03,3.03 -1.55,8.07 -1.55,15.07l0 35.54 -19.33 0 0 -73.24z"/>
  <path id="5" class="fil22" d="M3129.54 1928.16c0,-6.45 1.58,-12.68 4.76,-18.7 3.17,-6.04 7.66,-10.63 13.47,-13.8 5.81,-3.18 12.28,-4.78 19.45,-4.78 11.08,0 20.13,3.6 27.21,10.8 7.08,7.22 10.61,16.29 10.61,27.3 0,11.1 -3.58,20.3 -10.7,27.59 -7.15,7.29 -16.14,10.93 -26.98,10.93 -6.7,0 -13.1,-1.52 -19.19,-4.56 -6.07,-3.03 -10.7,-7.48 -13.87,-13.36 -3.18,-5.85 -4.76,-13 -4.76,-21.42zm19.9 1.03c0,7.27 1.72,12.84 5.15,16.7 3.46,3.88 7.69,5.81 12.75,5.81 5.03,0 9.26,-1.93 12.67,-5.81 3.41,-3.86 5.13,-9.48 5.13,-16.84 0,-7.17 -1.72,-12.7 -5.13,-16.55 -3.41,-3.89 -7.64,-5.81 -12.67,-5.81 -5.06,0 -9.29,1.92 -12.75,5.81 -3.43,3.85 -5.15,9.43 -5.15,16.69z"/>
  <path id="6" class="fil22" d="M3213.34 1945.07l19.47 -2.97c0.82,3.74 2.49,6.59 5.03,8.52 2.52,1.95 6.07,2.91 10.61,2.91 5.01,0 8.77,-0.91 11.31,-2.75 1.69,-1.29 2.54,-3.03 2.54,-5.19 0,-1.46 -0.47,-2.69 -1.39,-3.65 -0.96,-0.92 -3.12,-1.79 -6.46,-2.56 -15.64,-3.46 -25.55,-6.61 -29.73,-9.46 -5.81,-3.97 -8.7,-9.48 -8.7,-16.51 0,-6.37 2.51,-11.71 7.52,-16.04 5.01,-4.32 12.77,-6.49 23.29,-6.49 10.01,0 17.47,1.65 22.34,4.92 4.87,3.29 8.23,8.13 10.06,14.55l-18.2 3.39c-0.78,-2.87 -2.28,-5.08 -4.47,-6.61 -2.18,-1.53 -5.31,-2.28 -9.38,-2.28 -5.13,0 -8.8,0.71 -11.03,2.14 -1.48,1.01 -2.21,2.33 -2.21,3.93 0,1.39 0.63,2.56 1.93,3.53 1.76,1.29 7.8,3.1 18.15,5.45 10.35,2.36 17.57,5.22 21.66,8.63 4.07,3.44 6.09,8.26 6.09,14.42 0,6.7 -2.79,12.49 -8.42,17.31 -5.59,4.82 -13.9,7.24 -24.9,7.24 -9.97,0 -17.88,-2.02 -23.71,-6.04 -5.81,-4.02 -9.62,-9.48 -11.4,-16.39z"/>
  <path id="7" class="fil22" d="M3333.42 1928.16c0,-6.45 1.58,-12.68 4.76,-18.7 3.17,-6.04 7.66,-10.63 13.47,-13.8 5.81,-3.18 12.28,-4.78 19.45,-4.78 11.08,0 20.13,3.6 27.21,10.8 7.08,7.22 10.61,16.29 10.61,27.3 0,11.1 -3.58,20.3 -10.7,27.59 -7.15,7.29 -16.14,10.93 -26.98,10.93 -6.7,0 -13.1,-1.52 -19.19,-4.56 -6.07,-3.03 -10.7,-7.48 -13.87,-13.36 -3.18,-5.85 -4.76,-13 -4.76,-21.42zm19.9 1.03c0,7.27 1.72,12.84 5.15,16.7 3.46,3.88 7.69,5.81 12.75,5.81 5.03,0 9.26,-1.93 12.67,-5.81 3.41,-3.86 5.13,-9.48 5.13,-16.84 0,-7.17 -1.72,-12.7 -5.13,-16.55 -3.41,-3.89 -7.64,-5.81 -12.67,-5.81 -5.06,0 -9.29,1.92 -12.75,5.81 -3.43,3.85 -5.15,9.43 -5.15,16.69z"/>
  <path id="8" class="fil22" d="M3490.73 1965.67l-19.33 0 0 -37.32c0,-7.91 -0.42,-13.01 -1.24,-15.31 -0.85,-2.33 -2.19,-4.12 -4.07,-5.41 -1.88,-1.3 -4.14,-1.93 -6.78,-1.93 -3.38,0 -6.42,0.92 -9.1,2.75 -2.7,1.83 -4.54,4.28 -5.53,7.29 -1.01,3.03 -1.5,8.63 -1.5,16.82l0 33.11 -19.33 0 0 -73.24 17.92 0 0 10.75c6.42,-8.21 14.49,-12.3 24.25,-12.3 4.28,0 8.2,0.78 11.76,2.31 3.57,1.55 6.25,3.5 8.06,5.88 1.84,2.39 3.11,5.1 3.81,8.13 0.73,3.04 1.08,7.36 1.08,13.01l0 45.46z"/>
  <polygon id="9" class="fil22" points="3510.32,1965.67 3510.32,1864.64 3529.65,1864.64 3529.65,1965.67 "/>
  <path id="10" class="fil22" d="M3549.53 1882.56l0 -17.92 19.33 0 0 17.92 -19.33 0zm0 83.11l0 -73.24 19.33 0 0 73.24 -19.33 0z"/>
  <path id="11" class="fil22" d="M3655.34 1965.67l-19.33 0 0 -37.32c0,-7.91 -0.42,-13.01 -1.24,-15.31 -0.85,-2.33 -2.19,-4.12 -4.07,-5.41 -1.88,-1.3 -4.14,-1.93 -6.78,-1.93 -3.38,0 -6.42,0.92 -9.1,2.75 -2.7,1.83 -4.54,4.28 -5.53,7.29 -1.01,3.03 -1.5,8.63 -1.5,16.82l0 33.11 -19.33 0 0 -73.24 17.92 0 0 10.75c6.42,-8.21 14.49,-12.3 24.25,-12.3 4.28,0 8.2,0.78 11.76,2.31 3.57,1.55 6.25,3.5 8.06,5.88 1.84,2.39 3.11,5.1 3.81,8.13 0.73,3.04 1.08,7.36 1.08,13.01l0 45.46z"/>
  <path id="12" class="fil22" d="M3717.26 1942.53l19.33 3.24c-2.46,7.08 -6.39,12.47 -11.73,16.18 -5.36,3.7 -12.07,5.55 -20.09,5.55 -12.72,0 -22.15,-4.16 -28.24,-12.48 -4.82,-6.68 -7.24,-15.1 -7.24,-25.29 0,-12.13 3.17,-21.66 9.5,-28.52 6.32,-6.89 14.34,-10.33 24.03,-10.33 10.87,0 19.45,3.6 25.76,10.8 6.27,7.19 9.28,18.22 9,33.09l-48.4 0c0.14,5.74 1.7,10.2 4.68,13.4 2.97,3.2 6.68,4.8 11.1,4.8 3.04,0 5.58,-0.82 7.62,-2.47 2.07,-1.65 3.62,-4.3 4.68,-7.97zm1.13 -19.62c-0.14,-5.62 -1.57,-9.9 -4.33,-12.81 -2.75,-2.94 -6.09,-4.4 -10.04,-4.4 -4.21,0 -7.69,1.55 -10.44,4.63 -2.75,3.08 -4.09,7.29 -4.05,12.58l28.86 0z"/>
  <path id="13" class="fil22" d="M3792.06 1892.43l18.06 0 0 10.75c2.35,-3.67 5.5,-6.63 9.5,-8.91 4,-2.26 8.44,-3.39 13.31,-3.39 8.49,0 15.71,3.34 21.64,10.02 5.92,6.66 8.89,15.97 8.89,27.87 0,12.25 -2.99,21.75 -8.96,28.55 -5.98,6.8 -13.22,10.18 -21.73,10.18 -4.05,0 -7.72,-0.8 -11.01,-2.42 -3.27,-1.6 -6.75,-4.35 -10.37,-8.25l0 36.64 -19.33 0 0 -101.04zm19.05 35.49c0,8.26 1.62,14.35 4.89,18.3 3.24,3.93 7.22,5.9 11.87,5.9 4.5,0 8.24,-1.81 11.22,-5.43 2.99,-3.62 4.47,-9.55 4.47,-17.8 0,-7.72 -1.53,-13.43 -4.61,-17.17 -3.06,-3.74 -6.87,-5.6 -11.41,-5.6 -4.72,0 -8.65,1.84 -11.75,5.5 -3.13,3.67 -4.68,9.11 -4.68,16.3z"/>
  <path id="14" class="fil22" d="M3893.2 1915.01l-17.49 -3.1c1.97,-7.15 5.38,-12.44 10.2,-15.88 4.82,-3.43 12,-5.15 21.5,-5.15 8.63,0 15.07,1.01 19.31,3.06 4.21,2.05 7.19,4.63 8.91,7.78 1.72,3.16 2.59,8.92 2.59,17.34l-0.28 22.57c0,6.42 0.3,11.18 0.91,14.23 0.61,3.06 1.77,6.33 3.46,9.81l-19.19 0c-0.5,-1.27 -1.13,-3.15 -1.86,-5.64 -0.31,-1.16 -0.54,-1.91 -0.68,-2.26 -3.29,3.24 -6.82,5.67 -10.58,7.29 -3.77,1.62 -7.77,2.44 -12.02,2.44 -7.5,0 -13.43,-2.04 -17.76,-6.13 -4.33,-4.07 -6.49,-9.25 -6.49,-15.5 0,-4.12 0.99,-7.81 2.96,-11.06 1.98,-3.22 4.73,-5.71 8.31,-7.43 3.55,-1.71 8.67,-3.22 15.38,-4.51 9.03,-1.7 15.31,-3.3 18.79,-4.75l0 -1.96c0,-3.76 -0.92,-6.44 -2.75,-8.06 -1.86,-1.6 -5.34,-2.4 -10.45,-2.4 -3.45,0 -6.13,0.68 -8.06,2.07 -1.96,1.36 -3.51,3.78 -4.71,7.24zm25.97 15.66c-2.47,0.83 -6.4,1.82 -11.79,2.97 -5.36,1.15 -8.89,2.28 -10.53,3.36 -2.52,1.81 -3.79,4.07 -3.79,6.82 0,2.73 1.01,5.06 3.04,7.03 2.02,1.98 4.58,2.97 7.71,2.97 3.48,0 6.82,-1.16 10,-3.44 2.32,-1.76 3.88,-3.88 4.6,-6.42 0.5,-1.64 0.76,-4.8 0.76,-9.43l0 -3.86z"/>
  <path id="15" class="fil22" d="M3975.78 1965.67l-19.34 0 0 -73.24 17.92 0 0 10.4c3.09,-4.92 5.86,-8.14 8.33,-9.67 2.47,-1.53 5.27,-2.28 8.4,-2.28 4.42,0 8.67,1.22 12.77,3.65l-6 16.88c-3.27,-2.11 -6.3,-3.17 -9.1,-3.17 -2.73,0 -5.04,0.75 -6.92,2.23 -1.88,1.51 -3.36,4.19 -4.44,8.09 -1.08,3.91 -1.62,12.09 -1.62,24.53l0 22.58z"/>
  <path id="16" class="fil22" d="M4026.6 1915.01l-17.49 -3.1c1.97,-7.15 5.38,-12.44 10.2,-15.88 4.82,-3.43 12,-5.15 21.5,-5.15 8.63,0 15.07,1.01 19.31,3.06 4.21,2.05 7.19,4.63 8.91,7.78 1.72,3.16 2.59,8.92 2.59,17.34l-0.28 22.57c0,6.42 0.3,11.18 0.91,14.23 0.61,3.06 1.77,6.33 3.46,9.81l-19.19 0c-0.5,-1.27 -1.13,-3.15 -1.86,-5.64 -0.31,-1.16 -0.54,-1.91 -0.68,-2.26 -3.29,3.24 -6.82,5.67 -10.58,7.29 -3.77,1.62 -7.77,2.44 -12.02,2.44 -7.5,0 -13.43,-2.04 -17.76,-6.13 -4.33,-4.07 -6.49,-9.25 -6.49,-15.5 0,-4.12 0.99,-7.81 2.96,-11.06 1.98,-3.22 4.73,-5.71 8.31,-7.43 3.55,-1.71 8.67,-3.22 15.38,-4.51 9.03,-1.7 15.31,-3.3 18.79,-4.75l0 -1.96c0,-3.76 -0.92,-6.44 -2.75,-8.06 -1.86,-1.6 -5.34,-2.4 -10.45,-2.4 -3.45,0 -6.13,0.68 -8.06,2.07 -1.96,1.36 -3.51,3.78 -4.71,7.24zm25.97 15.66c-2.47,0.83 -6.4,1.82 -11.79,2.97 -5.36,1.15 -8.89,2.28 -10.53,3.36 -2.52,1.81 -3.79,4.07 -3.79,6.82 0,2.73 1.01,5.06 3.04,7.03 2.02,1.98 4.58,2.97 7.71,2.97 3.48,0 6.82,-1.16 10,-3.44 2.32,-1.76 3.88,-3.88 4.6,-6.42 0.5,-1.64 0.76,-4.8 0.76,-9.43l0 -3.86z"/>
  <path id="17" class="fil22" d="M4144.29 1915.01l-17.49 -3.1c1.97,-7.15 5.38,-12.44 10.2,-15.88 4.82,-3.43 12,-5.15 21.5,-5.15 8.63,0 15.07,1.01 19.31,3.06 4.21,2.05 7.19,4.63 8.91,7.78 1.72,3.16 2.59,8.92 2.59,17.34l-0.28 22.57c0,6.42 0.3,11.18 0.91,14.23 0.61,3.06 1.77,6.33 3.46,9.81l-19.19 0c-0.5,-1.27 -1.13,-3.15 -1.86,-5.64 -0.31,-1.16 -0.54,-1.91 -0.68,-2.26 -3.29,3.24 -6.82,5.67 -10.58,7.29 -3.77,1.62 -7.77,2.44 -12.02,2.44 -7.5,0 -13.43,-2.04 -17.76,-6.13 -4.33,-4.07 -6.49,-9.25 -6.49,-15.5 0,-4.12 0.99,-7.81 2.96,-11.06 1.98,-3.22 4.73,-5.71 8.31,-7.43 3.55,-1.71 8.67,-3.22 15.38,-4.51 9.03,-1.7 15.31,-3.3 18.79,-4.75l0 -1.96c0,-3.76 -0.92,-6.44 -2.75,-8.06 -1.86,-1.6 -5.34,-2.4 -10.45,-2.4 -3.45,0 -6.13,0.68 -8.06,2.07 -1.96,1.36 -3.51,3.78 -4.71,7.24zm25.97 15.66c-2.47,0.83 -6.4,1.82 -11.79,2.97 -5.36,1.15 -8.89,2.28 -10.53,3.36 -2.52,1.81 -3.79,4.07 -3.79,6.82 0,2.73 1.01,5.06 3.04,7.03 2.02,1.98 4.58,2.97 7.71,2.97 3.48,0 6.82,-1.16 10,-3.44 2.32,-1.76 3.88,-3.88 4.6,-6.42 0.5,-1.64 0.76,-4.8 0.76,-9.43l0 -3.86z"/>
  <path id="18" class="fil22" d="M4241.82 1892.43l0 15.38 -13.26 0 0 29.66c0,6.02 0.12,9.53 0.37,10.51 0.26,0.99 0.83,1.82 1.75,2.47 0.89,0.64 1.97,0.97 3.26,0.97 1.82,0 4.4,-0.61 7.81,-1.86l1.63 15.05c-4.5,1.93 -9.58,2.89 -15.27,2.89 -3.48,0 -6.61,-0.58 -9.41,-1.76 -2.79,-1.18 -4.84,-2.7 -6.13,-4.56 -1.32,-1.88 -2.21,-4.4 -2.73,-7.6 -0.4,-2.26 -0.61,-6.82 -0.61,-13.71l0 -32.06 -8.89 0 0 -15.38 8.89 0 0 -14.53 19.33 -11.43 0 25.96 13.26 0z"/>
  <path id="19" class="fil22" d="M4297.7 1942.53l19.33 3.24c-2.46,7.08 -6.39,12.47 -11.73,16.18 -5.36,3.7 -12.07,5.55 -20.09,5.55 -12.72,0 -22.15,-4.16 -28.24,-12.48 -4.82,-6.68 -7.24,-15.1 -7.24,-25.29 0,-12.13 3.17,-21.66 9.5,-28.52 6.32,-6.89 14.34,-10.33 24.03,-10.33 10.87,0 19.45,3.6 25.76,10.8 6.27,7.19 9.28,18.22 9,33.09l-48.4 0c0.14,5.74 1.7,10.2 4.68,13.4 2.97,3.2 6.68,4.8 11.1,4.8 3.04,0 5.58,-0.82 7.62,-2.47 2.07,-1.65 3.62,-4.3 4.68,-7.97zm1.13 -19.62c-0.14,-5.62 -1.57,-9.9 -4.33,-12.81 -2.75,-2.94 -6.09,-4.4 -10.04,-4.4 -4.21,0 -7.69,1.55 -10.44,4.63 -2.75,3.08 -4.09,7.29 -4.05,12.58l28.86 0z"/>
  <path id="20" class="fil22" d="M4400.45 1965.67l-19.33 0 0 -37.32c0,-7.91 -0.42,-13.01 -1.24,-15.31 -0.85,-2.33 -2.19,-4.12 -4.07,-5.41 -1.88,-1.3 -4.14,-1.93 -6.78,-1.93 -3.38,0 -6.42,0.92 -9.1,2.75 -2.7,1.83 -4.54,4.28 -5.53,7.29 -1.01,3.03 -1.5,8.63 -1.5,16.82l0 33.11 -19.33 0 0 -73.24 17.92 0 0 10.75c6.42,-8.21 14.49,-12.3 24.25,-12.3 4.28,0 8.2,0.78 11.76,2.31 3.57,1.55 6.25,3.5 8.06,5.88 1.84,2.39 3.11,5.1 3.81,8.13 0.73,3.04 1.08,7.36 1.08,13.01l0 45.46z"/>
  <path id="21" class="fil22" d="M4487.21 1965.67l-17.92 0 0 -10.75c-2.99,4.19 -6.54,7.32 -10.61,9.43 -4.07,2.1 -8.18,3.15 -12.32,3.15 -8.45,0 -15.67,-3.38 -21.69,-10.18 -5.99,-6.8 -9,-16.25 -9,-28.41 0,-12.42 2.91,-21.87 8.77,-28.34 5.85,-6.47 13.24,-9.69 22.18,-9.69 8.18,0 15.28,3.41 21.26,10.21l0 -36.45 19.33 0 0 101.03zm-51.65 -38.03c0,7.83 1.08,13.5 3.22,17 3.13,5.08 7.48,7.62 13.08,7.62 4.45,0 8.23,-1.9 11.34,-5.71 3.12,-3.81 4.68,-9.48 4.68,-17.05 0,-8.44 -1.51,-14.51 -4.54,-18.23 -3.04,-3.71 -6.89,-5.57 -11.62,-5.57 -4.59,0 -8.42,1.83 -11.52,5.5 -3.09,3.67 -4.64,9.15 -4.64,16.44z"/>
  <path id="22" class="fil22" d="M4548.56 1942.53l19.33 3.24c-2.46,7.08 -6.39,12.47 -11.73,16.18 -5.36,3.7 -12.07,5.55 -20.09,5.55 -12.72,0 -22.15,-4.16 -28.24,-12.48 -4.82,-6.68 -7.24,-15.1 -7.24,-25.29 0,-12.13 3.17,-21.66 9.5,-28.52 6.32,-6.89 14.34,-10.33 24.03,-10.33 10.87,0 19.45,3.6 25.76,10.8 6.27,7.19 9.28,18.22 9,33.09l-48.4 0c0.14,5.74 1.7,10.2 4.68,13.4 2.97,3.2 6.68,4.8 11.1,4.8 3.04,0 5.58,-0.82 7.62,-2.47 2.07,-1.65 3.62,-4.3 4.68,-7.97zm1.13 -19.62c-0.14,-5.62 -1.57,-9.9 -4.33,-12.81 -2.75,-2.94 -6.09,-4.4 -10.04,-4.4 -4.21,0 -7.69,1.55 -10.44,4.63 -2.75,3.08 -4.09,7.29 -4.05,12.58l28.86 0zm-38.52 -39.93l14.46 -20.32 17.83 0 14.28 20.32 -15.53 0 -7.97 -10.3 -7.41 10.3 -15.66 0z"/>
  <polygon id="23" class="fil22" points="4582.45,1938.72 4582.45,1919.39 4620.55,1919.39 4620.55,1938.72 "/>
  <polygon id="24" class="fil22" points="4631.7,1965.67 4631.7,1864.64 4651.03,1864.64 4651.03,1965.67 "/>
  <path id="25" class="fil22" d="M4666.39 1928.16c0,-6.45 1.58,-12.68 4.76,-18.7 3.17,-6.04 7.66,-10.63 13.47,-13.8 5.81,-3.18 12.28,-4.78 19.45,-4.78 11.08,0 20.13,3.6 27.21,10.8 7.08,7.22 10.61,16.29 10.61,27.3 0,11.1 -3.58,20.3 -10.7,27.59 -7.15,7.29 -16.14,10.93 -26.98,10.93 -6.7,0 -13.1,-1.52 -19.19,-4.56 -6.07,-3.03 -10.7,-7.48 -13.87,-13.36 -3.18,-5.85 -4.76,-13 -4.76,-21.42zm19.9 1.03c0,7.27 1.72,12.84 5.15,16.7 3.46,3.88 7.69,5.81 12.75,5.81 5.03,0 9.26,-1.93 12.67,-5.81 3.41,-3.86 5.13,-9.48 5.13,-16.84 0,-7.17 -1.72,-12.7 -5.13,-16.55 -3.41,-3.89 -7.64,-5.81 -12.67,-5.81 -5.06,0 -9.29,1.92 -12.75,5.81 -3.43,3.85 -5.15,9.43 -5.15,16.69z"/>
  <polygon id="26" class="fil22" points="4756.96,1965.67 4756.96,1946.34 4776.29,1946.34 4776.29,1965.67 "/>
  <path class="fil23" d="M1983.92 7971.34c-277.01,65.51 -245.68,440.87 63.36,452.98 295.68,11.59 621.07,-0.02 920.08,-0.02 229.57,0 1813.94,14.64 1907.11,-9.81 244.69,-64.18 240.32,-439.63 -78.08,-452.17 -295.8,-11.65 -694.19,-0.15 -993.25,-0.15 -235.96,0 -1716.09,-15.22 -1819.22,9.17z"/>
 </g>
</svg>
