<?xml version="1.0" encoding="UTF-8"?>
<!DOCTYPE svg PUBLIC "-//W3C//DTD SVG 1.1//EN" "http://www.w3.org/Graphics/SVG/1.1/DTD/svg11.dtd">
<!-- Creator: CorelDRAW 2018 (64 Bit Versão de avaliação) -->
<svg xmlns="http://www.w3.org/2000/svg" xml:space="preserve" width="59.2666mm" height="59.2666mm" version="1.1" style="shape-rendering:geometricPrecision; text-rendering:geometricPrecision; image-rendering:optimizeQuality; fill-rule:evenodd; clip-rule:evenodd"
viewBox="0 0 5926.66 5926.66"
 xmlns:xlink="http://www.w3.org/1999/xlink">
 <defs>
  <style type="text/css">
   <![CDATA[
    .fil0 {fill:none}
    .fil4 {fill:#0076F3}
    .fil22 {fill:#46B1BA}
    .fil3 {fill:#C1C1C1}
    .fil8 {fill:#E8563D}
    .fil13 {fill:#F2D870}
    .fil12 {fill:#F6AC3B}
    .fil16 {fill:#F6D480}
    .fil2 {fill:white}
    .fil6 {fill:#3E444F;fill-rule:nonzero}
    .fil23 {fill:#4B898C;fill-rule:nonzero}
    .fil11 {fill:#997972;fill-rule:nonzero}
    .fil10 {fill:#A8D6D8;fill-rule:nonzero}
    .fil20 {fill:#ACC8C8;fill-rule:nonzero}
    .fil9 {fill:#BCA79E;fill-rule:nonzero}
    .fil14 {fill:#D33B26;fill-rule:nonzero}
    .fil21 {fill:#DFEFEF;fill-rule:nonzero}
    .fil18 {fill:#E2E2E2;fill-rule:nonzero}
    .fil15 {fill:#E8563D;fill-rule:nonzero}
    .fil7 {fill:#EDEDED;fill-rule:nonzero}
    .fil17 {fill:#F47E13;fill-rule:nonzero}
    .fil5 {fill:#3E444F;fill-rule:nonzero;fill-opacity:0.149020}
    .fil19 {fill:#4B210C;fill-rule:nonzero;fill-opacity:0.149020}
    .fil1 {fill:gray;fill-opacity:0.200000}
   ]]>
  </style>
 </defs>
 <g id="Camada_x0020_1">
  <metadata id="CorelCorpID_0Corel-Layer"/>
  <rect class="fil0" width="5926.66" height="5926.66"/>
  <path class="fil1" d="M2785.37 4736.73l2528.55 -4.42 -544.85 -910.6 -2.53 0c0.76,-5.94 1.28,-11.93 1.28,-18.08l0 -2006.31c0,-77.87 -62.33,-140.98 -139.2,-140.98l-3340.8 0c-76.88,0 -139.2,63.11 -139.2,140.98l0 2006.31c0,8.07 0.81,15.91 2.1,23.6l-1.12 -24.01 -568.48 937.35 5.74 0c2.61,49.63 55.12,89.27 119.67,89.27l4492.75 0c66.21,0 119.9,-41.69 119.9,-93.11l-2533.81 0z"/>
  <path class="fil2" d="M4793.21 3727.49c0,77.02 -62.44,139.45 -139.44,139.45l-3346.68 0c-77.01,0 -139.44,-62.43 -139.44,-139.45l0 -1984.4c0,-77.02 62.43,-139.45 139.44,-139.45l3346.68 0c77,0 139.44,62.43 139.44,139.45l0 1984.4z"/>
  <polygon class="fil3" points="1166.39,3750.83 599.15,4654.19 5340.27,4646.01 4794.46,3745.36 "/>
  <path class="fil2" d="M5345.54 4650.38c0,50.87 -53.78,92.11 -120.12,92.11l-4500.64 0c-66.34,0 -120.13,-41.24 -120.13,-92.11l4740.89 0z"/>
  <polygon class="fil4" points="4592.94,3580.45 1369.78,3580.45 1369.78,1785.63 4592.94,1785.63 "/>
  <polygon class="fil5" points="1403.54,4015.52 1292.63,4015.52 1342.84,3902.9 1450.11,3902.9 "/>
  <polygon class="fil5" points="1489.13,4157.65 1229.26,4157.65 1279.47,4045.02 1531.16,4045.02 "/>
  <polygon class="fil5" points="1437.11,4313.18 1165.93,4313.18 1215.97,4200.56 1478.96,4200.56 "/>
  <polygon class="fil5" points="1536.62,4015.52 1425.71,4015.52 1471.56,3902.9 1578.83,3902.9 "/>
  <polygon class="fil5" points="1669.7,4015.52 1558.8,4015.52 1600.28,3902.9 1707.55,3902.9 "/>
  <polygon class="fil5" points="1802.79,4015.52 1691.88,4015.52 1729,3902.9 1836.26,3902.9 "/>
  <polygon class="fil5" points="1935.87,4015.52 1824.97,4015.52 1857.72,3902.9 1964.98,3902.9 "/>
  <polygon class="fil5" points="2068.96,4015.52 1958.06,4015.52 1986.43,3902.9 2093.7,3902.9 "/>
  <polygon class="fil5" points="2202.05,4015.52 2091.14,4015.52 2115.15,3902.9 2222.42,3902.9 "/>
  <polygon class="fil5" points="2335.13,4015.52 2224.23,4015.52 2243.87,3902.9 2351.13,3902.9 "/>
  <polygon class="fil5" points="2468.22,4015.52 2357.31,4015.52 2372.59,3902.9 2479.86,3902.9 "/>
  <polygon class="fil5" points="2601.31,4015.52 2490.4,4015.52 2501.31,3902.9 2608.57,3902.9 "/>
  <polygon class="fil5" points="2734.39,4015.52 2623.49,4015.52 2630.03,3902.9 2737.29,3902.9 "/>
  <polygon class="fil5" points="2867.48,4015.52 2756.58,4015.52 2758.74,3902.9 2866.01,3902.9 "/>
  <polygon class="fil5" points="3000.56,4015.52 2889.66,4015.52 2887.46,3902.9 2994.73,3902.9 "/>
  <polygon class="fil5" points="3133.65,4015.52 3022.74,4015.52 3016.18,3902.9 3123.45,3902.9 "/>
  <polygon class="fil5" points="3266.74,4015.52 3155.83,4015.52 3144.9,3902.9 3252.16,3902.9 "/>
  <polygon class="fil5" points="3399.82,4015.52 3288.92,4015.52 3273.62,3902.9 3380.88,3902.9 "/>
  <polygon class="fil5" points="3532.91,4015.52 3422,4015.52 3402.33,3902.9 3509.59,3902.9 "/>
  <polygon class="fil5" points="3665.99,4015.52 3555.09,4015.52 3531.05,3902.9 3638.32,3902.9 "/>
  <polygon class="fil5" points="3799.08,4015.52 3688.17,4015.52 3659.77,3902.9 3767.03,3902.9 "/>
  <polygon class="fil5" points="3932.17,4015.52 3821.26,4015.52 3788.49,3902.9 3895.75,3902.9 "/>
  <polygon class="fil5" points="4065.25,4015.52 3954.34,4015.52 3917.2,3902.9 4024.47,3902.9 "/>
  <polygon class="fil5" points="4198.34,4015.52 4087.44,4015.52 4045.92,3902.9 4153.19,3902.9 "/>
  <polygon class="fil5" points="4331.42,4015.52 4220.52,4015.52 4174.65,3902.9 4281.91,3902.9 "/>
  <polygon class="fil5" points="4464.51,4015.52 4353.6,4015.52 4303.36,3902.9 4410.63,3902.9 "/>
  <polygon class="fil5" points="4597.59,4015.52 4486.69,4015.52 4432.08,3902.9 4539.35,3902.9 "/>
  <polygon class="fil5" points="1220.55,4457.99 1095.34,4457.99 1145.56,4345.37 1267.13,4345.37 "/>
  <polygon class="fil5" points="1370.8,4457.99 1245.59,4457.99 1291.44,4345.37 1413,4345.37 "/>
  <polygon class="fil5" points="1521.04,4457.99 1395.84,4457.99 1437.32,4345.37 1558.88,4345.37 "/>
  <polygon class="fil5" points="1671.28,4457.99 1546.08,4457.99 1583.19,4345.37 1704.76,4345.37 "/>
  <polygon class="fil5" points="1821.53,4457.99 1696.33,4457.99 1729.07,4345.37 1850.64,4345.37 "/>
  <polygon class="fil5" points="1971.78,4457.99 1846.57,4457.99 1874.95,4345.37 1996.51,4345.37 "/>
  <polygon class="fil5" points="3918.71,4457.99 2003.07,4457.99 2026.9,4345.37 3886.84,4345.37 "/>
  <polygon class="fil5" points="4075.21,4457.99 3950.01,4457.99 3917.24,4345.37 4038.8,4345.37 "/>
  <polygon class="fil5" points="4225.46,4457.99 4100.25,4457.99 4063.11,4345.37 4184.68,4345.37 "/>
  <polygon class="fil5" points="4375.7,4457.99 4250.5,4457.99 4208.99,4345.37 4330.55,4345.37 "/>
  <polygon class="fil5" points="4525.96,4457.99 4400.75,4457.99 4354.87,4345.37 4476.44,4345.37 "/>
  <polygon class="fil5" points="4676.19,4457.99 4550.99,4457.99 4500.74,4345.37 4622.31,4345.37 "/>
  <polygon class="fil5" points="4826.44,4457.99 4701.24,4457.99 4646.63,4345.37 4768.19,4345.37 "/>
  <polygon class="fil5" points="1621.95,4157.65 1506.46,4157.65 1547.94,4045.02 1659.79,4045.02 "/>
  <polygon class="fil5" points="1760.55,4157.65 1645.05,4157.65 1682.16,4045.02 1794.02,4045.02 "/>
  <polygon class="fil5" points="1899.15,4157.65 1783.65,4157.65 1816.4,4045.02 1928.25,4045.02 "/>
  <polygon class="fil5" points="2037.74,4157.65 1922.25,4157.65 1950.62,4045.02 2062.48,4045.02 "/>
  <polygon class="fil5" points="2176.34,4157.65 2060.84,4157.65 2084.85,4045.02 2196.71,4045.02 "/>
  <polygon class="fil5" points="2314.94,4157.65 2199.44,4157.65 2219.08,4045.02 2330.94,4045.02 "/>
  <polygon class="fil5" points="2453.54,4157.65 2338.04,4157.65 2353.31,4045.02 2465.18,4045.02 "/>
  <polygon class="fil5" points="2592.14,4157.65 2476.63,4157.65 2487.54,4045.02 2599.4,4045.02 "/>
  <polygon class="fil5" points="2730.73,4157.65 2615.24,4157.65 2621.78,4045.02 2733.64,4045.02 "/>
  <polygon class="fil5" points="2869.33,4157.65 2753.83,4157.65 2756.01,4045.02 2867.86,4045.02 "/>
  <polygon class="fil5" points="3007.93,4157.65 2892.43,4157.65 2890.23,4045.02 3002.09,4045.02 "/>
  <polygon class="fil5" points="3146.53,4157.65 3031.03,4157.65 3024.46,4045.02 3136.32,4045.02 "/>
  <polygon class="fil5" points="3285.12,4157.65 3169.63,4157.65 3158.69,4045.02 3270.55,4045.02 "/>
  <polygon class="fil5" points="3423.72,4157.65 3308.23,4157.65 3292.92,4045.02 3404.79,4045.02 "/>
  <polygon class="fil5" points="3562.32,4157.65 3446.82,4157.65 3427.15,4045.02 3539.01,4045.02 "/>
  <polygon class="fil5" points="3700.92,4157.65 3585.42,4157.65 3561.38,4045.02 3673.25,4045.02 "/>
  <polygon class="fil5" points="3839.51,4157.65 3724.02,4157.65 3695.61,4045.02 3807.47,4045.02 "/>
  <polygon class="fil5" points="3978.12,4157.65 3862.62,4157.65 3829.84,4045.02 3941.7,4045.02 "/>
  <polygon class="fil5" points="4116.72,4157.65 4001.21,4157.65 3964.07,4045.02 4075.94,4045.02 "/>
  <polygon class="fil5" points="4255.31,4157.65 4139.81,4157.65 4098.31,4045.02 4210.16,4045.02 "/>
  <polygon class="fil5" points="4393.91,4157.65 4278.42,4157.65 4232.53,4045.02 4344.4,4045.02 "/>
  <polygon class="fil5" points="4532.5,4157.65 4417.01,4157.65 4366.77,4045.02 4478.62,4045.02 "/>
  <polygon class="fil5" points="4747.39,4305.14 4627.13,4305.14 4501,4045.02 4612.85,4045.02 "/>
  <polygon class="fil5" points="1569.69,4313.18 1449.17,4313.18 1490.65,4200.56 1607.54,4200.56 "/>
  <polygon class="fil5" points="1714.32,4313.18 1593.8,4313.18 1630.91,4200.56 1747.8,4200.56 "/>
  <polygon class="fil5" points="1858.95,4313.18 1738.43,4313.18 1771.18,4200.56 1888.06,4200.56 "/>
  <polygon class="fil5" points="2003.58,4313.18 1883.06,4313.18 1911.43,4200.56 2028.32,4200.56 "/>
  <polygon class="fil5" points="2148.21,4313.18 2027.69,4313.18 2051.7,4200.56 2168.58,4200.56 "/>
  <polygon class="fil5" points="2292.84,4313.18 2172.31,4313.18 2191.96,4200.56 2308.84,4200.56 "/>
  <polygon class="fil5" points="2437.47,4313.18 2316.94,4313.18 2332.22,4200.56 2449.11,4200.56 "/>
  <polygon class="fil5" points="2582.1,4313.18 2461.58,4313.18 2472.48,4200.56 2589.37,4200.56 "/>
  <polygon class="fil5" points="2726.73,4313.18 2606.21,4313.18 2612.75,4200.56 2729.63,4200.56 "/>
  <polygon class="fil5" points="2871.36,4313.18 2750.84,4313.18 2753.01,4200.56 2869.89,4200.56 "/>
  <polygon class="fil5" points="3015.99,4313.18 2895.47,4313.18 2893.27,4200.56 3010.15,4200.56 "/>
  <polygon class="fil5" points="3160.63,4313.18 3040.08,4313.18 3033.52,4200.56 3150.42,4200.56 "/>
  <polygon class="fil5" points="3305.25,4313.18 3184.72,4313.18 3173.79,4200.56 3290.67,4200.56 "/>
  <polygon class="fil5" points="3449.88,4313.18 3329.35,4313.18 3314.05,4200.56 3430.94,4200.56 "/>
  <polygon class="fil5" points="3594.51,4313.18 3473.98,4313.18 3454.31,4200.56 3571.2,4200.56 "/>
  <polygon class="fil5" points="3739.14,4313.18 3618.62,4313.18 3594.58,4200.56 3711.46,4200.56 "/>
  <polygon class="fil5" points="3883.76,4313.18 3763.24,4313.18 3734.83,4200.56 3851.72,4200.56 "/>
  <polygon class="fil5" points="4028.4,4313.18 3907.88,4313.18 3875.1,4200.56 3991.98,4200.56 "/>
  <polygon class="fil5" points="4173.03,4313.18 4052.5,4313.18 4015.36,4200.56 4132.25,4200.56 "/>
  <polygon class="fil5" points="4317.66,4313.18 4197.14,4313.18 4155.63,4200.56 4272.51,4200.56 "/>
  <polygon class="fil5" points="4462.29,4313.18 4341.77,4313.18 4295.89,4200.56 4412.78,4200.56 "/>
  <polygon class="fil5" points="4606.91,4313.18 4486.39,4313.18 4436.15,4200.56 4553.03,4200.56 "/>
  <polygon class="fil6" points="1403.54,4007.2 1292.63,4007.2 1342.84,3894.58 1450.11,3894.58 "/>
  <polygon class="fil6" points="1489.13,4149.33 1229.26,4149.33 1279.47,4036.7 1531.16,4036.7 "/>
  <polygon class="fil6" points="1437.11,4304.87 1165.93,4304.87 1215.97,4192.24 1478.96,4192.24 "/>
  <polygon class="fil6" points="1536.62,4007.2 1425.71,4007.2 1471.56,3894.58 1578.83,3894.58 "/>
  <polygon class="fil6" points="1669.7,4007.2 1558.8,4007.2 1600.28,3894.58 1707.55,3894.58 "/>
  <polygon class="fil6" points="1802.79,4007.2 1691.88,4007.2 1729,3894.58 1836.26,3894.58 "/>
  <polygon class="fil6" points="1935.87,4007.2 1824.97,4007.2 1857.72,3894.58 1964.98,3894.58 "/>
  <polygon class="fil6" points="2068.96,4007.2 1958.06,4007.2 1986.43,3894.58 2093.7,3894.58 "/>
  <polygon class="fil6" points="2202.05,4007.2 2091.14,4007.2 2115.15,3894.58 2222.42,3894.58 "/>
  <polygon class="fil6" points="2335.13,4007.2 2224.23,4007.2 2243.87,3894.58 2351.13,3894.58 "/>
  <polygon class="fil6" points="2468.22,4007.2 2357.31,4007.2 2372.59,3894.58 2479.86,3894.58 "/>
  <polygon class="fil6" points="2601.31,4007.2 2490.4,4007.2 2501.31,3894.58 2608.57,3894.58 "/>
  <polygon class="fil6" points="2734.39,4007.2 2623.49,4007.2 2630.03,3894.58 2737.29,3894.58 "/>
  <polygon class="fil6" points="2867.48,4007.2 2756.58,4007.2 2758.74,3894.58 2866.01,3894.58 "/>
  <polygon class="fil6" points="3000.56,4007.2 2889.66,4007.2 2887.46,3894.58 2994.73,3894.58 "/>
  <polygon class="fil6" points="3133.65,4007.2 3022.74,4007.2 3016.18,3894.58 3123.45,3894.58 "/>
  <polygon class="fil6" points="3266.74,4007.2 3155.83,4007.2 3144.9,3894.58 3252.16,3894.58 "/>
  <polygon class="fil6" points="3399.82,4007.2 3288.92,4007.2 3273.62,3894.58 3380.88,3894.58 "/>
  <polygon class="fil6" points="3532.91,4007.2 3422,4007.2 3402.33,3894.58 3509.59,3894.58 "/>
  <polygon class="fil6" points="3665.99,4007.2 3555.09,4007.2 3531.05,3894.58 3638.32,3894.58 "/>
  <polygon class="fil6" points="3799.08,4007.2 3688.17,4007.2 3659.77,3894.58 3767.03,3894.58 "/>
  <polygon class="fil6" points="3932.17,4007.2 3821.26,4007.2 3788.49,3894.58 3895.75,3894.58 "/>
  <polygon class="fil6" points="4065.25,4007.2 3954.34,4007.2 3917.2,3894.58 4024.47,3894.58 "/>
  <polygon class="fil6" points="4198.34,4007.2 4087.44,4007.2 4045.92,3894.58 4153.19,3894.58 "/>
  <polygon class="fil6" points="4331.42,4007.2 4220.52,4007.2 4174.65,3894.58 4281.91,3894.58 "/>
  <polygon class="fil6" points="4464.51,4007.2 4353.6,4007.2 4303.36,3894.58 4410.63,3894.58 "/>
  <polygon class="fil6" points="4597.59,4007.2 4486.69,4007.2 4432.08,3894.58 4539.35,3894.58 "/>
  <polygon class="fil6" points="1220.55,4449.68 1095.34,4449.68 1145.56,4337.05 1267.13,4337.05 "/>
  <polygon class="fil6" points="1370.8,4449.68 1245.59,4449.68 1291.44,4337.05 1413,4337.05 "/>
  <polygon class="fil6" points="1521.04,4449.68 1395.84,4449.68 1437.32,4337.05 1558.88,4337.05 "/>
  <polygon class="fil6" points="1671.28,4449.68 1546.08,4449.68 1583.19,4337.05 1704.76,4337.05 "/>
  <polygon class="fil6" points="1821.53,4449.68 1696.33,4449.68 1729.07,4337.05 1850.64,4337.05 "/>
  <polygon class="fil6" points="1971.78,4449.68 1846.57,4449.68 1874.95,4337.05 1996.51,4337.05 "/>
  <polygon class="fil6" points="3918.71,4449.68 2003.07,4449.68 2026.9,4337.05 3886.84,4337.05 "/>
  <polygon class="fil6" points="4075.21,4449.68 3950.01,4449.68 3917.24,4337.05 4038.8,4337.05 "/>
  <polygon class="fil6" points="4225.46,4449.68 4100.25,4449.68 4063.11,4337.05 4184.68,4337.05 "/>
  <polygon class="fil6" points="4375.7,4449.68 4250.5,4449.68 4208.99,4337.05 4330.55,4337.05 "/>
  <polygon class="fil6" points="4525.96,4449.68 4400.75,4449.68 4354.87,4337.05 4476.44,4337.05 "/>
  <polygon class="fil6" points="4676.19,4449.68 4550.99,4449.68 4500.74,4337.05 4622.31,4337.05 "/>
  <polygon class="fil6" points="4826.44,4449.68 4701.24,4449.68 4646.63,4337.05 4768.19,4337.05 "/>
  <polygon class="fil6" points="1621.95,4149.33 1506.46,4149.33 1547.94,4036.7 1659.79,4036.7 "/>
  <polygon class="fil6" points="1760.55,4149.33 1645.05,4149.33 1682.16,4036.7 1794.02,4036.7 "/>
  <polygon class="fil6" points="1899.15,4149.33 1783.65,4149.33 1816.4,4036.7 1928.25,4036.7 "/>
  <polygon class="fil6" points="2037.74,4149.33 1922.25,4149.33 1950.62,4036.7 2062.48,4036.7 "/>
  <polygon class="fil6" points="2176.34,4149.33 2060.84,4149.33 2084.85,4036.7 2196.71,4036.7 "/>
  <polygon class="fil6" points="2314.94,4149.33 2199.44,4149.33 2219.08,4036.7 2330.94,4036.7 "/>
  <polygon class="fil6" points="2453.54,4149.33 2338.04,4149.33 2353.31,4036.7 2465.18,4036.7 "/>
  <polygon class="fil6" points="2592.14,4149.33 2476.63,4149.33 2487.54,4036.7 2599.4,4036.7 "/>
  <polygon class="fil6" points="2730.73,4149.33 2615.24,4149.33 2621.78,4036.7 2733.64,4036.7 "/>
  <polygon class="fil6" points="2869.33,4149.33 2753.83,4149.33 2756.01,4036.7 2867.86,4036.7 "/>
  <polygon class="fil6" points="3007.93,4149.33 2892.43,4149.33 2890.23,4036.7 3002.09,4036.7 "/>
  <polygon class="fil6" points="3146.53,4149.33 3031.03,4149.33 3024.46,4036.7 3136.32,4036.7 "/>
  <polygon class="fil6" points="3285.12,4149.33 3169.63,4149.33 3158.69,4036.7 3270.55,4036.7 "/>
  <polygon class="fil6" points="3423.72,4149.33 3308.23,4149.33 3292.92,4036.7 3404.79,4036.7 "/>
  <polygon class="fil6" points="3562.32,4149.33 3446.82,4149.33 3427.15,4036.7 3539.01,4036.7 "/>
  <polygon class="fil6" points="3700.92,4149.33 3585.42,4149.33 3561.38,4036.7 3673.25,4036.7 "/>
  <polygon class="fil6" points="3839.51,4149.33 3724.02,4149.33 3695.61,4036.7 3807.47,4036.7 "/>
  <polygon class="fil6" points="3978.12,4149.33 3862.62,4149.33 3829.84,4036.7 3941.7,4036.7 "/>
  <polygon class="fil6" points="4116.72,4149.33 4001.21,4149.33 3964.07,4036.7 4075.94,4036.7 "/>
  <polygon class="fil6" points="4255.31,4149.33 4139.81,4149.33 4098.31,4036.7 4210.16,4036.7 "/>
  <polygon class="fil6" points="4393.91,4149.33 4278.42,4149.33 4232.53,4036.7 4344.4,4036.7 "/>
  <polygon class="fil6" points="4532.5,4149.33 4417.01,4149.33 4366.77,4036.7 4478.62,4036.7 "/>
  <polygon class="fil6" points="4747.39,4296.82 4627.13,4296.82 4501,4036.7 4612.85,4036.7 "/>
  <polygon class="fil6" points="1569.69,4304.87 1449.17,4304.87 1490.65,4192.24 1607.54,4192.24 "/>
  <polygon class="fil6" points="1714.32,4304.87 1593.8,4304.87 1630.91,4192.24 1747.8,4192.24 "/>
  <polygon class="fil6" points="1858.95,4304.87 1738.43,4304.87 1771.18,4192.24 1888.06,4192.24 "/>
  <polygon class="fil6" points="2003.58,4304.87 1883.06,4304.87 1911.43,4192.24 2028.32,4192.24 "/>
  <polygon class="fil6" points="2148.21,4304.87 2027.69,4304.87 2051.7,4192.24 2168.58,4192.24 "/>
  <polygon class="fil6" points="2292.84,4304.87 2172.31,4304.87 2191.96,4192.24 2308.84,4192.24 "/>
  <polygon class="fil6" points="2437.47,4304.87 2316.94,4304.87 2332.22,4192.24 2449.11,4192.24 "/>
  <polygon class="fil6" points="2582.1,4304.87 2461.58,4304.87 2472.48,4192.24 2589.37,4192.24 "/>
  <polygon class="fil6" points="2726.73,4304.87 2606.21,4304.87 2612.75,4192.24 2729.63,4192.24 "/>
  <polygon class="fil6" points="2871.36,4304.87 2750.84,4304.87 2753.01,4192.24 2869.89,4192.24 "/>
  <polygon class="fil6" points="3015.99,4304.87 2895.47,4304.87 2893.27,4192.24 3010.15,4192.24 "/>
  <polygon class="fil6" points="3160.63,4304.87 3040.08,4304.87 3033.52,4192.24 3150.42,4192.24 "/>
  <polygon class="fil6" points="3305.25,4304.87 3184.72,4304.87 3173.79,4192.24 3290.67,4192.24 "/>
  <polygon class="fil6" points="3449.88,4304.87 3329.35,4304.87 3314.05,4192.24 3430.94,4192.24 "/>
  <polygon class="fil6" points="3594.51,4304.87 3473.98,4304.87 3454.31,4192.24 3571.2,4192.24 "/>
  <polygon class="fil6" points="3739.14,4304.87 3618.62,4304.87 3594.58,4192.24 3711.46,4192.24 "/>
  <polygon class="fil6" points="3883.76,4304.87 3763.24,4304.87 3734.83,4192.24 3851.72,4192.24 "/>
  <polygon class="fil6" points="4028.4,4304.87 3907.88,4304.87 3875.1,4192.24 3991.98,4192.24 "/>
  <polygon class="fil6" points="4173.03,4304.87 4052.5,4304.87 4015.36,4192.24 4132.25,4192.24 "/>
  <polygon class="fil6" points="4317.66,4304.87 4197.14,4304.87 4155.63,4192.24 4272.51,4192.24 "/>
  <polygon class="fil6" points="4462.29,4304.87 4341.77,4304.87 4295.89,4192.24 4412.78,4192.24 "/>
  <polygon class="fil6" points="4606.91,4304.87 4486.39,4304.87 4436.15,4192.24 4553.03,4192.24 "/>
  <g id="_3000644477360">
   <g>
    <path class="fil7" d="M3615.45 2048.05c0,0 1.99,1.3 5.84,3.83 3.85,2.55 9.63,6.12 16.9,11.54 14.58,10.65 35.96,26.43 60.35,50.15 12.17,11.85 25.35,25.4 38.84,41.05 13.57,15.59 26.87,33.63 40.3,53.55 13.35,19.97 26.47,42.07 38.81,66.28 12.25,24.24 22.96,50.83 32.66,79.15 9.66,28.34 17.82,58.6 24.02,90.44 6.11,31.87 9.53,65.34 11.13,99.85 1.42,34.51 0.68,70.13 -2.76,106.33 -3.28,36.23 -10.31,72.81 -19.22,109.5 -18.45,73.17 -46.21,147.05 -86.04,215.59 -19.75,34.3 -41.49,67.82 -65.5,99.78 -24.05,32.01 -49.36,62.84 -77.69,91.67 -57.45,58.45 -123.19,106.7 -192.02,145.68 -68.91,39.07 -141.93,66.48 -213.87,86.46 -72.04,20.06 -144.24,29.38 -212.94,30.69 -68.71,1.73 -134.43,-7.05 -192.94,-25.23 -29.15,-9.37 -56.82,-20.38 -81.19,-35.26 -24.36,-14.73 -46.06,-31.64 -63.33,-50.79 -17.3,-19.05 -30.61,-39.61 -38.96,-60.09 -8.54,-20.41 -12.77,-40.17 -14.53,-57.81 -1.76,-17.67 -1.46,-33.35 0.43,-46.67 0.62,-6.69 1.78,-12.76 2.81,-18.3 0.89,-5.56 2.15,-10.5 3.27,-14.91 2,-8.87 4.23,-15.44 5.59,-19.9 1.38,-4.43 2.09,-6.73 2.09,-6.73l6.5 1.45c0,0 -0.44,2.3 -1.28,6.74 -0.83,4.45 -2.27,11.02 -3.24,19.72 -2.1,17.24 -4.55,43.23 1.54,75.21 3.02,15.91 8.39,33.24 17.45,50.53 9.02,17.29 21.73,34.46 38.08,50.05 32.78,31.28 80.13,54.75 134.5,68.18 54.48,13.51 115.94,17.92 180.27,13.9 64.39,-3.86 131.78,-16.3 199.19,-36.55 67.36,-20.42 134.81,-48.9 198.7,-85.98 63.82,-37.05 124.31,-82.59 176.2,-136.54 52.2,-53.82 98.04,-113.9 135.45,-177.55 37.31,-63.73 65.89,-131.18 84.74,-198.93 18.91,-67.75 27.82,-135.75 27.99,-200.2 0.09,-64.47 -8.53,-125.37 -23.44,-179.61 -14.68,-54.34 -35.44,-102 -57.82,-141.84 -22.34,-39.93 -46.33,-72.03 -67.66,-96.97 -21.42,-24.9 -40.12,-42.84 -53.13,-54.61 -6.42,-5.94 -11.66,-10.3 -15.13,-13.27 -3.47,-2.97 -5.27,-4.51 -5.27,-4.51l4.31 -5.07z"/>
    <g>
     <polygon class="fil8" points="3288.35,1543.84 3609.89,1555.23 3637.78,1608.9 3414.36,1735.41 "/>
     <polygon class="fil8" points="3101.8,1709.94 3075.98,2030.65 3126.07,2064.56 3277.54,1857.24 "/>
     <g>
      <path class="fil9" d="M2932.85 1194.91l-69.63 61.38 -69.65 61.38c0,0 -10.68,105.35 148.38,285.87 159.06,180.51 362.7,314.17 362.7,314.17l79.6 -70.13 79.59 -70.14c0,0 -106.98,-218.84 -266.03,-399.36 -159.07,-180.51 -264.96,-183.17 -264.96,-183.17z"/>
      <g>
       <g>
        <path class="fil10" d="M3057.76 1476.55c29.15,-25.68 31.98,-70.31 6.27,-99.5 -25.69,-29.16 -70.34,-31.96 -99.5,-6.29 -29.14,25.7 -31.98,70.35 -6.29,99.51 25.73,29.18 70.36,31.98 99.52,6.28z"/>
        <path class="fil11" d="M3068.05 1488.24c35.66,-31.43 39.09,-85.8 7.66,-121.48 -31.42,-35.66 -85.8,-39.11 -121.46,-7.67 -35.67,31.43 -39.1,85.8 -7.66,121.45 31.42,35.69 85.8,39.11 121.46,7.7zm-96.29 -109.28l0 0c24.64,-21.71 62.37,-19.34 84.08,5.31 21.72,24.66 19.34,62.38 -5.3,84.09 -24.65,21.73 -62.36,19.35 -84.11,-5.31 -21.71,-24.64 -19.32,-62.37 5.33,-84.09z"/>
       </g>
       <g>
        <path class="fil10" d="M3175.06 1608.01c14.08,-12.41 15.44,-33.95 3.04,-48.05 -12.41,-14.08 -33.97,-15.44 -48.05,-3.03 -14.07,12.4 -15.44,33.97 -3.03,48.04 12.41,14.09 33.96,15.45 48.04,3.04z"/>
        <path class="fil11" d="M3180.04 1613.65c17.21,-15.17 18.87,-41.44 3.69,-58.66 -15.17,-17.21 -41.43,-18.88 -58.65,-3.7 -17.22,15.17 -18.88,41.43 -3.7,58.65 15.18,17.22 41.44,18.88 58.66,3.71zm-46.5 -52.77l0 0c11.89,-10.47 30.12,-9.34 40.61,2.56 10.48,11.92 9.33,30.13 -2.57,40.61 -11.9,10.49 -30.1,9.34 -40.61,-2.56 -10.49,-11.9 -9.33,-30.12 2.57,-40.61z"/>
       </g>
       <g>
        <path class="fil10" d="M3278.48 1724.14c14.08,-12.4 15.44,-33.94 3.03,-48.04 -12.4,-14.09 -33.96,-15.45 -48.05,-3.03 -14.08,12.4 -15.44,33.96 -3.03,48.04 12.42,14.09 33.97,15.45 48.05,3.03z"/>
        <path class="fil11" d="M3283.45 1729.79c17.22,-15.18 18.88,-41.44 3.7,-58.66 -15.17,-17.22 -41.43,-18.88 -58.66,-3.71 -17.21,15.18 -18.87,41.44 -3.7,58.66 15.18,17.22 41.44,18.88 58.66,3.71zm-46.5 -52.77l0 0c11.9,-10.48 30.13,-9.34 40.61,2.56 10.48,11.92 9.34,30.12 -2.56,40.61 -11.91,10.49 -30.12,9.34 -40.62,-2.56 -10.49,-11.9 -9.32,-30.12 2.57,-40.61z"/>
       </g>
      </g>
     </g>
     <g>
      <path class="fil12" d="M3336.27 1908.18l125.8 -103.46c0,0 81.88,54.31 119.49,158.86 0,0 -20.22,-6.33 -46.81,-12.32 0,0 25.84,34.83 27.85,92.84 0,0 -112.02,40.55 -226.33,-135.92z"/>
      <path class="fil13" d="M3348.57 1897.91l98.84 -81.29c0,0 63.67,34.1 93.24,116.24 0,0 -21.65,-4.08 -38.03,-11.21 0,0 22.19,37.47 23.78,83.05 0,0 -88.02,31.86 -177.83,-106.79z"/>
      <path class="fil14" d="M3482.39 1769.19c4.54,5.12 4.09,12.96 -1.03,17.51l-172.81 153.89c-5.12,4.56 -12.96,4.1 -17.51,-1.01 -4.55,-5.11 -4.1,-12.94 1.01,-17.5l172.83 -153.9c5.11,-4.55 12.95,-4.1 17.51,1.01z"/>
     </g>
     <g>
      <polygon class="fil15" points="2786.16,1337.69 2722.82,1096.82 2953.8,1189.96 "/>
      <path class="fil14" d="M2966.51 1190.94c3.34,3.79 2.96,9.56 -0.81,12.9l-167.27 147.4c-3.78,3.32 -9.56,2.97 -12.89,-0.82 -3.34,-3.79 -2.97,-9.57 0.81,-12.9l167.26 -147.39c3.78,-3.32 9.57,-2.97 12.9,0.81z"/>
     </g>
    </g>
   </g>
   <g>
    <g>
     <g>
      <g>
       <polygon class="fil16" points="3235.72,3089.47 3217.3,3083.23 3205.8,3098.9 3201.99,3079.83 3182.68,3077.7 3197.28,3064.88 3189.46,3047.07 3207.88,3053.31 3219.38,3037.65 3223.2,3056.71 3242.51,3058.85 3227.89,3071.67 "/>
       <polygon class="fil16" points="3026.3,3139.84 3000.67,3131.15 2984.67,3152.95 2979.37,3126.43 2952.48,3123.46 2972.8,3105.62 2961.93,3080.84 2987.55,3089.52 3003.56,3067.72 3008.87,3094.25 3035.75,3097.23 3015.41,3115.07 "/>
       <polygon class="fil16" points="3090.57,2916.65 3077.89,2912.36 3069.99,2923.15 3067.34,2910.02 3054.04,2908.55 3064.12,2899.72 3058.71,2887.46 3071.41,2891.76 3079.31,2880.97 3081.95,2894.1 3095.24,2895.57 3085.2,2904.39 "/>
      </g>
      <g>
       <polygon class="fil16" points="3548.71,2200.55 3543.87,2219.39 3560.37,2229.67 3541.65,2234.91 3540.98,2254.33 3527.1,2240.74 3509.93,2249.88 3514.76,2231.04 3498.27,2220.77 3516.99,2215.52 3517.66,2196.1 3531.55,2209.7 "/>
       <polygon class="fil16" points="3614.77,2405.56 3608.05,2431.77 3631,2446.08 3604.95,2453.37 3604.01,2480.41 3584.69,2461.49 3560.81,2474.21 3567.53,2448.01 3544.58,2433.69 3570.63,2426.39 3571.57,2399.36 3590.89,2418.29 "/>
       <polygon class="fil16" points="3387.36,2358.36 3384.03,2371.32 3395.39,2378.39 3382.51,2382.01 3382.05,2395.4 3372.48,2386.01 3360.67,2392.33 3363.99,2379.35 3352.64,2372.28 3365.53,2368.66 3365.99,2355.28 3375.54,2364.64 "/>
      </g>
      <g>
       <polygon class="fil16" points="2619.38,2388.39 2603.64,2376.99 2588.02,2388.56 2590.01,2369.22 2572.19,2361.47 2589.93,2353.53 2587.73,2334.21 2603.48,2345.62 2619.09,2334.06 2617.1,2353.4 2634.92,2361.15 2617.18,2369.07 "/>
       <polygon class="fil16" points="2404.43,2374.58 2382.52,2358.72 2360.78,2374.8 2363.56,2347.91 2338.76,2337.11 2363.46,2326.09 2360.39,2299.19 2382.31,2315.07 2404.04,2298.97 2401.26,2325.88 2426.07,2336.68 2401.36,2347.7 "/>
       <polygon class="fil16" points="2531.83,2180.38 2521,2172.55 2510.25,2180.5 2511.6,2167.19 2499.33,2161.85 2511.56,2156.39 2510.04,2143.08 2520.89,2150.95 2531.64,2142.97 2530.25,2156.28 2542.53,2161.63 2530.31,2167.09 "/>
      </g>
     </g>
     <g>
      <g>
       <path class="fil17" d="M2997.63 2152.97c0,0 -0.76,-9.75 -1.91,-24.38 -1.2,-14.62 -2.14,-34.13 -3.3,-53.63 -0.5,-9.75 -1.67,-19.51 -1.81,-28.65 0.04,-9.14 0.8,-17.67 1.81,-24.98 1.87,-14.63 5.21,-24.38 5.21,-24.38l1.5 0c0,0 3.35,9.75 5.21,24.38 1.01,7.31 1.77,15.84 1.81,24.98 -0.14,9.14 -1.31,18.9 -1.81,28.65 -1.16,19.5 -2.1,39.01 -3.3,53.63 -1.15,14.63 -1.91,24.38 -1.91,24.38l-1.5 0z"/>
       <path class="fil17" d="M3230.65 2248.7c0,0 5.69,-6.45 14.45,-15.89 8.64,-9.58 20.6,-21.86 32.41,-34.3 5.95,-6.16 11.47,-12.81 17.28,-18.35 5.92,-5.41 11.95,-9.91 17.36,-13.52 10.72,-7.31 19.28,-10.64 19.28,-10.64l1.01 1.1c0,0 -4.03,8.25 -12.21,18.32 -4.05,5.09 -9.03,10.72 -14.92,16.17 -6,5.33 -13.09,10.27 -19.73,15.7 -13.38,10.73 -26.62,21.63 -36.88,29.43 -10.14,7.94 -17.05,13.08 -17.05,13.08l-1 -1.1z"/>
       <path class="fil17" d="M2787.66 2249.8c0,0 -6.9,-5.14 -17.04,-13.08 -10.27,-7.8 -23.5,-18.7 -36.89,-29.43 -6.64,-5.43 -13.72,-10.37 -19.72,-15.7 -5.89,-5.45 -10.88,-11.08 -14.93,-16.17 -8.18,-10.07 -12.21,-18.32 -12.21,-18.32l1.01 -1.1c0,0 8.56,3.33 19.28,10.64 5.4,3.61 11.43,8.11 17.36,13.52 5.81,5.54 11.33,12.19 17.29,18.35 11.81,12.44 23.77,24.72 32.4,34.3 8.76,9.44 14.46,15.89 14.46,15.89l-1.01 1.1z"/>
       <path class="fil18" d="M2868.3 2161.87c0,0 -12.07,-20.99 -22.71,-42.54 -2.7,-5.38 -6.02,-10.51 -8.24,-15.67 -2.06,-5.22 -3.31,-10.37 -4.05,-14.92 -1.61,-9.04 -0.74,-15.85 -0.74,-15.85l1.39 -0.55c0,0 5.34,4.31 10.42,11.95 2.61,3.8 5.28,8.38 7.4,13.58 1.96,5.27 3.11,11.26 4.88,17.01 7.22,22.94 13.03,46.44 13.03,46.44l-1.38 0.55z"/>
       <path class="fil18" d="M3140.8 2161.32c0,0 5.8,-23.5 13.01,-46.44 1.77,-5.74 2.92,-11.74 4.88,-17 2.12,-5.21 4.79,-9.79 7.4,-13.58 5.08,-7.65 10.42,-11.96 10.42,-11.96l1.38 0.55c0,0 0.88,6.81 -0.73,15.85 -0.74,4.54 -1.98,9.7 -4.05,14.92 -2.22,5.16 -5.54,10.29 -8.23,15.67 -10.64,21.55 -22.7,42.55 -22.7,42.55l-1.38 -0.56z"/>
      </g>
      <g>
       <path class="fil17" d="M2434.45 2807.21c0,0 -9,3.83 -22.5,9.57 -13.48,5.8 -31.68,12.9 -49.79,20.2 -9.09,3.58 -17.96,7.79 -26.58,10.83 -8.68,2.88 -17.01,4.87 -24.27,6.24 -14.46,2.88 -24.77,2.81 -24.77,2.81l-0.47 -1.42c0,0 8.17,-6.27 21.45,-12.7 6.61,-3.28 14.45,-6.72 23.11,-9.66 8.71,-2.78 18.33,-4.78 27.73,-7.41 18.86,-5.1 37.65,-10.41 51.9,-13.92 14.23,-3.57 23.72,-5.95 23.72,-5.95l0.47 1.41z"/>
       <path class="fil17" d="M2451.06 2555.86c0,0 -7.93,-3.35 -19.66,-8.66 -11.83,-5.13 -27.28,-12.56 -42.83,-19.8 -7.74,-3.69 -15.8,-6.8 -22.9,-10.55 -7.01,-3.9 -13.2,-8.18 -18.34,-12.16 -10.34,-7.83 -16.22,-14.89 -16.22,-14.89l0.71 -1.3c0,0 9.12,1.19 21.26,5.74 6.11,2.22 13.04,5.16 20.09,9.01 6.96,3.98 13.89,9.14 21.15,13.7 14.43,9.27 28.97,18.36 39.64,25.6 10.75,7.09 17.82,12 17.82,12l-0.72 1.31z"/>
       <path class="fil17" d="M2593.06 2975.46c0,0 -2.67,8.18 -6.97,20.32 -4.13,12.22 -10.25,28.23 -16.17,44.34 -3.03,8.01 -5.45,16.31 -8.6,23.69 -3.29,7.31 -7.04,13.84 -10.58,19.29 -6.94,10.96 -13.49,17.42 -13.49,17.42l-1.36 -0.61c0.01,0 0.43,-9.19 3.96,-21.67 1.69,-6.27 4.05,-13.42 7.29,-20.76 3.4,-7.27 7.95,-14.61 11.89,-22.22 8.04,-15.17 15.87,-30.41 22.21,-41.64 6.16,-11.31 10.46,-18.76 10.46,-18.76l1.36 0.6z"/>
       <path class="fil18" d="M2484.05 2927c0,0 -16.06,18.11 -33.11,35.06 -4.23,4.27 -8.04,9.04 -12.22,12.79 -4.3,3.63 -8.79,6.44 -12.86,8.59 -8.06,4.41 -14.79,5.75 -14.79,5.75l-0.97 -1.14c0,0 2.39,-6.43 8.02,-13.69 2.77,-3.68 6.26,-7.67 10.52,-11.33 4.36,-3.54 9.68,-6.54 14.57,-10.05 19.44,-14.14 39.87,-27.12 39.87,-27.12l0.97 1.14z"/>
       <path class="fil18" d="M2396.81 2668.83c0,0.01 -24.13,1.98 -48.16,2.44 -6.01,0.15 -12.06,0.97 -17.68,0.79 -5.6,-0.36 -10.79,-1.42 -15.22,-2.69 -8.87,-2.39 -14.66,-6.08 -14.66,-6.08l0.09 -1.48c0,0 6.17,-3 15.25,-4.35 4.55,-0.74 9.83,-1.21 15.44,-0.91 5.6,0.46 11.51,1.97 17.47,2.81 23.82,3.24 47.56,7.98 47.56,7.98l-0.09 1.49z"/>
      </g>
      <g>
       <path class="fil17" d="M3586.89 2798.47c0,0 8.15,1.13 20.37,2.81 12.23,1.63 28.43,4.37 44.65,6.91 8.11,1.31 16.31,2.2 23.85,3.66 7.51,1.67 14.39,3.83 20.21,5.97 11.68,4.19 19.09,8.66 19.09,8.66l-0.26 1.23c-0.01,0 -8.62,0.97 -20.97,-0.09 -6.19,-0.49 -13.34,-1.39 -20.85,-3.01 -7.47,-1.81 -15.29,-4.43 -23.21,-6.62 -15.81,-4.46 -31.67,-8.73 -43.47,-12.35 -11.8,-3.57 -19.67,-5.94 -19.67,-5.94l0.26 -1.23z"/>
       <path class="fil17" d="M3466.44 2972.69c0,0 4.18,5.89 10.45,14.73 6.32,8.81 14.26,20.84 22.36,32.78 3.99,6 8.47,11.72 11.97,17.49 3.38,5.84 6,11.6 7.99,16.69 4.08,10.11 5.29,17.75 5.29,17.75l-1.09 0.63c0,0 -6.06,-4.8 -12.86,-13.33 -3.46,-4.23 -7.19,-9.34 -10.61,-15.15 -3.29,-5.89 -6.08,-12.6 -9.35,-19.03 -6.41,-12.92 -12.99,-25.75 -17.56,-35.58 -4.6,-9.81 -7.68,-16.34 -7.68,-16.34l1.09 -0.64z"/>
       <path class="fil17" d="M3545.05 2608.61c0,0 5.52,-4.67 13.81,-11.66 8.24,-7.03 19.57,-15.95 30.79,-25.01 5.66,-4.48 10.98,-9.42 16.44,-13.39 5.53,-3.86 11.05,-6.95 15.96,-9.36 9.74,-4.91 17.25,-6.74 17.25,-6.74l0.72 1.02c0,0 -4.28,6.44 -12.21,13.93 -3.93,3.8 -8.72,7.95 -14.22,11.84 -5.59,3.78 -12.05,7.11 -18.17,10.9 -12.34,7.48 -24.58,15.1 -34,20.47 -9.39,5.41 -15.65,9.02 -15.65,9.02l-0.72 -1.02z"/>
       <path class="fil18" d="M3602.8 2690.62c0,0 4.85,-1.57 12.16,-3.67 7.29,-2.25 17.09,-4.7 26.87,-7.34 4.9,-1.25 9.71,-3.05 14.35,-3.95 4.65,-0.76 9.11,-0.86 12.98,-0.65 7.71,0.29 13.15,2.24 13.15,2.24l0.21 1.23c0,0 -4.5,3.61 -11.69,6.42 -3.6,1.46 -7.84,2.83 -12.49,3.64 -4.67,0.67 -9.81,0.54 -14.85,0.96 -10.1,0.71 -20.16,1.6 -27.79,1.85 -7.59,0.41 -12.69,0.51 -12.69,0.51l-0.21 -1.24z"/>
       <path class="fil18" d="M3554.33 2914.57c0,0 4.59,2.22 11.33,5.76 6.82,3.41 15.6,8.41 24.49,13.27 4.4,2.48 9.12,4.5 13.09,7.06 3.9,2.68 7.18,5.69 9.83,8.51 5.37,5.55 7.95,10.71 7.95,10.71l-0.7 1.04c0,-0.01 -5.75,-0.51 -12.89,-3.45 -3.6,-1.43 -7.61,-3.37 -11.53,-6 -3.84,-2.76 -7.46,-6.4 -11.39,-9.58 -7.79,-6.47 -15.68,-12.78 -21.36,-17.87 -5.77,-4.96 -9.52,-8.41 -9.52,-8.41l0.7 -1.04z"/>
      </g>
     </g>
    </g>
    <g>
     <g>
      <g>
       <g>
        <path class="fil19" d="M3230.72 2377.32l-47.34 -49.88c-6.07,-6.41 -16.29,-6.71 -22.77,-0.56l-20.65 19.63c-13.11,-7.89 -26.89,-14.13 -41.12,-18.8l1.31 -28.41c0.38,-8.93 -6.53,-16.46 -15.42,-16.85l-68.66 -2.98c-8.92,-0.42 -16.41,6.51 -16.8,15.44l-1.19 26.85c-17.48,3.42 -34.6,9.2 -50.91,17.33l-17.31 -18.28c-6.15,-6.45 -16.35,-6.74 -22.82,-0.6l-49.85 47.29c-6.46,6.14 -6.7,16.35 -0.58,22.81l14.44 15.22c-9.87,14.49 -17.63,29.94 -23.37,46.04l-18.65 -0.85c-8.93,-0.41 -16.43,6.55 -16.82,15.43l-3 68.67c-0.39,8.92 6.45,16.39 15.35,16.81l14.43 0.64c3.55,20.79 10.38,41.17 20.55,60.28l-8.99 8.5c-6.46,6.14 -6.72,16.38 -0.63,22.78l47.32 49.9c6.12,6.44 16.31,6.67 22.78,0.54l7.68 -7.31c16.67,10.86 34.62,18.97 53.25,24.39l-0.48 10.54c-0.39,8.86 6.57,16.42 15.42,16.85l68.68 2.98c8.86,0.38 16.4,-6.53 16.78,-15.44l0.58 -12.12c20.54,-4.67 40.58,-12.69 59.14,-24.05l9.72 10.26c6.12,6.45 16.3,6.71 22.78,0.59l49.85 -47.3c6.47,-6.14 6.73,-16.33 0.6,-22.78l-12.54 -13.23c8.63,-15.31 15.19,-31.49 19.53,-48.16l20.61 0.89c8.89,0.39 16.44,-6.49 16.8,-15.42l2.99 -68.65c0.44,-8.86 -6.45,-16.36 -15.34,-16.77l-24.91 -1.06c-4.43,-17.3 -11.26,-34.16 -20.43,-50.04l19.35 -18.34c6.46,-6.17 6.75,-16.34 0.64,-22.78zm-132.49 83.14l0 0c32.11,33.85 30.73,87.38 -3.16,119.53 -33.9,32.14 -87.43,30.74 -119.55,-3.11 -32.18,-33.91 -30.74,-87.42 3.13,-119.57 33.9,-32.15 87.38,-30.77 119.58,3.15z"/>
        <path class="fil19" d="M2950.64 2600.68l-40.66 -55.46c-5.23,-7.12 -15.33,-8.71 -22.53,-3.42l-22.95 16.87c-12.02,-9.47 -24.9,-17.41 -38.44,-23.84l4.89 -28.01c1.5,-8.82 -4.41,-17.16 -13.17,-18.66l-67.74 -11.61c-8.79,-1.54 -17.1,4.39 -18.61,13.2l-4.57 26.49c-17.77,1.19 -35.48,4.77 -52.69,10.77l-14.87 -20.31c-5.28,-7.17 -15.37,-8.75 -22.56,-3.48l-55.41 40.64c-7.18,5.27 -8.71,15.38 -3.45,22.55l12.41 16.93c-11.63,13.13 -21.27,27.47 -28.99,42.72l-18.39 -3.19c-8.82,-1.53 -17.12,4.43 -18.64,13.18l-11.62 67.75c-1.52,8.8 4.33,17.07 13.1,18.61l14.23 2.45c0.91,21.07 5.12,42.15 12.8,62.39l-9.99 7.3c-7.19,5.28 -8.73,15.4 -3.5,22.52l40.67 55.46c5.25,7.17 15.33,8.68 22.52,3.41l8.54 -6.28c15.16,12.87 31.96,23.18 49.75,30.9l-1.8 10.39c-1.5,8.76 4.45,17.12 13.17,18.67l67.76 11.61c8.74,1.49 17.09,-4.41 18.6,-13.21l2.09 -11.94c20.97,-2.05 41.86,-7.47 61.7,-16.4l8.36 11.39c5.25,7.17 15.32,8.72 22.51,3.46l55.42 -40.64c7.19,-5.28 8.73,-15.35 3.47,-22.53l-10.78 -14.7c10.48,-14.1 19.03,-29.32 25.45,-45.31l20.32 3.47c8.77,1.52 17.14,-4.37 18.61,-13.17l11.62 -67.73c1.56,-8.73 -4.34,-17.05 -13.11,-18.57l-24.56 -4.19c-2.22,-17.72 -6.87,-35.3 -13.97,-52.22l21.52 -15.75c7.18,-5.31 8.74,-15.36 3.49,-22.51zm-123.13 52.01l0 0c35.18,47.99 24.83,115.49 -23.22,150.72 -48.03,35.21 -115.53,24.83 -150.73,-23.16 -35.26,-48.07 -24.84,-115.53 23.19,-150.76 48.04,-35.23 115.47,-24.88 150.76,23.2z"/>
        <path class="fil19" d="M3552.74 2773.93l-11.65 -34.39c-1.52,-4.38 -6.34,-6.8 -10.78,-5.3l-14.3 4.83c-4.51,-6.62 -9.7,-12.67 -15.53,-18.02l6.95 -13.31c2.11,-4.27 0.44,-9.39 -3.7,-11.53l-32.19 -16.63c-4.23,-2.19 -9.42,-0.5 -11.54,3.7l-6.44 12.65c-9.19,-2.31 -18.64,-3.25 -28.3,-2.96l-4.22 -12.59c-1.52,-4.52 -6.36,-6.85 -10.77,-5.38l-34.43 11.68c-4.35,1.47 -6.84,6.35 -5.3,10.79l3.55 10.52c-7.88,4.74 -15.11,10.48 -21.34,16.88l-8.72 -4.47c-4.27,-2.22 -9.38,-0.52 -11.59,3.63l-16.57 32.22c-2.18,4.19 -0.52,9.34 3.68,11.5l6.75 3.44c-2.94,10.8 -4.12,22.08 -3.43,33.5l-6.21 2.08c-4.53,1.47 -6.89,6.29 -5.38,10.74l11.69 34.39c1.47,4.41 6.33,6.87 10.81,5.31l5.29 -1.81c5.54,8.88 12.38,16.74 20.08,23.48l-2.48 4.85c-2.22,4.24 -0.5,9.41 3.65,11.55l32.21 16.64c4.2,2.13 9.37,0.47 11.49,-3.69l3.01 -5.7c10.84,2.31 22.18,2.84 33.63,1.51l2.38 7.12c1.49,4.43 6.31,6.77 10.74,5.3l34.45 -11.69c4.34,-1.46 6.81,-6.32 5.29,-10.76l-3.15 -9.13c7.55,-5.41 14.33,-11.73 20.06,-18.78l9.63 5c4.22,2.23 9.33,0.52 11.52,-3.67l16.6 -32.18c2.13,-4.24 0.54,-9.4 -3.71,-11.56l-11.62 -5.93c1.65,-9.32 2.1,-18.86 1.21,-28.54l13.35 -4.5c4.46,-1.55 6.85,-6.29 5.33,-10.79zm-70.24 6.66l0 0c10.09,29.68 -5.86,62.02 -35.63,72.13 -29.77,10.09 -62.07,-5.82 -72.2,-35.61 -10.08,-29.75 5.85,-62.09 35.64,-72.15 29.79,-10.11 62.11,5.85 72.19,35.63z"/>
       </g>
       <g>
        <g>
         <path class="fil20" d="M3222.4 2352.36l-47.34 -49.88c-6.07,-6.41 -16.3,-6.71 -22.77,-0.56l-20.65 19.63c-13.11,-7.89 -26.89,-14.13 -41.12,-18.8l1.31 -28.41c0.38,-8.93 -6.53,-16.46 -15.42,-16.85l-68.66 -2.99c-8.91,-0.41 -16.41,6.52 -16.8,15.44l-1.19 26.86c-17.48,3.42 -34.6,9.2 -50.91,17.33l-17.31 -18.27c-6.15,-6.46 -16.35,-6.75 -22.82,-0.62l-49.85 47.3c-6.46,6.13 -6.7,16.35 -0.58,22.81l14.44 15.22c-9.87,14.49 -17.63,29.94 -23.36,46.04l-18.66 -0.85c-8.93,-0.41 -16.43,6.56 -16.82,15.43l-3 68.67c-0.39,8.92 6.45,16.39 15.35,16.81l14.43 0.64c3.55,20.79 10.38,41.17 20.55,60.27l-8.99 8.51c-6.46,6.15 -6.72,16.38 -0.63,22.79l47.33 49.89c6.11,6.44 16.3,6.67 22.78,0.54l7.67 -7.31c16.67,10.86 34.62,18.97 53.25,24.39l-0.48 10.54c-0.39,8.86 6.57,16.42 15.42,16.85l68.68 2.98c8.86,0.38 16.4,-6.53 16.78,-15.44l0.58 -12.12c20.54,-4.67 40.58,-12.69 59.14,-24.05l9.73 10.26c6.11,6.45 16.29,6.71 22.77,0.59l49.85 -47.3c6.47,-6.15 6.73,-16.33 0.6,-22.78l-12.54 -13.23c8.63,-15.31 15.19,-31.49 19.53,-48.16l20.61 0.89c8.89,0.4 16.44,-6.49 16.8,-15.41l2.99 -68.66c0.44,-8.86 -6.45,-16.36 -15.34,-16.77l-24.91 -1.06c-4.43,-17.3 -11.26,-34.16 -20.43,-50.04l19.35 -18.34c6.46,-6.17 6.75,-16.34 0.64,-22.78zm-132.49 83.14l0 0c32.11,33.85 30.72,87.39 -3.16,119.53 -33.9,32.14 -87.43,30.74 -119.55,-3.11 -32.18,-33.91 -30.74,-87.42 3.14,-119.57 33.89,-32.15 87.37,-30.77 119.57,3.15z"/>
         <path class="fil21" d="M2942.32 2575.72l-40.66 -55.46c-5.23,-7.12 -15.33,-8.71 -22.53,-3.42l-22.95 16.87c-12.02,-9.47 -24.9,-17.41 -38.44,-23.83l4.89 -28.02c1.5,-8.81 -4.41,-17.15 -13.17,-18.66l-67.74 -11.62c-8.79,-1.53 -17.1,4.4 -18.61,13.21l-4.57 26.49c-17.77,1.19 -35.48,4.77 -52.69,10.77l-14.87 -20.31c-5.28,-7.17 -15.37,-8.75 -22.56,-3.48l-55.41 40.64c-7.18,5.27 -8.71,15.38 -3.45,22.55l12.41 16.93c-11.63,13.13 -21.27,27.48 -28.99,42.72l-18.4 -3.19c-8.81,-1.53 -17.11,4.43 -18.63,13.18l-11.62 67.75c-1.52,8.79 4.33,17.07 13.1,18.61l14.24 2.45c0.9,21.07 5.11,42.15 12.79,62.39l-9.99 7.3c-7.18,5.28 -8.73,15.41 -3.5,22.52l40.66 55.46c5.26,7.17 15.34,8.68 22.53,3.41l8.53 -6.28c15.17,12.86 31.97,23.19 49.76,30.9l-1.8 10.4c-1.5,8.74 4.45,17.11 13.17,18.66l67.76 11.61c8.74,1.49 17.09,-4.41 18.6,-13.2l2.09 -11.95c20.97,-2.05 41.86,-7.47 61.7,-16.4l8.36 11.39c5.25,7.17 15.32,8.72 22.51,3.46l55.42 -40.64c7.19,-5.28 8.74,-15.35 3.47,-22.53l-10.78 -14.7c10.49,-14.09 19.04,-29.32 25.45,-45.31l20.32 3.48c8.77,1.51 17.13,-4.37 18.61,-13.18l11.62 -67.73c1.56,-8.73 -4.34,-17.05 -13.11,-18.57l-24.56 -4.19c-2.22,-17.72 -6.87,-35.3 -13.97,-52.22l21.51 -15.75c7.19,-5.31 8.75,-15.36 3.5,-22.51zm-123.13 52.01l0 0c35.18,47.99 24.83,115.5 -23.22,150.72 -48.03,35.21 -115.53,24.83 -150.73,-23.16 -35.26,-48.07 -24.84,-115.53 23.19,-150.76 48.04,-35.23 115.47,-24.88 150.76,23.2z"/>
         <path class="fil21" d="M3544.42 2748.97l-11.65 -34.38c-1.52,-4.39 -6.34,-6.81 -10.77,-5.31l-14.31 4.83c-4.51,-6.62 -9.7,-12.67 -15.53,-18.02l6.95 -13.3c2.11,-4.28 0.44,-9.4 -3.7,-11.54l-32.19 -16.63c-4.23,-2.19 -9.42,-0.5 -11.54,3.7l-6.44 12.65c-9.19,-2.31 -18.64,-3.25 -28.3,-2.96l-4.22 -12.59c-1.52,-4.52 -6.36,-6.85 -10.77,-5.38l-34.43 11.69c-4.35,1.46 -6.84,6.34 -5.3,10.78l3.55 10.52c-7.88,4.74 -15.11,10.48 -21.34,16.88l-8.72 -4.47c-4.27,-2.21 -9.38,-0.52 -11.59,3.63l-16.57 32.22c-2.18,4.19 -0.51,9.34 3.68,11.5l6.75 3.44c-2.94,10.8 -4.12,22.08 -3.43,33.5l-6.21 2.08c-4.53,1.47 -6.89,6.29 -5.37,10.74l11.68 34.39c1.47,4.41 6.34,6.87 10.81,5.31l5.29 -1.8c5.54,8.87 12.38,16.73 20.08,23.48l-2.48 4.84c-2.22,4.24 -0.5,9.41 3.65,11.55l32.21 16.64c4.19,2.13 9.37,0.47 11.49,-3.69l3.01 -5.7c10.84,2.31 22.18,2.84 33.63,1.51l2.38 7.12c1.49,4.43 6.31,6.77 10.74,5.29l34.45 -11.68c4.34,-1.46 6.81,-6.32 5.29,-10.76l-3.15 -9.13c7.55,-5.41 14.33,-11.73 20.05,-18.77l9.64 4.99c4.22,2.23 9.33,0.52 11.52,-3.67l16.6 -32.17c2.13,-4.24 0.54,-9.4 -3.71,-11.57l-11.62 -5.93c1.65,-9.32 2.09,-18.85 1.21,-28.54l13.35 -4.5c4.46,-1.54 6.85,-6.29 5.33,-10.79zm-70.24 6.66l0 0c10.09,29.68 -5.86,62.02 -35.63,72.13 -29.77,10.1 -62.07,-5.82 -72.2,-35.61 -10.08,-29.75 5.85,-62.1 35.64,-72.15 29.79,-10.11 62.11,5.85 72.19,35.63z"/>
        </g>
       </g>
      </g>
      <g>
       <path class="fil21" d="M2946.3 2499.13c0,-44.41 36,-80.42 80.42,-80.42 44.42,0 80.42,36.01 80.42,80.42 0,44.41 -36,80.42 -80.42,80.42 -44.42,0 -80.42,-36.01 -80.42,-80.42z"/>
       <path class="fil22" d="M2982.35 2494.97c0,-24.51 19.86,-44.37 44.37,-44.37 24.51,0 44.37,19.86 44.37,44.37 0,24.5 -19.86,44.37 -44.37,44.37 -24.51,0 -44.37,-19.87 -44.37,-44.37z"/>
      </g>
     </g>
     <g>
      <g>
       <path class="fil23" d="M2734.91 2804.15c-38.67,0 -72.55,-16.81 -92.96,-46.11 -17.93,-25.74 -24.37,-56.44 -18.12,-86.43 6.32,-30.35 25.38,-57.92 53.67,-77.62l264.84 -160.22c31.21,-21.76 62.57,-33.42 90.23,-33.42 28.83,0 52.97,12.8 69.83,37 17.75,25.48 21.94,53.96 12.12,82.37 -9.05,26.15 -29.5,50.88 -59.13,71.52l-239.52 186.69c-24.74,17.24 -52.61,26.22 -80.96,26.22zm297.66 -387.16l0 0c-24.24,0 -52.31,10.63 -81.17,30.73l-264.84 160.21c-24.34,16.98 -40.99,40.9 -46.44,67.07 -5.3,25.46 0.2,51.58 15.49,73.53 17.25,24.77 46.15,38.97 79.3,38.97 24.94,0 49.52,-7.94 71.08,-22.96l239.54 -186.69c27.08,-18.88 45.37,-40.77 53.26,-63.57 8.12,-23.5 4.74,-46.19 -10.05,-67.42 -13.8,-19.82 -32.7,-29.87 -56.17,-29.87z"/>
      </g>
      <g>
       <path class="fil23" d="M3424.16 2840.91c-22.03,0 -46.41,-9.03 -70.5,-26.12l-377.74 -244.72c-48.88,-39.05 -48.09,-96.17 -22.4,-132.94l0.85 -1.51c14.11,-20.3 42.08,-32.91 73.01,-32.91 22.35,0 43.38,6.54 60.83,18.92l347.14 270.61c46.73,33.14 63.49,78.8 43.4,118.97l-0.87 1.38 -3.64 4.68c-12,15.46 -29.32,23.64 -50.08,23.64zm-455.8 -396.26l0 0 -0.89 1.58c-20.88,29.45 -24.1,76.54 18.17,110.36l377.36 244.43c21.25,15.07 42.86,23.25 61.16,23.25 15.65,0 28.08,-5.79 36.94,-17.2l3.13 -4.03c15.81,-32.59 1.36,-68.96 -38.81,-97.44l-347.14 -270.63c-18.17,-12.87 -37.74,-15.62 -50.9,-15.62 -24.92,0 -48,9.91 -59.02,25.3z"/>
      </g>
     </g>
    </g>
   </g>
  </g>
 </g>
</svg>
