<?xml version="1.0" encoding="UTF-8"?>
<!DOCTYPE svg PUBLIC "-//W3C//DTD SVG 1.1//EN" "http://www.w3.org/Graphics/SVG/1.1/DTD/svg11.dtd">
<!-- Creator: CorelDRAW 2018 (64 Bit Versão de avaliação) -->
<svg xmlns="http://www.w3.org/2000/svg" xml:space="preserve" width="59.2666mm" height="59.2666mm" version="1.1" style="shape-rendering:geometricPrecision; text-rendering:geometricPrecision; image-rendering:optimizeQuality; fill-rule:evenodd; clip-rule:evenodd"
viewBox="0 0 5926.66 5926.66"
 xmlns:xlink="http://www.w3.org/1999/xlink">
 <defs>
  <style type="text/css">
   <![CDATA[
    .fil3 {fill:#46B1BA}
    .fil1 {fill:#666666}
    .fil2 {fill:#C1C1C1}
    .fil7 {fill:#E8563D}
    .fil12 {fill:#F2D870}
    .fil11 {fill:#F6AC3B}
    .fil15 {fill:#F6D480}
    .fil21 {fill:#4B898C;fill-rule:nonzero}
    .fil5 {fill:#727070;fill-rule:nonzero}
    .fil10 {fill:#997972;fill-rule:nonzero}
    .fil9 {fill:#A8D6D8;fill-rule:nonzero}
    .fil19 {fill:#ACC8C8;fill-rule:nonzero}
    .fil8 {fill:#BCA79E;fill-rule:nonzero}
    .fil13 {fill:#D33B26;fill-rule:nonzero}
    .fil20 {fill:#DFEFEF;fill-rule:nonzero}
    .fil17 {fill:#E2E2E2;fill-rule:nonzero}
    .fil14 {fill:#E8563D;fill-rule:nonzero}
    .fil6 {fill:#EDEDED;fill-rule:nonzero}
    .fil16 {fill:#F47E13;fill-rule:nonzero}
    .fil4 {fill:#070707;fill-rule:nonzero;fill-opacity:0.149020}
    .fil18 {fill:#4B210C;fill-rule:nonzero;fill-opacity:0.149020}
    .fil0 {fill:gray;fill-opacity:0.200000}
   ]]>
  </style>
 </defs>
 <g id="Camada_x0020_1">
  <metadata id="CorelCorpID_0Corel-Layer"/>
  <path class="fil0" d="M2451.49 9099.81l10721.54 -18.77 -2310.28 -3861.13 -10.72 0c3.21,-25.15 5.45,-50.57 5.45,-76.65l0 -8507.13c0,-330.18 -264.31,-597.81 -590.25,-597.81l-14165.66 0c-326,0 -590.25,267.63 -590.25,597.81l0 8507.13c0,34.21 3.46,67.49 8.91,100.08l-4.74 -101.8 -2410.48 3974.54 24.35 0c11.08,210.46 233.7,378.54 507.41,378.54l19050.16 0c280.77,0 508.42,-176.77 508.42,-394.81l-10743.86 0z"/>
  <g id="_1438284572368">
   <g>
    <g>
     <path class="fil1" d="M10965.1 4820.42c0,326.56 -264.72,591.28 -591.25,591.28l-14190.56 0c-326.57,0 -591.29,-264.72 -591.29,-591.28l0 -8414.25c0,-326.56 264.72,-591.28 591.29,-591.28l14190.56 0c326.53,0 591.25,264.72 591.25,591.28l0 8414.25z"/>
     <polygon class="fil2" points="-4413.32,4919.4 -6818.53,8749.82 13284.75,8715.13 10970.41,4896.21 "/>
     <path class="fil1" d="M13307.11 8733.67c0,215.7 -228.06,390.57 -509.35,390.57l-19083.59 0c-281.29,0 -509.38,-174.87 -509.38,-390.57l20102.32 0z"/>
     <polygon class="fil3" points="10115.92,4196.93 -3550.92,4196.93 -3550.92,-3413.46 10115.92,-3413.46 "/>
    </g>
    <g>
     <g>
      <polygon class="fil4" points="-3407.78,6041.74 -3878.06,6041.74 -3665.13,5564.18 -3210.29,5564.18 "/>
      <polygon class="fil4" points="-3044.84,6644.39 -4146.76,6644.39 -3933.83,6166.83 -2866.64,6166.83 "/>
      <polygon class="fil4" points="-3265.4,7303.88 -4415.27,7303.88 -4203.1,6826.33 -3087.96,6826.33 "/>
      <polygon class="fil4" points="-2843.47,6041.74 -3313.75,6041.74 -3119.34,5564.18 -2664.5,5564.18 "/>
      <polygon class="fil4" points="-2279.17,6041.74 -2749.42,6041.74 -2573.54,5564.18 -2118.71,5564.18 "/>
      <polygon class="fil4" points="-1714.86,6041.74 -2185.12,6041.74 -2027.75,5564.18 -1572.92,5564.18 "/>
      <polygon class="fil4" points="-1150.56,6041.74 -1620.81,6041.74 -1481.96,5564.18 -1027.13,5564.18 "/>
      <polygon class="fil4" points="-586.23,6041.74 -1056.49,6041.74 -936.17,5564.18 -481.34,5564.18 "/>
      <polygon class="fil4" points="-21.94,6041.74 -492.18,6041.74 -390.38,5564.18 64.43,5564.18 "/>
      <polygon class="fil4" points="542.37,6041.74 72.11,6041.74 155.4,5564.18 610.22,5564.18 "/>
      <polygon class="fil4" points="1106.7,6041.74 636.42,6041.74 701.19,5564.18 1156.03,5564.18 "/>
      <polygon class="fil4" points="1671,6041.74 1200.73,6041.74 1246.98,5564.18 1701.82,5564.18 "/>
      <polygon class="fil4" points="2235.31,6041.74 1765.05,6041.74 1792.78,5564.18 2247.61,5564.18 "/>
      <polygon class="fil4" points="2799.63,6041.74 2329.38,6041.74 2338.57,5564.18 2793.4,5564.18 "/>
      <polygon class="fil4" points="3363.91,6041.74 2893.68,6041.74 2884.36,5564.18 3339.18,5564.18 "/>
      <polygon class="fil4" points="3928.25,6041.74 3457.96,6041.74 3430.13,5564.18 3884.98,5564.18 "/>
      <polygon class="fil4" points="4492.56,6041.74 4022.31,6041.74 3975.93,5564.18 4430.76,5564.18 "/>
      <polygon class="fil4" points="5056.87,6041.74 4586.61,6041.74 4521.74,5564.18 4976.56,5564.18 "/>
      <polygon class="fil4" points="5621.17,6041.74 5150.92,6041.74 5067.51,5564.18 5522.33,5564.18 "/>
      <polygon class="fil4" points="6185.48,6041.74 5715.22,6041.74 5613.32,5564.18 6068.14,5564.18 "/>
      <polygon class="fil4" points="6749.79,6041.74 6279.53,6041.74 6159.09,5564.18 6613.91,5564.18 "/>
      <polygon class="fil4" points="7314.13,6041.74 6843.87,6041.74 6704.89,5564.18 7159.72,5564.18 "/>
      <polygon class="fil4" points="7878.43,6041.74 7408.14,6041.74 7250.67,5564.18 7705.52,5564.18 "/>
      <polygon class="fil4" points="8442.74,6041.74 7972.49,6041.74 7796.47,5564.18 8251.3,5564.18 "/>
      <polygon class="fil4" points="9007.05,6041.74 8536.79,6041.74 8342.28,5564.18 8797.1,5564.18 "/>
      <polygon class="fil4" points="9571.36,6041.74 9101.1,6041.74 8888.05,5564.18 9342.88,5564.18 "/>
      <polygon class="fil4" points="10135.66,6041.74 9665.41,6041.74 9433.86,5564.18 9888.68,5564.18 "/>
      <polygon class="fil4" points="-4183.67,7917.9 -4714.58,7917.9 -4501.65,7440.35 -3986.18,7440.35 "/>
      <polygon class="fil4" points="-3546.6,7917.9 -4077.51,7917.9 -3883.1,7440.35 -3367.63,7440.35 "/>
      <polygon class="fil4" points="-2909.54,7917.9 -3440.42,7917.9 -3264.54,7440.35 -2749.08,7440.35 "/>
      <polygon class="fil4" points="-2272.47,7917.9 -2803.36,7917.9 -2645.99,7440.35 -2130.53,7440.35 "/>
      <polygon class="fil4" points="-1635.4,7917.9 -2166.29,7917.9 -2027.44,7440.35 -1511.98,7440.35 "/>
      <polygon class="fil4" points="-998.32,7917.9 -1529.21,7917.9 -1408.89,7440.35 -893.43,7440.35 "/>
      <polygon class="fil4" points="7257.04,7917.9 -865.61,7917.9 -764.57,7440.35 7121.92,7440.35 "/>
      <polygon class="fil4" points="7920.67,7917.9 7389.78,7917.9 7250.81,7440.35 7766.26,7440.35 "/>
      <polygon class="fil4" points="8557.74,7917.9 8026.81,7917.9 7869.34,7440.35 8384.83,7440.35 "/>
      <polygon class="fil4" points="9194.8,7917.9 8663.92,7917.9 8487.9,7440.35 9003.36,7440.35 "/>
      <polygon class="fil4" points="9831.91,7917.9 9301.02,7917.9 9106.47,7440.35 9621.93,7440.35 "/>
      <polygon class="fil4" points="10468.94,7917.9 9938.05,7917.9 9725,7440.35 10240.46,7440.35 "/>
      <polygon class="fil4" points="11106.04,7917.9 10575.15,7917.9 10343.57,7440.35 10859.03,7440.35 "/>
      <polygon class="fil4" points="-2481.65,6644.39 -2971.37,6644.39 -2795.49,6166.83 -2321.2,6166.83 "/>
      <polygon class="fil4" points="-1893.97,6644.39 -2383.69,6644.39 -2226.34,6166.83 -1752.04,6166.83 "/>
      <polygon class="fil4" points="-1306.29,6644.39 -1796.01,6644.39 -1657.17,6166.83 -1182.87,6166.83 "/>
      <polygon class="fil4" points="-718.61,6644.39 -1208.33,6644.39 -1088.01,6166.83 -613.71,6166.83 "/>
      <polygon class="fil4" points="-130.94,6644.39 -620.66,6644.39 -518.85,6166.83 -44.57,6166.83 "/>
      <polygon class="fil4" points="456.74,6644.39 -32.98,6644.39 50.29,6166.83 524.59,6166.83 "/>
      <polygon class="fil4" points="1044.44,6644.39 554.69,6644.39 619.46,6166.83 1093.78,6166.83 "/>
      <polygon class="fil4" points="1632.12,6644.39 1142.37,6644.39 1188.62,6166.83 1662.94,6166.83 "/>
      <polygon class="fil4" points="2219.8,6644.39 1730.07,6644.39 1757.8,6166.83 2232.11,6166.83 "/>
      <polygon class="fil4" points="2807.49,6644.39 2317.75,6644.39 2326.96,6166.83 2801.25,6166.83 "/>
      <polygon class="fil4" points="3395.16,6644.39 2905.43,6644.39 2896.11,6166.83 3370.42,6166.83 "/>
      <polygon class="fil4" points="3982.86,6644.39 3493.1,6644.39 3465.27,6166.83 3939.59,6166.83 "/>
      <polygon class="fil4" points="4570.52,6644.39 4080.8,6644.39 4034.43,6166.83 4508.72,6166.83 "/>
      <polygon class="fil4" points="5158.22,6644.39 4668.5,6644.39 4603.6,6166.83 5077.92,6166.83 "/>
      <polygon class="fil4" points="5745.89,6644.39 5256.16,6644.39 5172.76,6166.83 5647.04,6166.83 "/>
      <polygon class="fil4" points="6333.59,6644.39 5843.86,6644.39 5741.92,6166.83 6216.24,6166.83 "/>
      <polygon class="fil4" points="6921.25,6644.39 6431.53,6644.39 6311.09,6166.83 6785.37,6166.83 "/>
      <polygon class="fil4" points="7508.95,6644.39 7019.23,6644.39 6880.25,6166.83 7354.54,6166.83 "/>
      <polygon class="fil4" points="8096.65,6644.39 7606.89,6644.39 7449.38,6166.83 7923.74,6166.83 "/>
      <polygon class="fil4" points="8684.31,6644.39 8194.59,6644.39 8018.58,6166.83 8492.87,6166.83 "/>
      <polygon class="fil4" points="9272.01,6644.39 8782.29,6644.39 8587.74,6166.83 9062.06,6166.83 "/>
      <polygon class="fil4" points="9859.67,6644.39 9369.95,6644.39 9156.91,6166.83 9631.19,6166.83 "/>
      <polygon class="fil4" points="10770.83,7269.78 10260.89,7269.78 9726.07,6166.83 10200.36,6166.83 "/>
      <polygon class="fil4" points="-2703.23,7303.88 -3214.27,7303.88 -3038.38,6826.33 -2542.77,6826.33 "/>
      <polygon class="fil4" points="-2089.98,7303.88 -2601.01,7303.88 -2443.65,6826.33 -1948.04,6826.33 "/>
      <polygon class="fil4" points="-1476.72,7303.88 -1987.77,7303.88 -1848.91,6826.33 -1353.3,6826.33 "/>
      <polygon class="fil4" points="-863.46,7303.88 -1374.5,7303.88 -1254.19,6826.33 -758.57,6826.33 "/>
      <polygon class="fil4" points="-250.21,7303.88 -761.24,7303.88 -659.44,6826.33 -163.84,6826.33 "/>
      <polygon class="fil4" points="363.04,7303.88 -148.01,7303.88 -64.71,6826.33 430.89,6826.33 "/>
      <polygon class="fil4" points="976.32,7303.88 465.25,7303.88 530.02,6826.33 1025.65,6826.33 "/>
      <polygon class="fil4" points="1589.58,7303.88 1078.52,7303.88 1124.76,6826.33 1620.39,6826.33 "/>
      <polygon class="fil4" points="2202.84,7303.88 1691.79,7303.88 1719.51,6826.33 2215.12,6826.33 "/>
      <polygon class="fil4" points="2816.08,7303.88 2305.04,7303.88 2314.25,6826.33 2809.86,6826.33 "/>
      <polygon class="fil4" points="3429.34,7303.88 2918.3,7303.88 2908.98,6826.33 3404.6,6826.33 "/>
      <polygon class="fil4" points="4042.63,7303.88 3531.51,7303.88 3503.68,6826.33 3999.36,6826.33 "/>
      <polygon class="fil4" points="4655.86,7303.88 4144.81,7303.88 4098.44,6826.33 4594.05,6826.33 "/>
      <polygon class="fil4" points="5269.12,7303.88 4758.07,7303.88 4693.2,6826.33 5188.81,6826.33 "/>
      <polygon class="fil4" points="5882.38,7303.88 5371.33,7303.88 5287.93,6826.33 5783.54,6826.33 "/>
      <polygon class="fil4" points="6495.64,7303.88 5984.6,7303.88 5882.69,6826.33 6378.3,6826.33 "/>
      <polygon class="fil4" points="7108.87,7303.88 6597.82,7303.88 6477.38,6826.33 6973,6826.33 "/>
      <polygon class="fil4" points="7722.16,7303.88 7211.12,7303.88 7072.14,6826.33 7567.75,6826.33 "/>
      <polygon class="fil4" points="8335.43,7303.88 7824.35,7303.88 7666.87,6826.33 8162.52,6826.33 "/>
      <polygon class="fil4" points="8948.69,7303.88 8437.64,7303.88 8261.63,6826.33 8757.24,6826.33 "/>
      <polygon class="fil4" points="9561.95,7303.88 9050.9,7303.88 8856.39,6826.33 9352.01,6826.33 "/>
      <polygon class="fil4" points="10175.18,7303.88 9664.13,7303.88 9451.09,6826.33 9946.7,6826.33 "/>
     </g>
     <g>
      <g>
       <polygon class="fil5" points="-3407.78,6006.46 -3878.06,6006.46 -3665.13,5528.9 -3210.29,5528.9 "/>
       <polygon class="fil5" points="-3044.84,6609.11 -4146.76,6609.11 -3933.83,6131.55 -2866.64,6131.55 "/>
       <polygon class="fil5" points="-3265.4,7268.61 -4415.27,7268.61 -4203.1,6791.05 -3087.96,6791.05 "/>
       <polygon class="fil5" points="-2843.47,6006.46 -3313.75,6006.46 -3119.34,5528.9 -2664.5,5528.9 "/>
       <polygon class="fil5" points="-2279.17,6006.46 -2749.42,6006.46 -2573.54,5528.9 -2118.71,5528.9 "/>
       <polygon class="fil5" points="-1714.86,6006.46 -2185.12,6006.46 -2027.75,5528.9 -1572.92,5528.9 "/>
       <polygon class="fil5" points="-1150.56,6006.46 -1620.81,6006.46 -1481.96,5528.9 -1027.13,5528.9 "/>
       <polygon class="fil5" points="-586.23,6006.46 -1056.49,6006.46 -936.17,5528.9 -481.34,5528.9 "/>
       <polygon class="fil5" points="-21.94,6006.46 -492.18,6006.46 -390.38,5528.9 64.43,5528.9 "/>
       <polygon class="fil5" points="542.37,6006.46 72.11,6006.46 155.4,5528.9 610.22,5528.9 "/>
       <polygon class="fil5" points="1106.7,6006.46 636.42,6006.46 701.19,5528.9 1156.03,5528.9 "/>
       <polygon class="fil5" points="1671,6006.46 1200.73,6006.46 1246.98,5528.9 1701.82,5528.9 "/>
       <polygon class="fil5" points="2235.31,6006.46 1765.05,6006.46 1792.78,5528.9 2247.61,5528.9 "/>
       <polygon class="fil5" points="2799.63,6006.46 2329.38,6006.46 2338.57,5528.9 2793.4,5528.9 "/>
       <polygon class="fil5" points="3363.91,6006.46 2893.68,6006.46 2884.36,5528.9 3339.18,5528.9 "/>
       <polygon class="fil5" points="3928.25,6006.46 3457.96,6006.46 3430.13,5528.9 3884.98,5528.9 "/>
       <polygon class="fil5" points="4492.56,6006.46 4022.31,6006.46 3975.93,5528.9 4430.76,5528.9 "/>
       <polygon class="fil5" points="5056.87,6006.46 4586.61,6006.46 4521.74,5528.9 4976.56,5528.9 "/>
       <polygon class="fil5" points="5621.17,6006.46 5150.92,6006.46 5067.51,5528.9 5522.33,5528.9 "/>
       <polygon class="fil5" points="6185.48,6006.46 5715.22,6006.46 5613.32,5528.9 6068.14,5528.9 "/>
       <polygon class="fil5" points="6749.79,6006.46 6279.53,6006.46 6159.09,5528.9 6613.91,5528.9 "/>
       <polygon class="fil5" points="7314.13,6006.46 6843.87,6006.46 6704.89,5528.9 7159.72,5528.9 "/>
       <polygon class="fil5" points="7878.43,6006.46 7408.14,6006.46 7250.67,5528.9 7705.52,5528.9 "/>
       <polygon class="fil5" points="8442.74,6006.46 7972.49,6006.46 7796.47,5528.9 8251.3,5528.9 "/>
       <polygon class="fil5" points="9007.05,6006.46 8536.79,6006.46 8342.28,5528.9 8797.1,5528.9 "/>
       <polygon class="fil5" points="9571.36,6006.46 9101.1,6006.46 8888.05,5528.9 9342.88,5528.9 "/>
       <polygon class="fil5" points="10135.66,6006.46 9665.41,6006.46 9433.86,5528.9 9888.68,5528.9 "/>
       <polygon class="fil5" points="-4183.67,7882.63 -4714.58,7882.63 -4501.65,7405.07 -3986.18,7405.07 "/>
       <polygon class="fil5" points="-3546.6,7882.63 -4077.51,7882.63 -3883.1,7405.07 -3367.63,7405.07 "/>
       <polygon class="fil5" points="-2909.54,7882.63 -3440.42,7882.63 -3264.54,7405.07 -2749.08,7405.07 "/>
       <polygon class="fil5" points="-2272.47,7882.63 -2803.36,7882.63 -2645.99,7405.07 -2130.53,7405.07 "/>
       <polygon class="fil5" points="-1635.4,7882.63 -2166.29,7882.63 -2027.44,7405.07 -1511.98,7405.07 "/>
       <polygon class="fil5" points="-998.32,7882.63 -1529.21,7882.63 -1408.89,7405.07 -893.43,7405.07 "/>
       <polygon class="fil5" points="7257.04,7882.63 -865.61,7882.63 -764.57,7405.07 7121.92,7405.07 "/>
       <polygon class="fil5" points="7920.67,7882.63 7389.78,7882.63 7250.81,7405.07 7766.26,7405.07 "/>
       <polygon class="fil5" points="8557.74,7882.63 8026.81,7882.63 7869.34,7405.07 8384.83,7405.07 "/>
       <polygon class="fil5" points="9194.8,7882.63 8663.92,7882.63 8487.9,7405.07 9003.36,7405.07 "/>
       <polygon class="fil5" points="9831.91,7882.63 9301.02,7882.63 9106.47,7405.07 9621.93,7405.07 "/>
       <polygon class="fil5" points="10468.94,7882.63 9938.05,7882.63 9725,7405.07 10240.46,7405.07 "/>
       <polygon class="fil5" points="11106.04,7882.63 10575.15,7882.63 10343.57,7405.07 10859.03,7405.07 "/>
       <polygon class="fil5" points="-2481.65,6609.11 -2971.37,6609.11 -2795.49,6131.55 -2321.2,6131.55 "/>
       <polygon class="fil5" points="-1893.97,6609.11 -2383.69,6609.11 -2226.34,6131.55 -1752.04,6131.55 "/>
       <polygon class="fil5" points="-1306.29,6609.11 -1796.01,6609.11 -1657.17,6131.55 -1182.87,6131.55 "/>
       <polygon class="fil5" points="-718.61,6609.11 -1208.33,6609.11 -1088.01,6131.55 -613.71,6131.55 "/>
       <polygon class="fil5" points="-130.94,6609.11 -620.66,6609.11 -518.85,6131.55 -44.57,6131.55 "/>
       <polygon class="fil5" points="456.74,6609.11 -32.98,6609.11 50.29,6131.55 524.59,6131.55 "/>
       <polygon class="fil5" points="1044.44,6609.11 554.69,6609.11 619.46,6131.55 1093.78,6131.55 "/>
       <polygon class="fil5" points="1632.12,6609.11 1142.37,6609.11 1188.62,6131.55 1662.94,6131.55 "/>
       <polygon class="fil5" points="2219.8,6609.11 1730.07,6609.11 1757.8,6131.55 2232.11,6131.55 "/>
       <polygon class="fil5" points="2807.49,6609.11 2317.75,6609.11 2326.96,6131.55 2801.25,6131.55 "/>
       <polygon class="fil5" points="3395.16,6609.11 2905.43,6609.11 2896.11,6131.55 3370.42,6131.55 "/>
       <polygon class="fil5" points="3982.86,6609.11 3493.1,6609.11 3465.27,6131.55 3939.59,6131.55 "/>
       <polygon class="fil5" points="4570.52,6609.11 4080.8,6609.11 4034.43,6131.55 4508.72,6131.55 "/>
       <polygon class="fil5" points="5158.22,6609.11 4668.5,6609.11 4603.6,6131.55 5077.92,6131.55 "/>
       <polygon class="fil5" points="5745.89,6609.11 5256.16,6609.11 5172.76,6131.55 5647.04,6131.55 "/>
       <polygon class="fil5" points="6333.59,6609.11 5843.86,6609.11 5741.92,6131.55 6216.24,6131.55 "/>
       <polygon class="fil5" points="6921.25,6609.11 6431.53,6609.11 6311.09,6131.55 6785.37,6131.55 "/>
       <polygon class="fil5" points="7508.95,6609.11 7019.23,6609.11 6880.25,6131.55 7354.54,6131.55 "/>
       <polygon class="fil5" points="8096.65,6609.11 7606.89,6609.11 7449.38,6131.55 7923.74,6131.55 "/>
       <polygon class="fil5" points="8684.31,6609.11 8194.59,6609.11 8018.58,6131.55 8492.87,6131.55 "/>
       <polygon class="fil5" points="9272.01,6609.11 8782.29,6609.11 8587.74,6131.55 9062.06,6131.55 "/>
       <polygon class="fil5" points="9859.67,6609.11 9369.95,6609.11 9156.91,6131.55 9631.19,6131.55 "/>
       <polygon class="fil5" points="10770.83,7234.5 10260.89,7234.5 9726.07,6131.55 10200.36,6131.55 "/>
       <polygon class="fil5" points="-2703.23,7268.61 -3214.27,7268.61 -3038.38,6791.05 -2542.77,6791.05 "/>
       <polygon class="fil5" points="-2089.98,7268.61 -2601.01,7268.61 -2443.65,6791.05 -1948.04,6791.05 "/>
       <polygon class="fil5" points="-1476.72,7268.61 -1987.77,7268.61 -1848.91,6791.05 -1353.3,6791.05 "/>
       <polygon class="fil5" points="-863.46,7268.61 -1374.5,7268.61 -1254.19,6791.05 -758.57,6791.05 "/>
       <polygon class="fil5" points="-250.21,7268.61 -761.24,7268.61 -659.44,6791.05 -163.84,6791.05 "/>
       <polygon class="fil5" points="363.04,7268.61 -148.01,7268.61 -64.71,6791.05 430.89,6791.05 "/>
       <polygon class="fil5" points="976.32,7268.61 465.25,7268.61 530.02,6791.05 1025.65,6791.05 "/>
       <polygon class="fil5" points="1589.58,7268.61 1078.52,7268.61 1124.76,6791.05 1620.39,6791.05 "/>
       <polygon class="fil5" points="2202.84,7268.61 1691.79,7268.61 1719.51,6791.05 2215.12,6791.05 "/>
       <polygon class="fil5" points="2816.08,7268.61 2305.04,7268.61 2314.25,6791.05 2809.86,6791.05 "/>
       <polygon class="fil5" points="3429.34,7268.61 2918.3,7268.61 2908.98,6791.05 3404.6,6791.05 "/>
       <polygon class="fil5" points="4042.63,7268.61 3531.51,7268.61 3503.68,6791.05 3999.36,6791.05 "/>
       <polygon class="fil5" points="4655.86,7268.61 4144.81,7268.61 4098.44,6791.05 4594.05,6791.05 "/>
       <polygon class="fil5" points="5269.12,7268.61 4758.07,7268.61 4693.2,6791.05 5188.81,6791.05 "/>
       <polygon class="fil5" points="5882.38,7268.61 5371.33,7268.61 5287.93,6791.05 5783.54,6791.05 "/>
       <polygon class="fil5" points="6495.64,7268.61 5984.6,7268.61 5882.69,6791.05 6378.3,6791.05 "/>
       <polygon class="fil5" points="7108.87,7268.61 6597.82,7268.61 6477.38,6791.05 6973,6791.05 "/>
       <polygon class="fil5" points="7722.16,7268.61 7211.12,7268.61 7072.14,6791.05 7567.75,6791.05 "/>
       <polygon class="fil5" points="8335.43,7268.61 7824.35,7268.61 7666.87,6791.05 8162.52,6791.05 "/>
       <polygon class="fil5" points="8948.69,7268.61 8437.64,7268.61 8261.63,6791.05 8757.24,6791.05 "/>
       <polygon class="fil5" points="9561.95,7268.61 9050.9,7268.61 8856.39,6791.05 9352.01,6791.05 "/>
       <polygon class="fil5" points="10175.18,7268.61 9664.13,7268.61 9451.09,6791.05 9946.7,6791.05 "/>
      </g>
     </g>
    </g>
   </g>
   <g>
    <g>
     <path class="fil6" d="M5971.16 -2300.73c0,0 8.44,5.52 24.8,16.23 16.3,10.82 40.83,25.96 71.66,48.92 61.81,45.18 152.45,112.07 255.87,212.65 51.61,50.24 107.49,107.72 164.71,174.06 57.53,66.11 113.9,142.63 170.88,227.08 56.6,84.68 112.24,178.39 164.54,281.02 51.95,102.78 97.35,215.54 138.49,335.62 40.96,120.19 75.55,248.48 101.84,383.51 25.9,135.12 40.44,277.02 47.22,423.34 6,146.33 2.87,297.36 -11.71,450.86 -13.91,153.65 -43.71,308.73 -81.51,464.33 -78.24,310.25 -195.95,623.49 -364.83,914.12 -83.72,145.47 -175.91,287.6 -277.71,423.08 -102.01,135.73 -209.33,266.48 -329.42,388.74 -243.61,247.82 -522.35,452.39 -814.22,617.7 -292.21,165.64 -601.82,281.87 -906.85,366.59 -305.48,85.09 -611.61,124.57 -902.92,130.15 -291.35,7.31 -570.02,-29.9 -818.1,-107 -123.61,-39.72 -240.93,-86.4 -344.25,-149.48 -103.3,-62.46 -195.29,-134.19 -268.55,-215.39 -73.34,-80.75 -129.79,-167.94 -165.17,-254.79 -36.21,-86.52 -54.16,-170.32 -61.64,-245.13 -7.45,-74.9 -6.18,-141.39 1.85,-197.87 2.6,-28.36 7.54,-54.11 11.92,-77.6 3.77,-23.57 9.11,-44.53 13.83,-63.24 8.51,-37.6 17.97,-65.47 23.74,-84.35 5.84,-18.81 8.85,-28.53 8.85,-28.53l27.56 6.13c0,0 -1.86,9.74 -5.44,28.58 -3.52,18.86 -9.63,46.72 -13.73,83.6 -8.91,73.12 -19.29,183.33 6.51,318.91 12.83,67.49 35.61,140.94 74.02,214.27 38.22,73.33 92.12,146.12 161.45,212.21 139,132.66 339.78,232.16 570.32,289.11 230.98,57.29 491.61,76 764.39,58.94 273.02,-16.36 558.76,-69.11 844.6,-154.99 285.63,-86.58 571.61,-207.36 842.53,-364.55 270.61,-157.1 527.07,-350.2 747.11,-578.99 221.34,-228.2 415.71,-482.95 574.33,-752.85 158.2,-270.2 279.4,-556.2 359.32,-843.48 80.17,-287.27 117.96,-575.62 118.68,-848.91 0.38,-273.35 -36.17,-531.55 -99.39,-761.54 -62.25,-230.45 -150.27,-432.5 -245.15,-601.43 -94.74,-169.33 -196.47,-305.44 -286.91,-411.21 -90.81,-105.57 -170.12,-181.61 -225.27,-231.52 -27.25,-25.21 -49.44,-43.69 -64.15,-56.3 -14.74,-12.59 -22.36,-19.1 -22.36,-19.1l18.26 -21.5z"/>
     <g>
      <polygon class="fil7" points="4584.2,-4438.7 5947.6,-4390.39 6065.87,-4162.82 5118.5,-3626.38 "/>
      <polygon class="fil7" points="3793.2,-3734.39 3683.72,-2374.51 3896.11,-2230.74 4538.38,-3109.81 "/>
      <g>
       <path class="fil8" d="M3076.83 -5918.22l-295.27 260.25 -295.34 260.27c0,0 -45.27,446.71 629.16,1212.14 674.45,765.4 1537.93,1332.17 1537.93,1332.17l337.52 -297.4 337.48 -297.38c0,0 -453.62,-927.95 -1128.03,-1693.37 -674.48,-765.39 -1123.45,-776.68 -1123.45,-776.68z"/>
       <g>
        <g>
         <path class="fil9" d="M3606.45 -4724.01c123.61,-108.9 135.59,-298.14 26.59,-421.89 -108.93,-123.67 -298.24,-135.54 -421.88,-26.68 -123.58,108.99 -135.6,298.3 -26.67,421.92 109.07,123.74 298.31,135.62 421.96,26.65z"/>
         <path class="fil10" d="M3650.1 -4674.45c151.2,-133.27 165.74,-363.82 32.48,-515.09 -133.22,-151.19 -363.8,-165.82 -515.04,-32.54 -151.24,133.27 -165.78,363.83 -32.48,515 133.25,151.3 363.83,165.82 515.04,32.63zm-408.32 -463.38l0 0c104.49,-92.04 264.48,-82 356.54,22.54 92.09,104.56 82.02,264.5 -22.47,356.55 -104.52,92.13 -264.44,82.05 -356.63,-22.52 -92.06,-104.48 -81.93,-264.47 22.56,-356.57z"/>
        </g>
        <g>
         <path class="fil9" d="M4103.85 -4166.59c59.7,-52.61 65.45,-143.97 12.88,-203.73 -52.64,-59.74 -144.04,-65.47 -203.74,-12.87 -59.67,52.6 -65.49,144.04 -12.85,203.72 52.61,59.75 144.01,65.48 203.71,12.88z"/>
         <path class="fil10" d="M4124.93 -4142.68c73.01,-64.34 80.03,-175.7 15.68,-248.72 -64.32,-73 -175.67,-80.07 -248.7,-15.71 -73.01,64.35 -80.07,175.7 -15.71,248.7 64.38,73.02 175.73,80.05 248.73,15.73zm-197.16 -223.75l0 0c50.44,-44.42 127.71,-39.6 172.19,10.87 44.44,50.53 39.58,127.73 -10.89,172.17 -50.44,44.48 -127.64,39.62 -172.18,-10.87 -44.48,-50.43 -39.55,-127.71 10.88,-172.17z"/>
        </g>
        <g>
         <path class="fil9" d="M4542.34 -3674.17c59.7,-52.57 65.49,-143.93 12.85,-203.69 -52.57,-59.75 -144,-65.51 -203.71,-12.88 -59.7,52.6 -65.49,144.02 -12.88,203.7 52.67,59.76 144.07,65.51 203.74,12.87z"/>
         <path class="fil10" d="M4563.42 -3650.22c73.04,-64.36 80.07,-175.7 15.71,-248.74 -64.35,-73 -175.69,-80.06 -248.73,-15.71 -73,64.35 -80.03,175.7 -15.68,248.7 64.36,73.04 175.7,80.05 248.7,15.75zm-197.16 -223.78l0 0c50.47,-44.41 127.74,-39.58 172.19,10.89 44.44,50.52 39.62,127.7 -10.85,172.17 -50.51,44.49 -127.71,39.61 -172.22,-10.86 -44.48,-50.45 -39.55,-127.71 10.88,-172.2z"/>
        </g>
       </g>
      </g>
      <g>
       <path class="fil11" d="M4787.39 -2893.82l533.44 -438.7c0,0 347.16,230.31 506.64,673.62 0,0 -85.72,-26.85 -198.48,-52.23 0,0 109.56,147.69 118.1,393.66 0,0 -475.01,171.91 -959.7,-576.35z"/>
       <path class="fil12" d="M4839.55 -2937.37l419.1 -344.68c0,0 269.99,144.6 395.36,492.88 0,0 -91.78,-17.28 -161.27,-47.54 0,0 94.09,158.9 100.84,352.15 0,0 -373.21,135.12 -754.03,-452.81z"/>
       <path class="fil13" d="M5406.96 -3483.14c19.26,21.69 17.36,54.92 -4.34,74.24l-732.78 652.52c-21.7,19.33 -54.95,17.38 -74.24,-4.29 -19.29,-21.66 -17.39,-54.89 4.31,-74.22l732.81 -652.54c21.66,-19.3 54.91,-17.38 74.24,4.29z"/>
      </g>
      <g>
       <polygon class="fil14" points="2454.83,-5312.81 2186.23,-6334.16 3165.65,-5939.2 "/>
       <path class="fil13" d="M3219.56 -5935.06c14.16,16.09 12.54,40.56 -3.44,54.71l-709.27 624.99c-16.02,14.09 -40.53,12.61 -54.67,-3.46 -14.14,-16.06 -12.59,-40.57 3.44,-54.71l709.23 -624.96c16.02,-14.07 40.59,-12.59 54.71,3.43z"/>
      </g>
     </g>
    </g>
    <g>
     <g>
      <g>
       <g>
        <polygon class="fil15" points="4361.06,2115.08 4282.96,2088.61 4234.18,2155.06 4218.02,2074.22 4136.13,2065.18 4198.04,2010.82 4164.89,1935.32 4243,1961.78 4291.75,1895.36 4307.94,1976.18 4389.83,1985.25 4327.85,2039.6 "/>
        <polygon class="fil15" points="3473.05,2328.66 3364.39,2291.81 3296.56,2384.26 3274.06,2271.8 3160.03,2259.19 3246.23,2183.55 3200.13,2078.48 3308.76,2115.31 3376.62,2022.87 3399.16,2135.36 3513.12,2148 3426.89,2223.62 "/>
        <polygon class="fil15" points="3745.56,1382.29 3691.82,1364.09 3658.3,1409.84 3647.1,1354.2 3590.67,1347.96 3633.42,1310.51 3610.48,1258.53 3664.32,1276.75 3697.85,1231.02 3709.01,1286.67 3765.4,1292.93 3722.79,1330.32 "/>
       </g>
       <g>
        <polygon class="fil15" points="5688.18,-1654.12 5667.68,-1574.24 5737.62,-1530.63 5658.24,-1508.41 5655.42,-1426.05 5596.54,-1483.69 5523.75,-1444.93 5544.25,-1524.81 5474.31,-1568.39 5553.68,-1590.64 5556.54,-1672.98 5615.42,-1615.29 "/>
        <polygon class="fil15" points="5968.3,-784.82 5939.78,-673.68 6037.1,-613.03 5926.65,-582.09 5922.69,-467.44 5840.76,-547.66 5739.48,-493.74 5767.97,-604.84 5670.68,-665.53 5781.13,-696.5 5785.13,-811.1 5867.05,-730.83 "/>
        <polygon class="fil15" points="5004.02,-984.96 4989.93,-929.99 5038.09,-900.04 4983.45,-884.66 4981.52,-827.92 4940.94,-867.72 4890.85,-840.9 4904.94,-895.97 4856.81,-925.95 4911.45,-941.29 4913.41,-998 4953.93,-958.33 "/>
       </g>
       <g>
        <polygon class="fil15" points="1747.65,-857.63 1680.89,-905.98 1614.67,-856.9 1623.12,-938.91 1547.53,-971.78 1622.77,-1005.42 1613.44,-1087.37 1680.22,-1038.98 1746.43,-1087.98 1737.99,-1005.99 1813.54,-973.11 1738.32,-939.54 "/>
        <polygon class="fil15" points="836.19,-916.2 743.32,-983.45 651.11,-915.25 662.93,-1029.28 557.75,-1075.07 662.5,-1121.8 649.46,-1235.85 742.41,-1168.53 834.55,-1236.78 822.78,-1122.68 927.96,-1076.89 823.21,-1030.16 "/>
        <polygon class="fil15" points="1376.39,-1739.61 1330.49,-1772.85 1284.89,-1739.11 1290.63,-1795.57 1238.62,-1818.19 1290.46,-1841.34 1284,-1897.77 1330.01,-1864.44 1375.59,-1898.24 1369.69,-1841.82 1421.76,-1819.12 1369.95,-1795.99 "/>
       </g>
      </g>
      <g>
       <g>
        <path class="fil16" d="M3351.51 -1855.86c0,0 -3.24,-41.34 -8.1,-103.37 -5.09,-62.01 -9.09,-144.72 -14.02,-227.41 -2.1,-41.35 -7.06,-82.7 -7.64,-121.46 0.13,-38.76 3.37,-74.95 7.64,-105.95 7.93,-62.03 22.12,-103.38 22.12,-103.38l6.34 0c0,0 14.19,41.35 22.11,103.38 4.28,31 7.51,67.19 7.65,105.95 -0.58,38.76 -5.54,80.11 -7.65,121.46 -4.92,82.69 -8.92,165.4 -14.02,227.41 -4.85,62.03 -8.09,103.37 -8.09,103.37l-6.34 0z"/>
        <path class="fil16" d="M4339.53 -1449.95c0,0 24.15,-27.35 61.29,-67.38 36.62,-40.6 87.33,-92.67 137.42,-145.44 25.25,-26.11 48.65,-54.32 73.28,-77.79 25.11,-22.94 50.68,-42.04 73.62,-57.32 45.44,-31.01 81.75,-45.13 81.75,-45.13l4.27 4.65c0,0 -17.08,35.02 -51.78,77.7 -17.15,21.57 -38.3,45.46 -63.28,68.58 -25.43,22.6 -55.5,43.52 -83.65,66.54 -56.74,45.51 -112.86,91.71 -156.37,124.8 -43,33.66 -72.28,55.45 -72.28,55.45l-4.27 -4.66z"/>
        <path class="fil16" d="M2461.19 -1445.29c0,0 -29.27,-21.79 -72.26,-55.45 -43.53,-33.09 -99.65,-79.29 -156.41,-124.8 -28.15,-23.02 -58.21,-43.94 -83.65,-66.54 -24.96,-23.12 -46.13,-47.01 -63.27,-68.58 -34.69,-42.68 -51.79,-77.7 -51.79,-77.7l4.27 -4.65c0,0 36.32,14.12 81.77,45.13 22.9,15.28 48.48,34.38 73.62,57.32 24.63,23.47 48.01,51.68 73.28,77.79 50.09,52.77 100.82,104.84 137.42,145.44 37.14,40.03 61.29,67.38 61.29,67.38l-4.27 4.66z"/>
        <path class="fil17" d="M2803.09 -1818.1c0,0 -51.14,-89.01 -96.29,-180.41 -11.43,-22.79 -25.49,-44.53 -34.91,-66.42 -8.77,-22.15 -14.04,-43.99 -17.17,-63.27 -6.84,-38.34 -3.14,-67.21 -3.14,-67.21l5.86 -2.34c0,0 22.65,18.29 44.21,50.69 11.06,16.11 22.36,35.52 31.35,57.59 8.34,22.32 13.22,47.74 20.73,72.12 30.61,97.25 55.24,196.89 55.22,196.9l-5.86 2.35z"/>
        <path class="fil17" d="M3958.57 -1820.45c0,0 24.6,-99.65 55.16,-196.9 7.51,-24.36 12.4,-49.78 20.7,-72.11 8.99,-22.06 20.29,-41.49 31.35,-57.58 21.57,-32.42 44.2,-50.71 44.2,-50.71l5.86 2.34c0,0 3.72,28.87 -3.1,67.2 -3.14,19.27 -8.41,41.13 -17.16,63.28 -9.44,21.88 -23.49,43.62 -34.9,66.42 -45.13,91.4 -96.25,180.42 -96.25,180.42l-5.86 -2.36z"/>
       </g>
       <g>
        <path class="fil16" d="M963.5 918.26c0,0 -38.15,16.22 -95.41,40.56 -57.17,24.58 -134.31,54.69 -211.13,85.66 -38.54,15.16 -76.16,33.01 -112.71,45.91 -36.79,12.21 -72.12,20.65 -102.89,26.46 -61.32,12.21 -105.04,11.92 -105.04,11.92l-2 -6c0,0 34.68,-26.61 90.95,-53.88 28.05,-13.9 61.31,-28.49 98.02,-40.94 36.93,-11.78 77.7,-20.26 117.58,-31.41 79.96,-21.65 159.62,-44.18 220.05,-59.06 60.34,-15.12 100.58,-25.22 100.58,-25.22l2 6z"/>
        <path class="fil16" d="M1033.94 -147.55c0,0 -33.63,-14.2 -83.39,-36.68 -50.15,-21.77 -115.66,-53.29 -181.61,-83.97 -32.82,-15.65 -66.99,-28.82 -97.07,-44.72 -29.75,-16.53 -56,-34.68 -77.77,-51.55 -43.86,-33.21 -68.8,-63.14 -68.8,-63.14l3.03 -5.55c0,0 38.66,5.08 90.16,24.38 25.91,9.38 55.28,21.85 85.15,38.17 29.52,16.91 58.92,38.76 89.69,58.1 61.2,39.31 122.85,77.83 168.08,108.56 45.6,30.04 75.56,50.85 75.56,50.85l-3.03 5.55z"/>
        <path class="fil16" d="M1636.05 1631.68c-0.02,0 -11.35,34.68 -29.57,86.15 -17.52,51.8 -43.46,119.7 -68.55,187.98 -12.86,34 -23.13,69.16 -36.46,100.46 -13.97,31.02 -29.87,58.7 -44.87,81.82 -29.42,46.47 -57.19,73.83 -57.19,73.83l-5.77 -2.58c0.02,0 1.82,-38.94 16.78,-91.87 7.18,-26.59 17.15,-56.91 30.91,-88.04 14.4,-30.82 33.7,-61.94 50.42,-94.22 34.08,-64.29 67.3,-128.93 94.16,-176.56 26.13,-47.94 44.37,-79.55 44.37,-79.55l5.77 2.58z"/>
        <path class="fil17" d="M1173.82 1426.16c0,0 -68.11,76.8 -140.39,148.7 -17.96,18.08 -34.1,38.32 -51.84,54.22 -18.23,15.37 -37.26,27.32 -54.52,36.43 -34.18,18.68 -62.72,24.35 -62.72,24.36l-4.1 -4.82c0,0 10.13,-27.29 34,-58.05 11.73,-15.61 26.55,-32.51 44.62,-48.04 18.5,-15.01 41.04,-27.72 61.77,-42.6 82.45,-59.96 169.08,-115.02 169.08,-115.02l4.1 4.82z"/>
        <path class="fil17" d="M803.89 331.49c0,0.02 -102.29,8.39 -204.21,10.35 -25.49,0.64 -51.14,4.12 -74.95,3.33 -23.77,-1.5 -45.78,-6.03 -64.56,-11.39 -37.6,-10.13 -62.15,-25.77 -62.15,-25.77l0.38 -6.31c0,0 26.18,-12.71 64.68,-18.43 19.28,-3.15 41.67,-5.11 65.46,-3.86 23.74,1.97 48.82,8.36 74.07,11.94 101.01,13.7 201.66,33.82 201.66,33.83l-0.38 6.31z"/>
       </g>
       <g>
        <path class="fil16" d="M5850.06 881.19c0,0 34.56,4.77 86.37,11.9 51.89,6.94 120.55,18.52 189.34,29.3 34.39,5.55 69.15,9.32 101.15,15.54 31.84,7.06 60.98,16.22 85.68,25.3 49.51,17.76 80.96,36.73 80.93,36.73l-1.1 5.2c-0.04,0 -36.52,4.12 -88.92,-0.38 -26.22,-2.07 -56.53,-5.89 -88.4,-12.75 -31.66,-7.7 -64.84,-18.77 -98.39,-28.07 -67.05,-18.9 -134.29,-37.02 -184.32,-52.37 -50.06,-15.12 -83.44,-25.2 -83.44,-25.2l1.1 -5.2z"/>
        <path class="fil16" d="M5339.33 1619.92c0,0 17.74,24.97 44.34,62.44 26.8,37.36 60.46,88.38 94.81,138.99 16.91,25.46 35.9,49.72 50.74,74.17 14.33,24.76 25.46,49.19 33.9,70.77 17.3,42.89 22.4,75.26 22.4,75.26l-4.62 2.68c0,0 -25.67,-20.34 -54.54,-56.5 -14.64,-17.95 -30.45,-39.63 -44.95,-64.28 -13.99,-24.96 -25.81,-53.4 -39.66,-80.65 -27.18,-54.79 -55.08,-109.19 -74.45,-150.88 -19.53,-41.6 -32.59,-69.31 -32.59,-69.31l4.62 -2.69z"/>
        <path class="fil16" d="M5672.68 76.14c0,0 23.39,-19.78 58.53,-49.42 34.97,-29.82 82.99,-67.63 130.57,-106.08 23.98,-19 46.54,-39.93 69.69,-56.77 23.47,-16.35 46.89,-29.46 67.7,-39.67 41.31,-20.84 73.14,-28.6 73.14,-28.6l3.03 4.34c0,0 -18.12,27.31 -51.75,59.07 -16.67,16.09 -36.96,33.68 -60.28,50.2 -23.71,16.02 -51.1,30.15 -77.07,46.23 -52.33,31.68 -104.22,64.01 -144.18,86.78 -39.79,22.96 -66.35,38.26 -66.35,38.26l-3.03 -4.34z"/>
        <path class="fil17" d="M5917.55 423.9c0,0 20.54,-6.68 51.54,-15.59 30.91,-9.54 72.49,-19.94 113.93,-31.12 20.78,-5.29 41.17,-12.94 60.84,-16.75 19.74,-3.22 38.66,-3.63 55.06,-2.75 32.69,1.25 55.74,9.49 55.74,9.49l0.89 5.23c0,0 -19.08,15.32 -49.57,27.22 -15.23,6.2 -33.21,11.99 -52.95,15.42 -19.81,2.84 -41.58,2.29 -62.95,4.08 -42.82,3 -85.5,6.79 -117.85,7.85 -32.18,1.74 -53.78,2.16 -53.78,2.16l-0.9 -5.24z"/>
        <path class="fil17" d="M5712.02 1373.49c0,0 19.47,9.39 48.02,24.39 28.94,14.46 66.15,35.69 103.84,56.28 18.67,10.54 38.69,19.1 55.53,29.95 16.51,11.34 30.42,24.1 41.66,36.07 22.77,23.53 33.72,45.43 33.72,45.43l-2.96 4.39c0,-0.02 -24.39,-2.14 -54.64,-14.63 -15.3,-6.04 -32.28,-14.27 -48.92,-25.45 -16.29,-11.67 -31.63,-27.12 -48.3,-40.59 -33,-27.44 -66.49,-54.22 -90.57,-75.79 -24.46,-21.02 -40.34,-35.64 -40.34,-35.64l2.96 -4.41z"/>
       </g>
      </g>
     </g>
     <g>
      <g>
       <g>
        <g>
         <path class="fil18" d="M4339.84 -904.57l-200.71 -211.51c-25.77,-27.18 -69.11,-28.44 -96.57,-2.36l-87.54 83.22c-55.6,-33.44 -114.03,-59.92 -174.39,-79.71l5.58 -120.47c1.59,-37.86 -27.7,-69.78 -65.38,-71.43l-291.15 -12.66c-37.8,-1.76 -69.56,27.62 -71.21,65.47l-5.07 113.86c-74.1,14.5 -146.72,39.03 -215.86,73.48l-73.42 -77.48c-26.05,-27.35 -69.31,-28.61 -96.73,-2.58l-211.39 200.54c-27.39,26.01 -28.42,69.33 -2.45,96.7l61.24 64.56c-41.89,61.43 -74.79,126.95 -99.1,195.22l-79.1 -3.6c-37.87,-1.74 -69.64,27.78 -71.31,65.4l-12.71 291.16c-1.67,37.82 27.35,69.52 65.06,71.31l61.18 2.69c15.08,88.15 44.03,174.56 87.15,255.59l-38.11 36.07c-27.4,26.04 -28.5,69.45 -2.67,96.6l200.66 211.56c25.95,27.32 69.14,28.29 96.59,2.31l32.53 -31c70.69,46.02 146.83,80.44 225.79,103.42l-2 44.68c-1.66,37.58 27.84,69.62 65.35,71.45l291.22 12.64c37.58,1.62 69.55,-27.7 71.17,-65.49l2.45 -51.36c87.09,-19.81 172.08,-53.82 250.77,-101.98l41.23 43.48c25.94,27.35 69.11,28.45 96.57,2.51l211.39 -200.57c27.42,-26.04 28.53,-69.21 2.55,-96.6l-53.19 -56.09c36.58,-64.9 64.42,-133.5 82.82,-204.19l87.37 3.76c37.69,1.68 69.72,-27.53 71.24,-65.36l12.68 -291.1c1.86,-37.55 -27.35,-69.38 -65.04,-71.12l-105.6 -4.48c-18.81,-73.35 -47.78,-144.85 -86.64,-212.18l82.06 -77.77c27.39,-26.14 28.6,-69.27 2.69,-96.59zm-561.79 352.54l0 0c136.15,143.52 130.29,370.51 -13.41,506.81 -143.72,136.29 -370.69,130.35 -506.91,-13.19 -136.42,-143.78 -130.32,-370.65 13.3,-506.99 143.73,-136.32 370.49,-130.45 507.02,13.37z"/>
         <path class="fil18" d="M3152.25 42.5l-172.42 -235.13c-22.16,-30.22 -65.01,-36.93 -95.52,-14.52l-97.32 71.54c-50.94,-40.18 -105.58,-73.82 -162.97,-101.07l20.71 -118.79c6.37,-37.37 -18.68,-72.73 -55.85,-79.1l-287.23 -49.26c-37.26,-6.5 -72.51,18.65 -78.9,55.98l-19.36 112.33c-75.36,5.04 -150.46,20.22 -223.41,45.67l-63.08 -86.1c-22.38,-30.42 -65.15,-37.13 -95.64,-14.77l-234.97 172.3c-30.44,22.36 -36.94,65.22 -14.61,95.64l52.61 71.76c-49.3,55.67 -90.2,116.51 -122.91,181.14l-78.01 -13.51c-37.36,-6.51 -72.59,18.78 -79,55.88l-49.3 287.26c-6.42,37.31 18.38,72.41 55.55,78.92l60.36 10.38c3.85,89.36 21.69,178.73 54.25,264.54l-42.34 30.97c-30.48,22.4 -37.04,65.32 -14.83,95.5l172.41 235.17c22.28,30.38 65.02,36.79 95.53,14.46l36.17 -26.66c64.3,54.57 135.53,98.32 210.98,131.05l-7.65 44.06c-6.37,37.11 18.88,72.59 55.85,79.14l287.32 49.23c37.05,6.34 72.46,-18.71 78.85,-55.99l8.88 -50.64c88.9,-8.68 177.5,-31.69 261.63,-69.55l35.42 48.3c22.27,30.42 64.97,36.96 95.48,14.67l234.99 -172.32c30.46,-22.39 37.01,-65.08 14.68,-95.54l-45.69 -62.32c44.45,-59.77 80.7,-124.33 107.91,-192.13l86.17 14.74c37.2,6.41 72.65,-18.53 78.92,-55.88l49.26 -287.18c6.62,-37 -18.39,-72.27 -55.6,-78.75l-104.14 -17.74c-9.41,-75.14 -29.12,-149.69 -59.23,-221.42l91.23 -66.8c30.45,-22.5 37.07,-65.11 14.82,-95.46zm-522.08 220.55l0 0c149.17,203.47 105.26,489.72 -98.46,639.07 -203.69,149.31 -489.9,105.31 -639.15,-98.19 -149.49,-203.81 -105.3,-489.86 98.32,-639.27 203.73,-149.38 489.65,-105.49 639.29,98.39z"/>
         <path class="fil18" d="M5705.27 777.13l-49.41 -145.8c-6.44,-18.6 -26.87,-28.87 -45.68,-22.5l-60.63 20.5c-19.15,-28.08 -41.14,-53.74 -65.87,-76.41l29.45 -56.43c8.96,-18.12 1.87,-39.83 -15.67,-48.92l-136.5 -70.49c-17.91,-9.3 -39.92,-2.13 -48.92,15.68l-27.32 53.64c-38.96,-9.78 -79.02,-13.78 -119.99,-12.54l-17.88 -53.4c-6.44,-19.16 -26.97,-29.04 -45.68,-22.81l-145.97 49.54c-18.46,6.21 -29.04,26.91 -22.49,45.75l15.05 44.58c-33.42,20.12 -64.08,44.45 -90.47,71.59l-37 -18.95c-18.08,-9.4 -39.76,-2.2 -49.13,15.37l-70.28 136.63c-9.23,17.78 -2.17,39.62 15.61,48.78l28.63 14.58c-12.47,45.78 -17.47,93.6 -14.54,142.04l-26.35 8.82c-19.19,6.23 -29.18,26.66 -22.78,45.54l49.54 145.8c6.24,18.71 26.87,29.15 45.83,22.53l22.46 -7.65c23.49,37.62 52.5,70.97 85.13,99.56l-10.51 20.54c-9.41,17.98 -2.11,39.89 15.47,48.99l136.6 70.55c17.77,9.03 39.71,2 48.71,-15.64l12.74 -24.18c45.99,9.78 94.06,12.05 142.63,6.41l10.06 30.17c6.34,18.81 26.77,28.74 45.55,22.47l146.07 -49.54c18.39,-6.2 28.9,-26.81 22.42,-45.62l-13.33 -38.72c32.01,-22.95 60.74,-49.75 85.03,-79.62l40.86 21.19c17.88,9.44 39.55,2.21 48.85,-15.57l70.38 -136.43c9.03,-17.98 2.27,-39.86 -15.74,-49.05l-49.27 -25.12c6.99,-39.52 8.89,-79.96 5.14,-121.03l56.6 -19.08c18.91,-6.55 29.04,-26.67 22.6,-45.75zm-297.83 28.25l0 0c42.79,125.85 -24.84,262.96 -151.07,305.85 -126.23,42.79 -263.2,-24.7 -306.13,-151 -42.75,-126.15 24.77,-263.3 151.1,-305.95 126.3,-42.86 263.35,24.8 306.1,151.1z"/>
        </g>
        <g>
         <g>
          <path class="fil19" d="M4304.56 -1010.4l-200.71 -211.51c-25.77,-27.18 -69.11,-28.44 -96.57,-2.36l-87.54 83.21c-55.6,-33.43 -114.03,-59.91 -174.39,-79.7l5.58 -120.47c1.59,-37.87 -27.7,-69.79 -65.38,-71.44l-291.15 -12.66c-37.79,-1.76 -69.56,27.63 -71.21,65.47l-5.06 113.87c-74.11,14.5 -146.73,39.03 -215.87,73.48l-73.42 -77.48c-26.04,-27.36 -69.3,-28.61 -96.73,-2.59l-211.39 200.54c-27.39,26.01 -28.42,69.33 -2.44,96.71l61.23 64.56c-41.89,61.42 -74.79,126.95 -99.09,195.22l-79.1 -3.61c-37.88,-1.74 -69.65,27.79 -71.32,65.41l-12.71 291.16c-1.67,37.83 27.35,69.52 65.06,71.3l61.19 2.69c15.07,88.16 44.02,174.57 87.14,255.59l-38.1 36.08c-27.41,26.04 -28.51,69.45 -2.67,96.6l200.66 211.56c25.94,27.32 69.14,28.28 96.59,2.31l32.52 -31.01c70.69,46.03 146.83,80.44 225.79,103.42l-2 44.69c-1.65,37.58 27.84,69.62 65.35,71.45l291.22 12.64c37.59,1.62 69.55,-27.7 71.17,-65.49l2.45 -51.37c87.09,-19.81 172.08,-53.81 250.77,-101.97l41.24 43.48c25.94,27.35 69.11,28.45 96.56,2.51l211.39 -200.57c27.43,-26.05 28.53,-69.22 2.55,-96.6l-53.19 -56.09c36.59,-64.9 64.42,-133.5 82.82,-204.19l87.37 3.76c37.69,1.68 69.73,-27.53 71.24,-65.36l12.68 -291.1c1.86,-37.55 -27.35,-69.38 -65.04,-71.12l-105.6 -4.48c-18.81,-73.35 -47.78,-144.85 -86.64,-212.18l82.06 -77.78c27.39,-26.13 28.6,-69.26 2.69,-96.58zm-561.79 352.54l0 0c136.15,143.52 130.29,370.52 -13.4,506.81 -143.73,136.29 -370.7,130.35 -506.91,-13.2 -136.43,-143.77 -130.33,-370.64 13.3,-506.98 143.72,-136.32 370.48,-130.45 507.01,13.37z"/>
          <path class="fil20" d="M3116.97 -63.34l-172.42 -235.12c-22.15,-30.21 -65.01,-36.93 -95.51,-14.52l-97.33 71.53c-50.94,-40.16 -105.57,-73.8 -162.97,-101.05l20.71 -118.81c6.37,-37.36 -18.67,-72.72 -55.85,-79.1l-287.23 -49.26c-37.26,-6.49 -72.51,18.66 -78.9,55.98l-19.36 112.33c-75.36,5.05 -150.46,20.22 -223.41,45.68l-63.08 -86.11c-22.38,-30.42 -65.15,-37.12 -95.64,-14.76l-234.97 172.31c-30.44,22.36 -36.93,65.2 -14.61,95.62l52.61 71.76c-49.3,55.68 -90.19,116.52 -122.9,181.15l-78.02 -13.51c-37.36,-6.51 -72.59,18.78 -79,55.88l-49.3 287.25c-6.42,37.31 18.38,72.42 55.56,78.93l60.36 10.37c3.84,89.37 21.68,178.73 54.24,264.55l-42.34 30.97c-30.47,22.39 -37.04,65.32 -14.83,95.5l172.41 235.16c22.29,30.39 65.02,36.79 95.53,14.47l36.17 -26.66c64.3,54.56 135.53,98.32 210.98,131.05l-7.65 44.06c-6.37,37.1 18.88,72.59 55.85,79.13l287.32 49.23c37.05,6.34 72.47,-18.7 78.86,-55.98l8.87 -50.64c88.9,-8.69 177.5,-31.7 261.64,-69.56l35.41 48.3c22.28,30.42 64.98,36.97 95.48,14.68l234.99 -172.33c30.48,-22.39 37.04,-65.07 14.7,-95.53l-45.7 -62.32c44.45,-59.77 80.71,-124.33 107.9,-192.13l86.17 14.74c37.2,6.41 72.65,-18.53 78.92,-55.88l49.27 -287.18c6.61,-37 -18.4,-72.28 -55.61,-78.76l-104.14 -17.74c-9.41,-75.13 -29.11,-149.69 -59.22,-221.41l91.22 -66.81c30.46,-22.49 37.07,-65.11 14.82,-95.46zm-522.08 220.56l0 0c149.17,203.46 105.26,489.72 -98.46,639.06 -203.69,149.31 -489.89,105.32 -639.15,-98.18 -149.48,-203.82 -105.3,-489.86 98.32,-639.27 203.73,-149.38 489.65,-105.5 639.29,98.39z"/>
          <path class="fil20" d="M5669.99 671.29l-49.4 -145.79c-6.45,-18.61 -26.87,-28.87 -45.68,-22.5l-60.64 20.5c-19.15,-28.08 -41.13,-53.74 -65.87,-76.41l29.46 -56.43c8.95,-18.13 1.86,-39.83 -15.68,-48.92l-136.49 -70.49c-17.92,-9.3 -39.93,-2.14 -48.92,15.68l-27.32 53.64c-38.97,-9.79 -79.03,-13.78 -120,-12.55l-17.88 -53.39c-6.44,-19.16 -26.97,-29.05 -45.68,-22.81l-145.97 49.54c-18.46,6.2 -29.04,26.91 -22.49,45.75l15.05 44.58c-33.41,20.12 -64.08,44.44 -90.47,71.59l-37 -18.95c-18.08,-9.4 -39.75,-2.2 -49.12,15.37l-70.28 136.63c-9.24,17.78 -2.17,39.62 15.6,48.78l28.63 14.57c-12.47,45.79 -17.46,93.61 -14.54,142.05l-26.35 8.82c-19.19,6.23 -29.18,26.66 -22.77,45.54l49.54 145.8c6.23,18.7 26.87,29.14 45.82,22.53l22.46 -7.65c23.49,37.62 52.5,70.97 85.13,99.56l-10.51 20.54c-9.41,17.98 -2.1,39.89 15.47,48.98l136.6 70.56c17.77,9.03 39.72,2 48.71,-15.64l12.75 -24.19c45.99,9.79 94.05,12.06 142.62,6.41l10.06 30.18c6.34,18.81 26.77,28.73 45.55,22.46l146.07 -49.54c18.4,-6.2 28.9,-26.8 22.43,-45.61l-13.34 -38.72c32.01,-22.95 60.74,-49.75 85.03,-79.62l40.86 21.19c17.88,9.44 39.55,2.2 48.85,-15.57l70.38 -136.43c9.03,-17.98 2.28,-39.86 -15.74,-49.06l-49.27 -25.11c7,-39.52 8.89,-79.96 5.14,-121.03l56.6 -19.08c18.91,-6.55 29.04,-26.67 22.6,-45.76zm-297.83 28.25l0 0c42.79,125.85 -24.84,262.97 -151.07,305.86 -126.22,42.79 -263.2,-24.7 -306.13,-151 -42.75,-126.16 24.77,-263.31 151.11,-305.96 126.29,-42.86 263.34,24.81 306.09,151.1z"/>
         </g>
        </g>
       </g>
       <g>
        <path class="fil20" d="M3133.85 -388.06c0,-188.33 152.65,-341.02 340.99,-341.02 188.35,0 341,152.69 341,341.02 0,188.31 -152.65,341 -341,341 -188.34,0 -340.99,-152.69 -340.99,-341z"/>
        <path class="fil3" d="M3286.71 -405.72c0,-103.9 84.19,-188.14 188.13,-188.14 103.94,0 188.14,84.24 188.14,188.14 0,103.9 -84.2,188.13 -188.14,188.13 -103.94,0 -188.13,-84.23 -188.13,-188.13z"/>
       </g>
      </g>
      <g>
       <g>
        <path class="fil21" d="M2237.51 905.25c-163.97,0 -307.63,-71.24 -394.15,-195.49 -76.03,-109.16 -103.34,-239.32 -76.86,-366.49 26.79,-128.69 107.61,-245.59 227.57,-329.14l1122.97 -679.32c132.36,-92.29 265.34,-141.73 382.61,-141.73 122.23,0 224.62,54.26 296.07,156.89 75.28,108.04 93.05,228.82 51.4,349.28 -38.38,110.86 -125.06,215.72 -250.7,303.23l-1015.64 791.62c-104.87,73.1 -223.05,111.15 -343.27,111.15zm1262.14 -1641.61l0 0c-102.8,0 -221.8,45.06 -344.2,130.31l-1122.95 679.31c-103.22,71.99 -173.83,173.41 -196.93,284.39 -22.48,107.97 0.85,218.72 65.7,311.79 73.12,105.02 195.68,165.25 336.24,165.25 105.74,0 209.96,-33.67 301.41,-97.37l1015.68 -791.62c114.82,-80.04 192.4,-172.85 225.82,-269.51 34.46,-99.67 20.12,-195.86 -42.58,-285.89 -58.53,-84.04 -138.66,-126.66 -238.19,-126.66z"/>
       </g>
       <g>
        <path class="fil21" d="M5160.05 1061.14c-93.4,0 -196.75,-38.31 -298.9,-110.76l-1601.73 -1037.64c-207.25,-165.59 -203.91,-407.77 -94.98,-563.68l3.62 -6.41c59.84,-86.09 178.45,-139.56 309.57,-139.56 94.78,0 183.97,27.73 257.94,80.22l1471.95 1147.46c198.16,140.48 269.2,334.11 184.04,504.42l-3.72 5.87 -15.44 19.85c-50.85,65.56 -124.3,100.23 -212.35,100.23zm-1932.67 -1680.2l0 0 -3.79 6.67c-88.53,124.87 -102.18,324.58 77.07,467.97l1600.07 1036.42c90.1,63.88 181.73,98.59 259.32,98.59 66.38,0 119.09,-24.55 156.65,-72.95l13.26 -17.06c67.07,-138.22 5.79,-292.43 -164.54,-413.2l-1471.95 -1147.48c-77.03,-54.59 -160.03,-66.26 -215.84,-66.26 -105.66,0 -203.53,42.04 -250.25,107.3z"/>
       </g>
      </g>
     </g>
    </g>
   </g>
  </g>
 </g>
</svg>
