<?xml version="1.0" encoding="UTF-8"?>
<!DOCTYPE svg PUBLIC "-//W3C//DTD SVG 1.1//EN" "http://www.w3.org/Graphics/SVG/1.1/DTD/svg11.dtd">
<!-- Creator: CorelDRAW 2018 (64 Bit Versão de avaliação) -->
<svg xmlns="http://www.w3.org/2000/svg" xml:space="preserve" width="59.2666mm" height="59.2666mm" version="1.1" style="shape-rendering:geometricPrecision; text-rendering:geometricPrecision; image-rendering:optimizeQuality; fill-rule:evenodd; clip-rule:evenodd"
viewBox="0 0 5926.66 5926.66"
 xmlns:xlink="http://www.w3.org/1999/xlink">
 <defs>
  <style type="text/css">
   <![CDATA[
    .fil0 {fill:none}
    .fil1 {fill:#063A43}
    .fil5 {fill:#113645}
    .fil3 {fill:#B1B1B1}
    .fil2 {fill:#DFF5DA}
    .fil6 {fill:#FAFAFA}
    .fil8 {fill:#FF6600}
    .fil4 {fill:#FFC107}
    .fil7 {fill:white}
   ]]>
  </style>
 </defs>
 <g id="Camada_x0020_1">
  <metadata id="CorelCorpID_0Corel-Layer"/>
  <rect class="fil0" x="-0.01" y="-0" width="5926.68" height="5926.67"/>
  <path class="fil1" d="M972.5 3729.03l3767.35 0 0 -2061.79c0,-139.73 -114.29,-253.96 -253.99,-253.96l-3259.37 0c-139.7,0 -253.99,114.23 -253.99,253.96l0 2061.79z"/>
  <path class="fil2" d="M1099.49 3602.04l3513.37 0 0 -1934.8c0,-69.62 -57.38,-126.97 -127,-126.97l-3259.37 0c-69.62,0 -127,57.35 -127,126.97l0 1934.8z"/>
  <path class="fil3" d="M1912.21 3936.84c222.07,-0.63 489.91,-0.48 763.99,0l2380.57 0c7.53,-3.25 15.79,-6.29 24.96,-9.11 70.2,-21.56 69.05,-5.8 113.1,-67.13l-4668.12 2.81c25.28,28.01 1.68,11.53 44.58,36.84 37.2,21.94 77.23,32.23 117.04,36.59l136.54 0c21.73,-1.03 41.95,-1.71 59.94,-0.67 4.64,0.27 8.97,0.49 13.02,0.67l1014.38 0z"/>
  <path class="fil4" d="M2388.29 1251.71l2847.14 0c93.14,0 169.33,76.19 169.33,169.33l0 1325.83c0,93.14 -76.19,169.33 -169.33,169.33l-2145.2 0 -515.6 343.46 0 -343.46 -186.34 0c-93.14,0 -169.33,-76.19 -169.33,-169.33l0 -1325.83c0,-93.14 76.19,-169.33 169.33,-169.33z"/>
  <path class="fil3" d="M3180.36 3729.81l-648.9 0.54c15.97,83.22 39.44,67.87 131.75,67.12 64.44,-0.52 128.76,-0.79 193.22,-1 283.14,-0.92 298.46,34.92 323.93,-66.66z"/>
  <path class="fil5" d="M2696.23 1942.63l73.79 1.76c4.05,-130.57 -19.85,-242.29 95.44,-284.04 56.74,-20.54 121.11,-19.93 179.34,-6.79 80.23,18.1 87.34,33.65 105.73,96.87l15.06 195.94 73.01 -2.17c-0.77,-227.47 -12.97,-376.91 -259.9,-382.57 -268.32,-6.14 -298.39,129.96 -282.47,381z"/>
  <path class="fil3" d="M1912.21 3936.84c222.07,-0.63 489.91,-0.48 763.99,0l2380.57 0c7.53,-3.25 15.79,-6.29 24.96,-9.11 70.2,-21.56 69.05,-5.8 113.1,-67.13l-4668.12 2.81c25.28,28.01 1.68,11.53 44.58,36.84 37.2,21.94 77.23,32.23 117.04,36.59l136.54 0c21.73,-1.03 41.95,-1.71 59.94,-0.67 4.64,0.27 8.97,0.49 13.02,0.67l1014.38 0z"/>
  <path class="fil3" d="M3180.36 3729.81l-648.9 0.54c15.97,83.22 39.44,67.87 131.75,67.12 64.44,-0.52 128.76,-0.79 193.22,-1 283.14,-0.92 298.46,34.92 323.93,-66.66z"/>
  <path class="fil6" d="M4739.69 3729.47l-1559.33 0.34c-25.47,101.58 -40.79,65.74 -323.94,66.66 -64.45,0.21 -128.77,0.48 -193.2,1 -92.32,0.75 -115.79,16.1 -131.76,-67.12l-1558.96 -1.31 -457.5 0.74c-5.26,61.78 -17.3,88.69 11.71,133.63l4668.12 -2.81 10.56 -113.98 -46.7 -17.41 -148.4 0 -162.61 1.78 -1.41 -1.78 -92.84 0 -13.74 0.26z"/>
  <path class="fil5" d="M2696.23 1942.63l73.79 1.76c4.05,-130.57 -19.85,-242.29 95.44,-284.04 56.74,-20.54 121.11,-19.93 179.34,-6.79 80.23,18.1 87.34,33.65 105.73,96.87l15.06 195.94 73.01 -2.17c-0.77,-227.47 -12.97,-376.91 -259.9,-382.57 -268.32,-6.14 -298.39,129.96 -282.47,381z"/>
  <rect class="fil7" x="3576.76" y="1634.33" width="1456.43" height="395.57"/>
  <rect class="fil7" x="3576.76" y="2104.53" width="1456.43" height="395.57"/>
  <rect class="fil8" x="2591.38" y="1944.98" width="730.37" height="560.22"/>
  <rect class="fil1" x="2591.38" y="2455.33" width="730.37" height="49.87"/>
  <rect class="fil7" x="2793.99" y="2074.32" width="42.33" height="42.33"/>
  <rect class="fil7" x="2942.17" y="2074.32" width="42.33" height="42.33"/>
  <rect class="fil7" x="3090.34" y="2074.32" width="42.33" height="42.33"/>
  <rect class="fil7" x="2793.99" y="2203.91" width="42.33" height="42.33"/>
  <rect class="fil7" x="2942.17" y="2203.91" width="42.33" height="42.33"/>
  <rect class="fil7" x="3090.34" y="2203.91" width="42.33" height="42.33"/>
  <rect class="fil7" x="2793.99" y="2328.32" width="42.33" height="42.33"/>
  <rect class="fil7" x="2942.17" y="2328.32" width="42.33" height="42.33"/>
  <rect class="fil7" x="3090.34" y="2328.32" width="42.33" height="42.33"/>
  <rect class="fil1" x="4078.09" y="2259.98" width="84.68" height="84.68" rx="1693.74" ry="1693.74"/>
  <rect class="fil1" x="3901.71" y="2259.98" width="84.68" height="84.68" rx="1693.74" ry="1693.74"/>
  <rect class="fil1" x="3725.32" y="2259.98" width="84.68" height="84.68" rx="1693.74" ry="1693.74"/>
  <rect class="fil1" x="4783.64" y="2259.98" width="84.68" height="84.68" rx="1693.74" ry="1693.74"/>
  <rect class="fil1" x="4430.87" y="2259.98" width="84.68" height="84.68" rx="1693.74" ry="1693.74"/>
  <rect class="fil1" x="4607.25" y="2259.98" width="84.68" height="84.68" rx="1693.74" ry="1693.74"/>
  <rect class="fil1" x="4254.48" y="2259.98" width="84.68" height="84.68" rx="1693.74" ry="1693.74"/>
 </g>
</svg>
